<svg id="ed2WbTEkln11" xmlns="http://www.w3.org/2000/svg" xmlns:xlink="http://www.w3.org/1999/xlink" viewBox="0 0 156 258" shape-rendering="geometricPrecision" text-rendering="geometricPrecision"><path id="ed2WbTEkln12" d="M147.663,219.696C146.894,214.852,146.189,209.994,145.549,205.126C145.245,202.815,144.948,200.501,144.682,198.184C144.495,196.561,144.211,194.704,145.2,193.502C146.593,191.81,147.858,190.361,148.029,187.937C148.189,185.656,147.498,183.17,147.066,180.956C146.16,176.313,145.031,171.727,143.785,167.185C142.518,162.57,141.13,157.999,139.721,153.437C138.404,149.171,137.138,144.866,135.422,140.774C132.167,133.007,126.659,127.255,119.852,123.414C118.159,122.459,114.706,119.049,112.938,118.286C111.312,117.584,111.318,119.633,109.717,118.861C108.438,118.244,107.247,117.421,106.531,116.043C105.753,114.546,103.803,112.453,103.506,110.71C102.876,107.018,103.558,103.874,101.196,101.095C99.0996,98.627,96.2815,96.9362,93.3655,96.0285C86.9508,94.0319,78.396,95.4278,74.5258,102.08C72.6772,105.256,72.0313,109.096,69.537,111.688C67.3589,113.952,67.8463,115.5,65.0254,116.666C64.8656,116.733,60.535,115.696,60.3752,115.762C57.2892,115.025,54.3396,117.088,51.5083,118.286C47.2874,120.07,43.2687,122.393,39.4933,125.153C31.8804,130.72,25.36,137.948,19.9845,146.127C14.5645,154.374,10.3592,163.618,7.36489,173.278C6.63772,175.625,5.98454,178,5.40841,180.399C5.08592,181.741,4.74131,183.133,5.13398,184.507C5.45513,185.631,6.16953,186.468,7.00845,187.143C8.14565,188.057,10.4267,188.652,10.3823,190.491C10.3483,191.889,9.92325,193.361,9.71576,194.743C9.46879,196.388,9.26588,198.044,9.06296,199.697C8.13993,207.22,7.42153,214.786,7.10381,222.373C6.79105,229.843,6.53149,237.466,6.99587,244.935C7.02657,245.427,7.15816,245.879,7.37042,246.261C7.17227,246.346,7.15702,246.758,7.4036,246.817C7.57639,246.857,7.74879,246.898,7.92157,246.939C8.28048,247.242,8.72808,247.428,9.24318,247.446C9.59237,247.458,9.94137,247.476,10.2902,247.496C13.9711,248.355,17.6514,249.166,21.3803,249.78C25.9131,250.526,30.4592,251.135,35.0194,251.63C44.3899,252.646,53.6866,252.309,63.0695,251.761C72.4379,251.214,81.8007,251.086,91.1789,251.358C100.565,251.631,109.948,252.087,119.336,252.273C129.825,252.481,140.298,252.161,150.757,251.231C152.19,251.104,153.078,249.83,152.795,248.241C151.1,238.719,149.18,229.26,147.663,219.696Z" clip-rule="evenodd" fill="rgb(240,166,114)" fill-rule="evenodd" stroke="none" stroke-width="1"/><path id="ed2WbTEkln13" d="M51.5078,118.285L51.7127,118.197C54.4813,116.99,57.363,115.043,60.3747,115.762C60.4813,115.718,62.4409,116.164,63.7832,116.446L62.5092,117.93L60.2607,118.413C68.0175,132.7,77.1915,139.843,87.7828,139.843C98.3741,139.843,106.411,132.7,111.893,118.413L112.641,118.182C112.734,118.206,112.832,118.24,112.937,118.285C114.706,119.049,118.159,122.459,119.852,123.414C126.658,127.254,132.166,133.006,135.422,140.773C137.08,144.73,138.318,148.884,139.589,153.01L139.72,153.436C141.129,157.999,142.518,162.57,143.784,167.185C144.977,171.529,146.061,175.914,146.946,180.35L147.065,180.955C147.498,183.169,148.189,185.656,148.028,187.937C147.968,188.8,147.768,189.54,147.473,190.211L132.131,196.372L139.44,252.003C132.745,252.323,126.044,252.406,119.336,252.273C109.948,252.086,100.565,251.631,91.1784,251.358C82.0844,251.094,73.0048,251.207,63.9206,251.713L61.6137,251.844C52.7242,252.34,43.9047,252.594,35.0189,251.63L34.4134,251.563L34.4134,251.563L34.4133,243.426L37.5347,198.113L21.7164,194.79L6.18851,186.374C5.71934,185.851,5.34285,185.24,5.13349,184.507C4.7698,183.234,5.03857,181.946,5.33645,180.696L5.40792,180.398C5.98405,178,6.63723,175.625,7.3644,173.278C10.3587,163.617,14.5641,154.374,19.984,146.127C25.3595,137.948,31.8799,130.719,39.4928,125.153C43.2682,122.392,47.2869,120.07,51.5078,118.285Z" clip-rule="evenodd" fill="rgb(239,68,68)" fill-rule="evenodd" stroke="none" stroke-width="1"/><path id="ed2WbTEkln14" d="M57.4482,115.528C58.4182,115.481,59.4072,115.656,60.3749,115.762C60.4591,115.771,60.4912,115.916,60.3962,115.939C58.6644,116.342,56.9516,116.895,55.2508,117.456L54.5226,117.696C52.6046,118.329,50.7429,118.982,48.8862,119.827C45.1856,121.51,41.6711,123.782,38.4364,126.391C25.9809,136.441,16.966,151.657,11.2772,167.41C9.73226,171.688,8.42323,176.073,7.36289,180.531C7.10505,181.616,6.86247,182.705,6.63247,183.798C6.56496,184.118,6.2707,184.938,6.43204,185.266C6.57469,185.556,7.12927,185.735,7.38692,185.885L8.25676,186.389C9.95348,187.365,12.7798,188.969,13.0632,189.125L13.5052,189.368C20.7351,193.323,28.4602,196.677,36.5961,196.909L36.6598,196.134L36.6598,196.134C37.0225,191.848,37.4985,187.538,38.5375,183.384C38.5934,183.16,38.848,183.236,38.8713,183.434C39.4501,188.353,39.2651,193.309,39.0631,198.251C38.7055,207.003,38.2307,215.749,37.8086,224.498C37.5973,228.874,37.3242,233.247,37.0776,237.621C36.8307,242.004,36.7508,246.492,36.1868,250.839C36.0612,251.807,35.0443,252.334,34.2742,252.232C33.4221,252.119,32.7667,251.281,32.7627,250.321C32.7524,247.789,33.0375,245.227,33.196,242.701C33.3464,240.302,33.508,237.903,33.6735,235.505C34.2784,226.751,34.9743,218.007,35.618,209.258C35.846,206.154,36.0924,203.054,36.3461,199.953C27.7274,199.643,19.6754,196.081,11.9941,191.918C11.8829,194.735,11.6144,197.547,11.3544,200.353C10.6288,208.182,9.98895,216.008,9.51008,223.861C9.26826,227.827,9.09224,231.799,8.93891,235.77C8.86358,237.722,8.80217,239.675,8.75506,241.628C8.7393,242.279,8.72506,242.93,8.71246,243.581L8.68626,245.073C8.66482,246.018,8.57873,246.893,7.86617,247.581C7.14243,248.28,6.16485,248.317,5.44855,247.581C4.48967,246.596,4.65921,245.253,4.68762,243.93C4.71127,242.814,4.73969,241.698,4.77268,240.582C4.83885,238.35,4.92334,236.119,5.02613,233.888C5.38583,226.091,6.10453,218.326,7.04377,210.591L7.41042,207.605C8.09511,202.055,8.84682,196.378,10.3774,191.031C9.78146,190.7,9.18721,190.367,8.59525,190.033C7.54521,189.439,6.4595,188.883,5.43882,188.228C4.62907,187.708,3.9307,186.996,3.70528,185.944C3.45388,184.773,3.83831,183.491,4.0937,182.348L4.11588,182.248C4.36628,181.097,4.63594,179.951,4.92048,178.81C6.07427,174.184,7.50096,169.647,9.17062,165.222C12.5137,156.361,16.8289,147.944,22.0999,140.333C26.8446,133.482,32.4495,127.27,39.0187,122.61C42.2302,120.332,45.6527,118.461,49.2722,117.139C50.9639,116.521,52.8047,115.983,54.576,115.762C55.5314,115.643,56.4882,115.574,57.4482,115.528ZM74.6335,101.488C75.7862,100.107,78.0762,101.536,77.5228,103.365C76.221,107.668,74.148,111.593,70.9128,114.421C67.8718,117.079,64.2454,118.805,60.3401,118.437C60.31,118.434,60.2838,118.425,60.2607,118.413L60.5973,118.923C63.2395,122.911,66.027,126.845,69.3866,130.105C76.2317,136.747,85.5516,140.33,94.5512,137.781C101.632,135.776,107.87,129.528,109.705,121.565C109.442,121.696,109.129,121.741,108.786,121.658C107.318,121.302,105.865,119.58,104.918,118.344C103.894,117.008,103.094,115.565,102.508,113.934C101.435,110.949,101.091,107.106,102.556,104.214C102.737,103.857,103.154,104.057,103.189,104.405L103.245,104.948C103.527,107.658,103.879,110.28,105.024,112.75C105.584,113.959,106.256,115.139,107.074,116.151C107.511,116.693,107.985,117.211,108.498,117.665C108.997,118.107,109.6,118.427,110.048,118.935L110.13,119.032L110.132,119.015C110.245,117.942,110.919,117.469,111.579,117.499C112.217,117.528,112.967,117.841,113.257,117.991L113.285,118.006C117.738,120.392,121.84,123.501,125.7,126.951C133.682,134.086,139.663,143.413,142.561,154.396C143.983,159.787,144.799,165.341,145.661,170.87L146.191,174.257C146.995,179.361,147.893,184.566,149.709,189.313C150.178,190.542,149.816,191.693,148.665,192.176C147.227,192.779,145.784,193.363,144.339,193.94C145.049,197.337,145.482,200.852,146.013,204.267C147.143,211.524,148.528,218.734,149.715,225.982C150.323,229.688,150.87,233.406,151.477,237.112C151.769,238.896,152.073,240.679,152.37,242.463C152.529,243.424,152.674,244.389,152.827,245.353L152.853,245.513C152.94,246.021,153.05,246.546,152.925,247.055C152.782,247.635,152.376,248.044,152.014,248.46C151.716,248.803,151.285,248.805,150.92,248.618L150.8,248.556C150.148,248.216,149.637,247.876,149.405,247.055C149.259,246.535,149.206,245.949,149.11,245.414C148.927,244.387,148.752,243.359,148.588,242.327C148.259,240.264,147.938,238.2,147.625,236.134L147.332,234.199C146.327,227.532,145.372,220.824,144.89,214.086C144.676,211.096,144.449,208.11,144.22,205.123L144.048,202.882C143.83,200.046,143.565,197.138,143.527,194.264L142.663,194.607L142.663,194.607L138.446,196.27L138.446,196.27C137.401,196.682,136.07,197.527,134.945,197.374C134.394,197.298,133.974,197.105,133.65,196.753C134.038,202.868,134.563,208.973,135.264,215.046C135.901,220.572,136.608,226.091,137.442,231.585C137.856,234.305,138.28,237.023,138.742,239.733C138.972,241.089,139.21,242.442,139.456,243.795C139.578,244.469,139.723,245.145,139.819,245.825C139.928,246.604,139.736,247.083,139.346,247.724C139.025,248.25,138.385,248.52,137.865,248.157C137.178,247.675,136.819,247.258,136.617,246.381C136.433,245.585,136.321,244.753,136.179,243.946C135.916,242.457,135.662,240.966,135.417,239.473C134.905,236.35,134.432,233.22,134.011,230.08C132.524,219.02,131.581,207.867,131.104,196.696C130.869,191.185,130.797,185.668,130.838,180.151C130.86,177.323,130.942,174.487,131.122,171.666C131.303,168.811,131.681,166.012,132.018,163.184C132.03,163.084,132.156,163.079,132.161,163.184C132.321,166.355,132.571,169.522,132.694,172.701C132.811,175.734,132.862,178.772,132.955,181.807C133.077,185.795,133.247,189.786,133.471,193.775C133.878,193.279,134.49,192.993,135.103,193.104C135.991,192.896,136.947,192.377,137.794,192.061L140.985,190.871L140.985,190.871C142.662,190.246,144.34,189.625,146.024,189.023C144.519,183.371,143.487,177.636,142.607,171.817L142.214,169.2C141.437,164.049,140.599,158.895,139.191,153.907C137.711,148.662,135.496,143.787,132.558,139.371C129.661,135.02,126.138,131.188,122.51,127.604C119.404,124.536,116.081,121.766,112.913,118.782C112.946,118.98,112.953,119.197,112.924,119.437C112.25,124.938,109.679,130.061,106.095,133.872C98.8944,141.528,88.2362,143.116,79.0208,139.526C70.1065,136.054,62.2251,127.83,59.4405,117.653C59.3928,117.479,59.6018,117.41,59.6858,117.538C59.8402,117.774,59.9955,118.01,60.1509,118.246C60.1404,118.152,60.1841,118.05,60.2878,118.006C63.5367,116.606,66.7271,114.62,69.1625,111.812C70.3494,110.442,71.3854,108.891,72.2031,107.219C72.5949,106.417,72.9467,105.588,73.2274,104.73L73.2988,104.508C73.639,103.434,73.9233,102.339,74.6335,101.488Z" clip-rule="evenodd" fill="rgb(0,0,0)" fill-rule="evenodd" stroke="none" stroke-width="1"/><path id="ed2WbTEkln15" d="M127.399,69.1646C126.909,64.8612,127.544,55.8662,127.586,55.3197C127.855,51.865,126.234,38.2226,123.169,39.4796C118.029,35.416,111.182,34.5186,104.779,34.09C91.4802,33.1995,77.3325,35.2437,67.0634,44.1805C61.9849,48.8215,57.0407,55.5716,57.4382,62.5999C52.824,69.262,46.3192,78.4005,52.0682,86.189C54.0224,88.6773,57.1282,89.6039,59.5831,91.4884C64.521,95.4653,67.6189,101.173,72.6036,105.126C85.8098,116.976,108.234,119.451,121.209,105.973C131.242,96.2118,129.62,81.6087,127.855,69.1646C126.669,60.7984,128.356,77.5601,127.399,69.1646Z" clip-rule="evenodd" fill="rgb(240,166,114)" fill-rule="evenodd" stroke="none" stroke-width="1"/><path id="ed2WbTEkln16" d="M87.0132,15.8407C90.5699,15.1241,94.2221,14.6781,97.8542,14.8124L98.1343,14.8232C100.867,14.9323,104.328,15.1735,106.712,16.7603C106.849,16.6229,107.07,16.5524,107.27,16.6477C110.103,17.998,113.219,18.9743,116.202,19.9444C119.171,20.9097,122.252,21.547,125.364,21.8039C126.535,21.9005,127.537,23.163,126.795,24.2953C126.619,24.5652,126.447,24.8377,126.276,25.111C126.562,25.0812,126.849,25.0505,127.135,25.0216C128.076,24.9269,129.017,25.9305,128.961,26.846C128.927,27.4218,128.864,27.9908,128.772,28.553C129.131,28.5455,129.488,28.5992,129.832,28.7446C131.576,29.4801,131.455,31.5548,131.324,33.1333C131.144,35.3238,130.323,37.644,128.8,39.2835C129.937,40.4631,130.742,41.8719,131.223,43.545C131.571,44.7668,131.765,46.0681,131.669,47.3399L131.639,47.7207C131.52,49.1009,131.285,50.6289,130.291,51.6217C129.78,52.1336,129.151,52.3202,128.552,52.261C128.914,55.4417,129.147,58.6405,129.366,61.828L129.468,63.3514C129.956,70.7183,130.323,78.1331,130.227,85.5121C130.138,92.408,128.773,99.1015,124.538,104.701C120.68,109.799,115.141,113.558,108.875,114.986C105.499,115.758,102.051,115.812,98.6335,115.321C96.9768,115.082,95.3092,114.716,93.7368,114.138C91.9963,113.496,90.7454,112.552,89.5742,111.137C89.0203,110.466,89.2869,109.037,90.3899,109.171C92.0581,109.373,93.5809,109.617,95.1802,110.109L95.4092,110.181C97.0021,110.691,98.6517,111.071,100.317,111.232C103.728,111.562,107.191,111.23,110.459,110.197C115.779,108.514,120.361,104.762,123.298,100.048C126.784,94.4602,127.178,88.1171,127.128,81.6922C127.074,74.6419,126.844,67.5875,126.469,60.5446L126.406,59.3708C126.207,55.7465,126.016,52.12,125.848,48.4934C125.795,47.3559,125.715,46.2092,125.572,45.0739C124.257,44.3049,123.079,43.2447,122.311,41.9365C120.769,42.5735,119.147,43.0331,117.654,43.3994C114.197,44.2485,110.607,44.4546,107.088,43.9229C106.139,44.3145,105.171,44.6587,104.188,44.9549C103.922,45.0725,103.656,45.1881,103.391,45.3014C101.021,46.3139,98.6173,47.1716,96.1157,47.7995L95.5012,47.9525C94.1847,48.2766,92.7548,48.5957,91.3537,48.6959C91.1236,48.7846,90.8752,48.8597,90.6039,48.9257C89.3282,49.2351,88.0041,49.333,86.6965,49.2237C85.4226,49.1168,84.5021,47.8314,85.2039,46.6278C85.7165,45.7496,86.234,44.8737,86.7557,44C84.9398,44.7554,83.0646,45.3833,81.1735,45.9157C79.2641,46.4526,77.3274,46.9054,75.3882,47.3217C74.3515,47.5424,73.3104,47.7381,72.276,47.9588C71.5355,48.1158,70.3985,48.1977,69.7945,48.6845C69.1271,49.2192,68.938,50.466,68.6849,51.235C68.3522,52.2337,68.0401,53.2371,67.7553,54.2518C67.1881,56.2767,66.7233,58.3311,66.3633,60.406C66.0033,62.4832,65.7616,64.5809,65.6272,66.6854C65.493,68.7876,65.552,70.9035,65.3357,72.9966C65.2193,74.1069,64.0256,74.6779,63.1438,73.9021C63.0404,73.8111,62.9361,73.7191,62.8329,73.6261L62.679,73.4858C61.9246,72.8032,61.1932,72.0797,60.5897,71.2652C60.4803,71.1151,60.3755,70.9581,60.2775,70.7988C60.2616,70.7988,60.2479,70.7943,60.2319,70.7829L60.0646,70.6571C58.2218,69.2876,55.1432,67.502,53.3464,69.7773C52.7738,70.5021,52.4807,71.4251,52.2373,72.3155L51.8104,73.9091C51.5343,74.9494,51.2744,75.9955,51.1224,77.06C50.7783,79.4443,50.9515,82.1927,52.5945,84.1038C53.2507,84.8682,54.1552,85.4143,55.1644,85.5576C55.7274,85.635,56.2833,85.5394,56.8416,85.4689C57.4089,85.3983,57.9555,85.5121,58.5231,85.4575C59.4254,85.3688,59.8195,86.4472,59.4823,87.1252C59.3,87.4892,59.0856,87.8032,58.8421,88.0694C59.0378,88.2377,59.2249,88.4197,59.4049,88.6108C59.938,88.7815,60.4163,89.1478,60.7742,89.6324C61.0636,90.0237,61.2137,90.4491,61.239,90.8973C61.2707,91.0088,61.298,91.1226,61.3233,91.2386L61.8122,92.0308C61.9197,92.2045,62.0268,92.3762,62.1343,92.5445C63.3783,94.5012,64.7593,96.1574,66.475,97.7182C68.1269,99.2198,69.9198,100.564,71.4717,102.175L71.6545,102.366C73.1013,103.889,74.6263,105.731,74.06,107.945C73.9142,108.514,73.1188,108.923,72.5995,108.539C70.9294,107.301,70.0884,105.34,68.6714,103.838C67.213,102.291,65.5975,100.901,64.135,99.3586C62.7517,97.9025,61.6603,96.253,60.838,94.4374C60.5097,94.7992,60.0314,95.0563,59.3684,95.1564C58.2292,95.327,57.1672,94.6604,56.6707,93.6753C56.3515,93.8163,56.0259,93.9437,55.6975,94.0438C53.9705,94.5717,52.8838,92.6537,53.5355,91.2363C53.8839,90.4764,54.3191,89.8167,54.8593,89.2615C53.1707,89.0295,51.4527,88.1581,50.3431,87.0706C47.559,84.3381,47.1763,80.2315,47.8028,76.5799C48.1355,74.6438,48.7094,72.6849,49.4547,70.8671C49.5844,70.5508,49.7236,70.2323,49.876,69.9183C49.7917,69.9161,49.7051,69.8797,49.6505,69.8091C49.1469,69.1221,48.5342,68.5601,48.1603,67.7911C47.8163,67.0858,47.4337,66.3714,47.1624,65.6366C46.6044,64.1327,46.3309,62.4354,46.1487,60.8451C45.7727,57.5894,45.9183,54.3542,46.4175,51.1189C47.2672,45.6086,49.3196,40.3353,52.3434,35.7081C52.1788,35.6217,52.021,35.5174,51.8739,35.3941L51.8013,35.3309L51.6833,35.2244C50.8205,34.4447,50.895,32.9834,51.6833,32.1937L51.9323,31.9445C52.2476,31.6317,52.5195,31.3839,53.0288,31.0434C53.1039,30.9931,53.1807,30.9458,53.2584,30.9017C52.9918,30.4098,52.8993,29.8346,53.085,29.2001C53.7321,26.9896,56.9174,27.0678,58.9364,28.0318C61.17,26.0413,63.6467,24.3133,66.3312,22.9141C72.7249,19.5833,79.9543,17.2604,87.0132,15.8407ZM53.9641,74.0613C55.1581,73.6722,56.7439,74.489,57.817,74.9804C59.1773,75.6038,60.3348,76.5252,61.4558,77.499C62.014,77.9859,62.114,78.7822,61.9753,79.4624C61.9614,79.5307,61.9479,79.6012,61.9318,79.6717C61.7836,80.3975,60.9725,80.9686,60.2548,80.9481C58.7533,80.9071,58.0381,79.6126,57.188,78.516C57.0879,78.6934,56.9626,78.8572,56.8074,78.9801L56.7027,79.062C56.3499,79.3302,55.9611,79.5445,55.495,79.5239C55.1647,79.5079,54.8482,79.4238,54.5563,79.2713C53.8272,78.8868,53.5062,77.9449,53.7042,77.1782C53.8272,76.6959,54.1097,76.3182,54.4788,76.0566L54.3412,75.9626C54.0469,75.758,53.7783,75.5423,53.5691,75.2241L53.5219,75.1488L53.5401,75.1488C53.3123,74.7575,53.4606,74.2251,53.9641,74.0613Z" clip-rule="evenodd" fill="rgb(0,0,0)" fill-rule="evenodd" stroke="none" stroke-width="1"/><path id="ed2WbTEkln17" d="M115.237,73.4928C120.012,73.4928,123.882,69.4883,123.882,64.5485C123.882,59.6087,120.012,55.6042,115.237,55.6042C110.462,55.6042,105.294,59.4463,105.294,64.3861C105.294,66.4821,106.691,70.1448,107.858,71.6695C109.442,73.7383,112.488,73.4928,115.237,73.4928Z" clip-rule="evenodd" fill="rgb(255,255,255)" fill-rule="evenodd" stroke="none" stroke-width="1"/><path id="ed2WbTEkln18" d="M124.391,69.1024C123.559,71.6207,121.743,73.5599,119.213,74.4126C116.706,75.2577,113.918,74.9497,111.356,74.4927C110.795,74.3928,110.227,74.2824,109.66,74.1537C109.605,74.0233,108.838,73.6986,108.066,73.372C107.282,73.04,106.493,72.7061,106.443,72.5725L106.401,72.4578C106.37,72.4323,106.34,72.4066,106.31,72.3807C105.635,71.7958,105.068,71.0751,104.668,70.1826C103.583,67.7651,103.76,64.7642,104.418,62.2539C104.945,60.2418,106.109,58.3807,107.648,57.1164C107.916,56.6741,108.093,56.4059,108.311,56.1799C109.195,55.2594,110.428,54.6386,111.632,54.261C114.321,53.4172,117.249,54.0226,119.528,55.6291C121.632,57.1125,123.279,59.3373,124.17,61.8116C125.013,64.1549,125.177,66.7251,124.391,69.1024ZM112.378,57.6214C113.862,57.1113,115.429,57.2498,116.803,58.0119C119.787,59.6662,121.481,63.314,121.135,66.6649C120.989,68.0833,120.424,69.5198,119.227,70.3662C117.852,71.3379,116.055,71.3769,114.415,71.2627L114.096,71.2386L112.897,71.1385C111.341,71.0019,109.598,70.7664,108.447,69.7852C107.185,68.7093,106.905,66.7455,106.875,65.1402L106.873,64.9567L106.873,64.7767C106.876,63.4186,107.067,62.0391,107.53,60.7634C107.926,60.8128,108.362,60.664,108.611,60.2919L108.674,60.2004C109.018,59.7247,109.421,59.4563,109.856,59.1661C110.045,59.04,110.241,58.9098,110.44,58.7567L110.653,58.5952C111.188,58.1965,111.74,57.8408,112.378,57.6214Z" clip-rule="evenodd" fill="rgb(0,0,0)" fill-rule="evenodd" stroke="none" stroke-width="1"/><path id="ed2WbTEkln19" d="M110.113,60.9214L110.181,60.8156C110.862,59.7662,112.164,58.4788,113.514,58.8328C113.704,58.8825,113.89,58.9626,114.057,59.0664C114.799,58.9656,115.575,59.1342,116.213,59.5268L116.196,59.5708C116.193,59.5782,116.19,59.5857,116.188,59.5935C116.13,59.8487,116.164,60.0847,116.283,60.3193C116.413,60.5733,116.597,60.8143,116.846,60.96C117.017,61.0599,117.218,61.1124,117.416,61.1084C117.705,61.1032,117.959,60.9758,118.168,60.7813C118.282,60.6758,118.361,60.5211,118.405,60.3619C118.508,60.4608,118.608,60.571,118.703,60.696C120.268,62.7557,120.052,66.0653,118.216,67.9012C118.154,67.9629,118.089,68.0196,118.024,68.0763L117.985,68.1104C117.24,69.1374,116.091,69.8344,114.711,69.9755C113.433,70.1062,112.156,69.728,111.176,68.9527C111.255,68.9108,111.328,68.8564,111.392,68.7843C111.559,68.5948,111.697,68.4078,111.798,68.1763C111.824,68.1181,111.849,68.0594,111.872,68.0002L111.906,67.9109C111.912,67.8945,111.964,67.7439,111.95,67.7703L111.947,67.7764L111.965,67.733C112.141,67.295,112.07,66.7942,111.654,66.5194L111.608,66.4909C111.472,66.4115,111.303,66.3741,111.133,66.3736C110.708,65.8529,110.075,65.7335,109.482,65.8856L109.461,65.7175C109.458,65.6895,109.455,65.6614,109.453,65.6332C108.993,64.1069,109.215,62.3725,110.113,60.9214Z" clip-rule="evenodd" fill="rgb(0,0,0)" fill-rule="evenodd" stroke="none" stroke-width="1"/><path id="ed2WbTEkln110" d="M114.487,46.4225C112.354,45.8538,108.739,45.4457,107.285,47.5739C107.234,47.6485,107.285,47.7653,107.371,47.7846C107.467,47.8063,107.563,47.8278,107.658,47.8493C109.745,48.3187,111.751,48.77,113.732,49.6556C115.499,50.446,116.935,51.5188,118.385,52.7042L118.708,52.9694L119.212,53.3878C121.101,54.9606,123.614,52.5322,121.935,50.6631C120.059,48.5766,117.161,47.1351,114.487,46.4225Z" clip-rule="evenodd" fill="rgb(0,0,0)" fill-rule="evenodd" stroke="none" stroke-width="1"/><path id="ed2WbTEkln111" d="M88.3529,75.3858C94.5905,75.3858,99.647,70.9576,99.647,65.495C99.647,60.0325,94.5905,55.6042,88.3529,55.6042C82.1154,55.6042,75.3649,59.8529,75.3649,65.3154C75.3649,67.6332,77.1893,71.6835,78.714,73.3696C80.7827,75.6572,84.762,75.3858,88.3529,75.3858Z" clip-rule="evenodd" fill="rgb(255,255,255)" fill-rule="evenodd" stroke="none" stroke-width="1"/><path id="ed2WbTEkln112" d="M87.7699,53.7982C90.9673,53.7709,94.2205,54.7157,96.8151,56.6065C99.2974,58.4158,101.246,61.087,101.244,64.2688C101.241,67.3667,99.5868,70.4126,97.7518,72.8111C95.692,75.5037,93.0002,76.802,89.6158,76.8319C87.8565,76.8477,86.0844,76.6917,84.3378,76.4776L83.4007,76.3593C82.1103,76.1927,80.8064,75.9956,79.5833,75.5518C73.7612,73.4382,73.5809,65.811,75.7372,60.9356C77.4021,57.1714,81.616,53.5005,85.8179,53.9411C86.4511,53.8523,87.1012,53.8041,87.7699,53.7982ZM80.4172,58.0444C84.3012,56.1249,89.1661,55.5863,93.1701,57.385C95.224,58.3077,97.2403,59.8768,98.1633,61.9861C99.249,64.4678,98.1654,67.1018,96.8711,69.2676L96.8129,69.3645C95.5665,71.4316,93.9829,73.4477,91.4894,73.933C89.252,74.368,86.7067,74.0977,84.3786,73.7501L83.9926,73.6916L83.0727,73.547C80.7033,73.1698,78.5068,72.5617,77.6148,70.1067C76.8843,68.0955,76.8132,65.8605,77.2991,63.7855C77.7541,61.8417,78.8786,59.7244,80.4172,58.0444Z" clip-rule="evenodd" fill="rgb(0,0,0)" fill-rule="evenodd" stroke="none" stroke-width="1"/><path id="ed2WbTEkln113" d="M93.6144,58.8891C91.7466,57.4771,89.0979,57.1947,86.893,58.3213C86.1732,58.1471,85.4175,58.2288,84.5405,58.6181C82.7396,59.4169,81.5824,61.147,81.2535,63.067C81.0203,64.428,81.1965,65.7868,81.6892,66.9937C82.3408,66.3701,83.2735,66.0677,84.185,66.3413C85.6015,66.7664,86.0356,68.2884,85.6123,69.5895C85.4464,70.0996,84.901,70.3043,84.4441,70.2221C84.4382,70.2312,84.4315,70.2394,84.4248,70.2477C84.4207,70.2528,84.4167,70.2578,84.4128,70.263C85.5502,70.9691,86.9208,71.3272,88.4238,71.1619C92.401,70.7244,96.8528,66.351,95.7671,62.1368C95.5979,61.4803,95.3316,60.8901,94.9923,60.3676L94.9889,60.3711C94.9682,60.3927,94.9475,60.4143,94.925,60.4337C94.9116,60.4702,94.8951,60.5056,94.8779,60.5406C94.8664,60.5701,94.8549,60.599,94.8424,60.628C94.8546,60.6089,94.8623,60.6004,94.8608,60.6049L94.8542,60.6166L94.837,60.6417L94.8231,60.6758C94.725,60.908,94.5756,61.0924,94.3617,61.2323C93.9535,61.4996,93.4323,61.4353,92.9928,61.2949C92.4876,61.1334,92.2224,60.6485,92.3354,60.1363C92.4356,59.6832,92.6986,59.2574,93.1224,59.0448C93.2852,58.9631,93.4485,58.9216,93.6144,58.8891Z" transform="matrix(1 0 0 1 0.014404 0)" clip-rule="evenodd" fill="rgb(0,0,0)" fill-rule="evenodd" stroke="none" stroke-width="1"/><path id="ed2WbTEkln114" d="M89.6907,45.5552L89.8434,45.5315C90.9983,45.3644,91.7836,45.5567,92.5344,46.5446C92.8923,47.0153,92.782,47.7263,92.5344,48.2074C91.9408,49.3616,90.5754,49.4816,89.3051,49.5932C88.8646,49.632,88.4354,49.6697,88.054,49.7492C86.6076,50.0504,85.1648,50.4604,83.8114,51.0571C82.4304,51.6661,81.1342,52.3865,79.8702,53.2091C79.4838,53.4606,79.1096,53.7549,78.7331,54.0511C77.9953,54.6313,77.2486,55.2186,76.3838,55.5054C76.325,55.5249,76.2542,55.4722,76.2579,55.4098C76.3508,53.9256,77.5874,52.563,78.5477,51.505L78.5526,51.4996C79.6641,50.2753,81.0158,49.1882,82.4236,48.324C83.8763,47.4324,85.4467,46.6983,87.0726,46.1864C87.9288,45.9167,88.8048,45.7024,89.6907,45.5552Z" clip-rule="evenodd" fill="rgb(0,0,0)" fill-rule="evenodd" stroke="none" stroke-width="1"/><path id="ed2WbTEkln115" d="M108.095,73.3448C109.95,74.4727,112.777,77.1028,110.781,79.8991C108.432,82.3647,105.049,79.5377,103.383,78.2592C101.837,77.2684,100.101,79.8168,101.535,80.9738C113.579,89.8927,118.466,73.6397,109.033,72.0186C107.994,71.84,107.609,72.9959,108.095,73.3448Z" clip-rule="evenodd" fill="rgb(0,0,0)" fill-rule="evenodd" stroke="none" stroke-width="1"/><path id="ed2WbTEkln116" d="M95.9417,99.2093C95.9818,99.0769,95.7985,99.003,95.7093,99.1006C95.3989,99.4397,94.9566,99.66,94.6261,99.9858C94.3032,100.304,94.0318,100.667,93.7901,101.045C93.2428,101.904,92.8614,102.837,92.6089,103.804C92.3204,104.91,92.1893,106.231,92.8503,107.185C93.8262,107.503,93.8262,107.503,94.6328,106.974C95.27,106.239,94.886,105.015,94.8704,103.232C94.8403,102.702,94.8928,102.217,95.1237,101.273C95.3325,100.418,95.7775,99.7516,95.9417,99.2093Z" transform="matrix(1 0 0 1 2.658881 -5.564273)" fill="rgb(19,194,255)" stroke="none" stroke-width="1"/><path id="ed2WbTEkln117" d="M105.544,90.8179C105.747,90.7787,105.901,91.0617,105.725,91.1966C105.005,91.7492,104.49,92.8422,103.94,93.5719C103.416,94.2661,102.909,94.9541,102.439,95.6868C101.912,96.508,101.402,97.3271,100.973,98.2059L100.888,98.3832C100.976,98.65,101.04,98.9115,101.089,99.0835L101.104,99.1324C101.596,100.762,100.174,102.421,98.6876,102.752C96.1458,103.318,94.1726,101.095,94.301,98.64C94.402,96.7089,95.8271,95.0904,97.2391,93.9169C98.4742,92.8905,99.8343,92.0403,101.328,91.4556C101.987,91.1979,102.666,90.9922,103.367,90.8964C104.085,90.7986,104.838,90.9535,105.544,90.8179Z" clip-rule="evenodd" fill="rgb(0,0,0)" fill-rule="evenodd" stroke="none" stroke-width="1"/><script><![CDATA[!function(t,n){"object"==typeof exports&&"undefined"!=typeof module?module.exports=n():"function"==typeof define&&define.amd?define(n):((t="undefined"!=typeof globalThis?globalThis:t||self).__SVGATOR_PLAYER__=t.__SVGATOR_PLAYER__||{},t.__SVGATOR_PLAYER__["5c7f360c"]=n())}(this,(function(){"use strict";function t(t,n){var r=Object.keys(t);if(Object.getOwnPropertySymbols){var e=Object.getOwnPropertySymbols(t);n&&(e=e.filter((function(n){return Object.getOwnPropertyDescriptor(t,n).enumerable}))),r.push.apply(r,e)}return r}function n(t){return(n="function"==typeof Symbol&&"symbol"==typeof Symbol.iterator?function(t){return typeof t}:function(t){return t&&"function"==typeof Symbol&&t.constructor===Symbol&&t!==Symbol.prototype?"symbol":typeof t})(t)}function r(t,n){if(!(t instanceof n))throw new TypeError("Cannot call a class as a function")}function e(t,n){for(var r=0;r<n.length;r++){var e=n[r];e.enumerable=e.enumerable||!1,e.configurable=!0,"value"in e&&(e.writable=!0),Object.defineProperty(t,e.key,e)}}function i(t,n,r){return n&&e(t.prototype,n),r&&e(t,r),t}function o(t,n,r){return n in t?Object.defineProperty(t,n,{value:r,enumerable:!0,configurable:!0,writable:!0}):t[n]=r,t}function u(t){return(u=Object.setPrototypeOf?Object.getPrototypeOf:function(t){return t.__proto__||Object.getPrototypeOf(t)})(t)}function a(t,n){return(a=Object.setPrototypeOf||function(t,n){return t.__proto__=n,t})(t,n)}function l(t,n){if(n&&("object"==typeof n||"function"==typeof n))return n;if(void 0!==n)throw new TypeError("Derived constructors may only return object or undefined");return function(t){if(void 0===t)throw new ReferenceError("this hasn't been initialised - super() hasn't been called");return t}(t)}function f(t){var n=function(){if("undefined"==typeof Reflect||!Reflect.construct)return!1;if(Reflect.construct.sham)return!1;if("function"==typeof Proxy)return!0;try{return Boolean.prototype.valueOf.call(Reflect.construct(Boolean,[],(function(){}))),!0}catch(t){return!1}}();return function(){var r,e=u(t);if(n){var i=u(this).constructor;r=Reflect.construct(e,arguments,i)}else r=e.apply(this,arguments);return l(this,r)}}function s(t,n,r){return(s="undefined"!=typeof Reflect&&Reflect.get?Reflect.get:function(t,n,r){var e=function(t,n){for(;!Object.prototype.hasOwnProperty.call(t,n)&&null!==(t=u(t)););return t}(t,n);if(e){var i=Object.getOwnPropertyDescriptor(e,n);return i.get?i.get.call(r):i.value}})(t,n,r||t)}var c=h(Math.pow(10,-6));function h(t){var n=arguments.length>1&&void 0!==arguments[1]?arguments[1]:6;if(Number.isInteger(t))return t;var r=Math.pow(10,n);return Math.round((+t+Number.EPSILON)*r)/r}function v(t,n){var r=arguments.length>2&&void 0!==arguments[2]?arguments[2]:c;return Math.abs(t-n)<r}var y=Math.PI/180;function g(t){return t}function d(t,n,r){var e=1-r;return 3*r*e*(t*e+n*r)+r*r*r}function p(){var t=arguments.length>0&&void 0!==arguments[0]?arguments[0]:0,n=arguments.length>1&&void 0!==arguments[1]?arguments[1]:0,r=arguments.length>2&&void 0!==arguments[2]?arguments[2]:1,e=arguments.length>3&&void 0!==arguments[3]?arguments[3]:1;return t<0||t>1||r<0||r>1?null:v(t,n)&&v(r,e)?g:function(i){if(i<=0)return t>0?i*n/t:0===n&&r>0?i*e/r:0;if(i>=1)return r<1?1+(i-1)*(e-1)/(r-1):1===r&&t<1?1+(i-1)*(n-1)/(t-1):1;for(var o,u=0,a=1;u<a;){var l=d(t,r,o=(u+a)/2);if(v(i,l))break;l<i?u=o:a=o}return d(n,e,o)}}function m(){return 1}function b(t){return 1===t?1:0}function w(){var t=arguments.length>0&&void 0!==arguments[0]?arguments[0]:1,n=arguments.length>1&&void 0!==arguments[1]?arguments[1]:0;if(1===t){if(0===n)return b;if(1===n)return m}var r=1/t;return function(t){return t>=1?1:(t+=n*r)-t%r}}function x(t,n,r){return t>=.5?r:n}function k(t,n,r){return 0===t||n===r?n:t*(r-n)+n}function _(t,n,r){var e=k(t,n,r);return e<=0?0:e}function A(t,n,r){return 0===t?n:1===t?r:{x:k(t,n.x,r.x),y:k(t,n.y,r.y)}}function S(t,n,r){var e=function(t,n,r){return Math.round(k(t,n,r))}(t,n,r);return e<=0?0:e>=255?255:e}function O(t,n,r){return 0===t?n:1===t?r:{r:S(t,n.r,r.r),g:S(t,n.g,r.g),b:S(t,n.b,r.b),a:k(t,null==n.a?1:n.a,null==r.a?1:r.a)}}function P(t,n,r){if(0===t)return n;if(1===t)return r;var e=n.length;if(e!==r.length)return x(t,n,r);for(var i=[],o=0;o<e;o++)i.push(O(t,n[o],r[o]));return i}function j(t,n){for(var r=[],e=0;e<t;e++)r.push(n);return r}function M(t,n){if(--n<=0)return t;var r=(t=Object.assign([],t)).length;do{for(var e=0;e<r;e++)t.push(t[e])}while(--n>0);return t}var E,R=function(){function t(n){r(this,t),this.list=n,this.length=n.length}return i(t,[{key:"setAttribute",value:function(t,n){for(var r=this.list,e=0;e<this.length;e++)r[e].setAttribute(t,n)}},{key:"removeAttribute",value:function(t){for(var n=this.list,r=0;r<this.length;r++)n[r].removeAttribute(t)}},{key:"style",value:function(t,n){for(var r=this.list,e=0;e<this.length;e++)r[e].style[t]=n}}]),t}(),I=/-./g,F=function(t,n){return n.toUpperCase()};function N(t){return"function"==typeof t?t:x}function T(t){return t?"function"==typeof t?t:Array.isArray(t)?function(t){var n=arguments.length>1&&void 0!==arguments[1]?arguments[1]:g;if(!Array.isArray(t))return n;switch(t.length){case 1:return w(t[0])||n;case 2:return w(t[0],t[1])||n;case 4:return p(t[0],t[1],t[2],t[3])||n}return n}(t,null):function(t,n){var r=arguments.length>2&&void 0!==arguments[2]?arguments[2]:g;switch(t){case"linear":return g;case"steps":return w(n.steps||1,n.jump||0)||r;case"bezier":case"cubic-bezier":return p(n.x1||0,n.y1||0,n.x2||0,n.y2||0)||r}return r}(t.type,t.value,null):null}function B(t,n,r){var e=arguments.length>3&&void 0!==arguments[3]&&arguments[3],i=n.length-1;if(t<=n[0].t)return e?[0,0,n[0].v]:n[0].v;if(t>=n[i].t)return e?[i,1,n[i].v]:n[i].v;var o,u=n[0],a=null;for(o=1;o<=i;o++){if(!(t>n[o].t)){a=n[o];break}u=n[o]}return null==a?e?[i,1,n[i].v]:n[i].v:u.t===a.t?e?[o,1,a.v]:a.v:(t=(t-u.t)/(a.t-u.t),u.e&&(t=u.e(t)),e?[o,t,r(t,u.v,a.v)]:r(t,u.v,a.v))}function q(t,n){var r=arguments.length>2&&void 0!==arguments[2]?arguments[2]:null;return t&&t.length?"function"!=typeof n?null:("function"!=typeof r&&(r=null),function(e){var i=B(e,t,n);return null!=i&&r&&(i=r(i)),i}):null}function L(t,n){return t.t-n.t}function C(t,r,e,i,o){var u,a="@"===e[0],l="#"===e[0],f=E[e],s=x;switch(a?(u=e.substr(1),e=u.replace(I,F)):l&&(e=e.substr(1)),n(f)){case"function":if(s=f(i,o,B,T,e,a,r,t),l)return s;break;case"string":s=q(i,N(f));break;case"object":if((s=q(i,N(f.i),f.f))&&"function"==typeof f.u)return f.u(r,s,e,a,t)}return s?function(t,n,r){if(arguments.length>3&&void 0!==arguments[3]&&arguments[3])return t instanceof R?function(e){return t.style(n,r(e))}:function(e){return t.style[n]=r(e)};if(Array.isArray(n)){var e=n.length;return function(i){var o=r(i);if(null==o)for(var u=0;u<e;u++)t[u].removeAttribute(n);else for(var a=0;a<e;a++)t[a].setAttribute(n,o)}}return function(e){var i=r(e);null==i?t.removeAttribute(n):t.setAttribute(n,i)}}(r,e,s,a):null}function D(t,r,e,i){if(!i||"object"!==n(i))return null;var o=null,u=null;return Array.isArray(i)?u=function(t){if(!t||!t.length)return null;for(var n=0;n<t.length;n++)t[n].e&&(t[n].e=T(t[n].e));return t.sort(L)}(i):(u=i.keys,o=i.data||null),u?C(t,r,e,u,o):null}function z(t,n,r){if(!r)return null;var e=[];for(var i in r)if(r.hasOwnProperty(i)){var o=D(t,n,i,r[i]);o&&e.push(o)}return e.length?e:null}function V(t,n){if(!n.duration||n.duration<0)return null;var r=function(t,n){if(!n)return null;var r=[];if(Array.isArray(n))for(var e=n.length,i=0;i<e;i++){var o=n[i];if(2===o.length){var u=null;if("string"==typeof o[0])u=t.getElementById(o[0]);else if(Array.isArray(o[0])){u=[];for(var a=0;a<o[0].length;a++)if("string"==typeof o[0][a]){var l=t.getElementById(o[0][a]);l&&u.push(l)}u=u.length?1===u.length?u[0]:new R(u):null}if(u){var f=z(t,u,o[1]);f&&(r=r.concat(f))}}}else for(var s in n)if(n.hasOwnProperty(s)){var c=t.getElementById(s);if(c){var h=z(t,c,n[s]);h&&(r=r.concat(h))}}return r.length?r:null}(t,n.elements);return r?function(t,n){var r=arguments.length>2&&void 0!==arguments[2]?arguments[2]:1/0,e=arguments.length>3&&void 0!==arguments[3]?arguments[3]:1,i=arguments.length>4&&void 0!==arguments[4]&&arguments[4],o=arguments.length>5&&void 0!==arguments[5]?arguments[5]:1,u=t.length,a=e>0?n:0;i&&r%2==0&&(a=n-a);var l=null;return function(f,s){var c=f%n,h=1+(f-c)/n;s*=e,i&&h%2==0&&(s=-s);var v=!1;if(h>r)c=a,v=!0,-1===o&&(c=e>0?0:n);else if(s<0&&(c=n-c),c===l)return!1;l=c;for(var y=0;y<u;y++)t[y](c);return v}}(r,n.duration,n.iterations||1/0,n.direction||1,!!n.alternate,n.fill||1):null}function G(t){return+("0x"+(t.replace(/[^0-9a-fA-F]+/g,"")||27))}function Y(t,n,r){return!t||!r||n>t.length?t:t.substring(0,n)+Y(t.substring(n+1),r,r)}function Q(t){var n=arguments.length>1&&void 0!==arguments[1]?arguments[1]:27;return!t||t%n?t%n:Q(t/n,n)}function U(t,n,r){if(t&&t.length){var e=G(r),i=G(n),o=Q(e)+5,u=Y(t,Q(e,5),o);return u=u.replace(/\x7c$/g,"==").replace(/\x2f$/g,"="),u=function(t,n,r){var e=+("0x"+t.substring(0,4));t=t.substring(4);for(var i=n%e+r%27,o=[],u=0;u<t.length;u+=2)if("|"!==t[u]){var a=+("0x"+t[u]+t[u+1])-i;o.push(a)}else{var l=+("0x"+t.substring(u+1,u+1+4))-i;u+=3,o.push(l)}return String.fromCharCode.apply(String,o)}(u=(u=atob(u)).replace(/[\x41-\x5A]/g,""),i,e),u=JSON.parse(u)}}Number.isInteger||(Number.isInteger=function(t){return"number"==typeof t&&isFinite(t)&&Math.floor(t)===t}),Number.EPSILON||(Number.EPSILON=2220446049250313e-31);var $=function(){function n(t,e){var i=arguments.length>2&&void 0!==arguments[2]?arguments[2]:{};r(this,n),this._id=0,this._running=!1,this._rollingBack=!1,this._animations=t,this.duration=e.duration,this.alternate=e.alternate,this.fill=e.fill,this.iterations=e.iterations,this.direction=i.direction||1,this.speed=i.speed||1,this.fps=i.fps||100,this.offset=i.offset||0,this.rollbackStartOffset=0}return i(n,[{key:"_rollback",value:function(){var t=this,n=1/0,r=null;this.rollbackStartOffset=this.offset,this._rollingBack||(this._rollingBack=!0,this._running=!0);this._id=window.requestAnimationFrame((function e(i){if(t._rollingBack){null==r&&(r=i);var o=i-r,u=t.rollbackStartOffset-o,a=Math.round(u*t.speed);if(a>t.duration&&n!=1/0){var l=!!t.alternate&&a/t.duration%2>1,f=a%t.duration;a=(f+=l?t.duration:0)||t.duration}var s=t.fps?1e3/t.fps:0,c=Math.max(0,a);if(c<n-s){t.offset=c,n=c;for(var h=t._animations,v=h.length,y=0;y<v;y++)h[y](c,t.direction)}var g=!1;if(t.iterations>0&&-1===t.fill){var d=t.iterations*t.duration,p=d==a;a=p?0:a,t.offset=p?0:t.offset,g=a>d}a>0&&t.offset>=a&&!g?t._id=window.requestAnimationFrame(e):t.stop()}}))}},{key:"_start",value:function(){var t=this,n=arguments.length>0&&void 0!==arguments[0]?arguments[0]:0,r=-1/0,e=null,i={},o=function o(u){t._running=!0,null==e&&(e=u);var a=Math.round((u-e+n)*t.speed),l=t.fps?1e3/t.fps:0;if(a>r+l&&!t._rollingBack){t.offset=a,r=a;for(var f=t._animations,s=f.length,c=0,h=0;h<s;h++)i[h]?c++:(i[h]=f[h](a,t.direction),i[h]&&c++);if(c===s)return void t._stop()}t._id=window.requestAnimationFrame(o)};this._id=window.requestAnimationFrame(o)}},{key:"_stop",value:function(){this._id&&window.cancelAnimationFrame(this._id),this._running=!1,this._rollingBack=!1}},{key:"play",value:function(){!this._rollingBack&&this._running||(this._rollingBack=!1,this.rollbackStartOffset>this.duration&&(this.offset=this.rollbackStartOffset-(this.rollbackStartOffset-this.offset)%this.duration,this.rollbackStartOffset=0),this._start(this.offset))}},{key:"stop",value:function(){this._stop(),this.offset=0,this.rollbackStartOffset=0;var t=this.direction,n=this._animations;window.requestAnimationFrame((function(){for(var r=0;r<n.length;r++)n[r](0,t)}))}},{key:"reachedToEnd",value:function(){return this.iterations>0&&this.offset>=this.iterations*this.duration}},{key:"restart",value:function(){this._stop(),this.offset=0,this._start()}},{key:"pause",value:function(){this._stop()}},{key:"reverse",value:function(){this.direction=-this.direction}}],[{key:"build",value:function(r,e){return delete r.animationSettings,r.options=U(r.options,r.root,"5c7f360c"),r.animations.map((function(n){var e=U(n.s,r.root,"5c7f360c");for(var i in delete n.s,r.animationSettings||(r.animationSettings=function(n){for(var r=1;r<arguments.length;r++){var e=null!=arguments[r]?arguments[r]:{};r%2?t(Object(e),!0).forEach((function(t){o(n,t,e[t])})):Object.getOwnPropertyDescriptors?Object.defineProperties(n,Object.getOwnPropertyDescriptors(e)):t(Object(e)).forEach((function(t){Object.defineProperty(n,t,Object.getOwnPropertyDescriptor(e,t))}))}return n}({},e)),e)e.hasOwnProperty(i)&&(n[i]=e[i])})),(r=function(t,n){if(E=n,!t||!t.root||!Array.isArray(t.animations))return null;for(var r=document.getElementsByTagName("svg"),e=!1,i=0;i<r.length;i++)if(r[i].id===t.root&&!r[i].svgatorAnimation){(e=r[i]).svgatorAnimation=!0;break}if(!e)return null;var o=t.animations.map((function(t){return V(e,t)})).filter((function(t){return!!t}));return o.length?{element:e,animations:o,animationSettings:t.animationSettings,options:t.options||void 0}:null}(r,e))?{el:r.element,options:r.options||{},player:new n(r.animations,r.animationSettings,r.options)}:null}},{key:"push",value:function(t){return this.build(t)}},{key:"init",value:function(){var t=this,n=window.__SVGATOR_PLAYER__&&window.__SVGATOR_PLAYER__["5c7f360c"];Array.isArray(n)&&n.splice(0).forEach((function(n){return t.build(n)}))}}]),n}();function H(t){return h(t)+""}function J(t){var n=arguments.length>1&&void 0!==arguments[1]?arguments[1]:" ";return t&&t.length?t.map(H).join(n):""}function Z(t){return t?null==t.a||t.a>=1?"rgb("+t.r+","+t.g+","+t.b+")":"rgba("+t.r+","+t.g+","+t.b+","+t.a+")":"transparent"}!function(){for(var t=0,n=["ms","moz","webkit","o"],r=0;r<n.length&&!window.requestAnimationFrame;++r)window.requestAnimationFrame=window[n[r]+"RequestAnimationFrame"],window.cancelAnimationFrame=window[n[r]+"CancelAnimationFrame"]||window[n[r]+"CancelRequestAnimationFrame"];window.requestAnimationFrame||(window.requestAnimationFrame=function(n){var r=Date.now(),e=Math.max(0,16-(r-t)),i=window.setTimeout((function(){n(r+e)}),e);return t=r+e,i},window.cancelAnimationFrame=window.clearTimeout)}();var K={f:null,i:function(t,n,r){return 0===t?n:1===t?r:{x:_(t,n.x,r.x),y:_(t,n.y,r.y)}},u:function(t,n){return function(r){var e=n(r);t.setAttribute("rx",H(e.x)),t.setAttribute("ry",H(e.y))}}},W={f:null,i:function(t,n,r){return 0===t?n:1===t?r:{width:_(t,n.width,r.width),height:_(t,n.height,r.height)}},u:function(t,n){return function(r){var e=n(r);t.setAttribute("width",H(e.width)),t.setAttribute("height",H(e.height))}}},X=Math.sin,tt=Math.cos,nt=Math.acos,rt=Math.asin,et=Math.tan,it=Math.atan2,ot=Math.PI/180,ut=180/Math.PI,at=Math.sqrt,lt=function(){function t(){var n=arguments.length>0&&void 0!==arguments[0]?arguments[0]:1,e=arguments.length>1&&void 0!==arguments[1]?arguments[1]:0,i=arguments.length>2&&void 0!==arguments[2]?arguments[2]:0,o=arguments.length>3&&void 0!==arguments[3]?arguments[3]:1,u=arguments.length>4&&void 0!==arguments[4]?arguments[4]:0,a=arguments.length>5&&void 0!==arguments[5]?arguments[5]:0;r(this,t),this.m=[n,e,i,o,u,a],this.i=null,this.w=null,this.s=null}return i(t,[{key:"determinant",get:function(){var t=this.m;return t[0]*t[3]-t[1]*t[2]}},{key:"isIdentity",get:function(){if(null===this.i){var t=this.m;this.i=1===t[0]&&0===t[1]&&0===t[2]&&1===t[3]&&0===t[4]&&0===t[5]}return this.i}},{key:"point",value:function(t,n){var r=this.m;return{x:r[0]*t+r[2]*n+r[4],y:r[1]*t+r[3]*n+r[5]}}},{key:"translateSelf",value:function(){var t=arguments.length>0&&void 0!==arguments[0]?arguments[0]:0,n=arguments.length>1&&void 0!==arguments[1]?arguments[1]:0;if(!t&&!n)return this;var r=this.m;return r[4]+=r[0]*t+r[2]*n,r[5]+=r[1]*t+r[3]*n,this.w=this.s=this.i=null,this}},{key:"rotateSelf",value:function(){var t=arguments.length>0&&void 0!==arguments[0]?arguments[0]:0;if(t%=360){var n=X(t*=ot),r=tt(t),e=this.m,i=e[0],o=e[1];e[0]=i*r+e[2]*n,e[1]=o*r+e[3]*n,e[2]=e[2]*r-i*n,e[3]=e[3]*r-o*n,this.w=this.s=this.i=null}return this}},{key:"scaleSelf",value:function(){var t=arguments.length>0&&void 0!==arguments[0]?arguments[0]:1,n=arguments.length>1&&void 0!==arguments[1]?arguments[1]:1;if(1!==t||1!==n){var r=this.m;r[0]*=t,r[1]*=t,r[2]*=n,r[3]*=n,this.w=this.s=this.i=null}return this}},{key:"skewSelf",value:function(t,n){if(n%=360,(t%=360)||n){var r=this.m,e=r[0],i=r[1],o=r[2],u=r[3];t&&(t=et(t*ot),r[2]+=e*t,r[3]+=i*t),n&&(n=et(n*ot),r[0]+=o*n,r[1]+=u*n),this.w=this.s=this.i=null}return this}},{key:"resetSelf",value:function(){var t=arguments.length>0&&void 0!==arguments[0]?arguments[0]:1,n=arguments.length>1&&void 0!==arguments[1]?arguments[1]:0,r=arguments.length>2&&void 0!==arguments[2]?arguments[2]:0,e=arguments.length>3&&void 0!==arguments[3]?arguments[3]:1,i=arguments.length>4&&void 0!==arguments[4]?arguments[4]:0,o=arguments.length>5&&void 0!==arguments[5]?arguments[5]:0,u=this.m;return u[0]=t,u[1]=n,u[2]=r,u[3]=e,u[4]=i,u[5]=o,this.w=this.s=this.i=null,this}},{key:"recomposeSelf",value:function(){var t=arguments.length>0&&void 0!==arguments[0]?arguments[0]:null,n=arguments.length>1&&void 0!==arguments[1]?arguments[1]:null,r=arguments.length>2&&void 0!==arguments[2]?arguments[2]:null,e=arguments.length>3&&void 0!==arguments[3]?arguments[3]:null,i=arguments.length>4&&void 0!==arguments[4]?arguments[4]:null;return this.isIdentity||this.resetSelf(),t&&(t.x||t.y)&&this.translateSelf(t.x,t.y),n&&this.rotateSelf(n),r&&(r.x&&this.skewSelf(r.x,0),r.y&&this.skewSelf(0,r.y)),!e||1===e.x&&1===e.y||this.scaleSelf(e.x,e.y),i&&(i.x||i.y)&&this.translateSelf(i.x,i.y),this}},{key:"decompose",value:function(){var t=arguments.length>0&&void 0!==arguments[0]?arguments[0]:0,n=arguments.length>1&&void 0!==arguments[1]?arguments[1]:0,r=this.m,e=r[0]*r[0]+r[1]*r[1],i=[[r[0],r[1]],[r[2],r[3]]],o=at(e);if(0===o)return{origin:{x:h(r[4]),y:h(r[5])},translate:{x:h(t),y:h(n)},scale:{x:0,y:0},skew:{x:0,y:0},rotate:0};i[0][0]/=o,i[0][1]/=o;var u=r[0]*r[3]-r[1]*r[2]<0;u&&(o=-o);var a=i[0][0]*i[1][0]+i[0][1]*i[1][1];i[1][0]-=i[0][0]*a,i[1][1]-=i[0][1]*a;var l=at(i[1][0]*i[1][0]+i[1][1]*i[1][1]);if(0===l)return{origin:{x:h(r[4]),y:h(r[5])},translate:{x:h(t),y:h(n)},scale:{x:h(o),y:0},skew:{x:0,y:0},rotate:0};i[1][0]/=l,i[1][1]/=l,a/=l;var f=0;return i[1][1]<0?(f=nt(i[1][1])*ut,i[0][1]<0&&(f=360-f)):f=rt(i[0][1])*ut,u&&(f=-f),a=it(a,at(i[0][0]*i[0][0]+i[0][1]*i[0][1]))*ut,u&&(a=-a),{origin:{x:h(r[4]),y:h(r[5])},translate:{x:h(t),y:h(n)},scale:{x:h(o),y:h(l)},skew:{x:h(a),y:0},rotate:h(f)}}},{key:"toString",value:function(){return null===this.s&&(this.s="matrix("+this.m.map((function(t){return h(t)})).join(" ")+")"),this.s}}]),t}();Object.freeze({M:2,L:2,Z:0,H:1,V:1,C:6,Q:4,T:2,S:4,A:7});var ft={},st=null;function ct(t){var r=function(){if(st)return st;if("object"!==("undefined"==typeof document?"undefined":n(document))||!document.createElementNS)return{};var t=document.createElementNS("http://www.w3.org/2000/svg","svg");return t&&t.style?(t.style.position="absolute",t.style.opacity="0.01",t.style.zIndex="-9999",t.style.left="-9999px",t.style.width="1px",t.style.height="1px",st={svg:t}):{}}().svg;if(!r)return function(t){return null};var e=document.createElementNS(r.namespaceURI,"path");e.setAttributeNS(null,"d",t),e.setAttributeNS(null,"fill","none"),e.setAttributeNS(null,"stroke","none"),r.appendChild(e);var i=e.getTotalLength();return function(t){var n=e.getPointAtLength(i*t);return{x:n.x,y:n.y}}}function ht(t){return ft[t]?ft[t]:ft[t]=ct(t)}function vt(t,n,r,e){if(!t||!e)return!1;var i=["M",t.x,t.y];if(n&&r&&(i.push("C"),i.push(n.x),i.push(n.y),i.push(r.x),i.push(r.y)),n?!r:r){var o=n||r;i.push("Q"),i.push(o.x),i.push(o.y)}return n||r||i.push("L"),i.push(e.x),i.push(e.y),i.join(" ")}function yt(t,n,r,e){var i=arguments.length>4&&void 0!==arguments[4]?arguments[4]:1,o=vt(t,n,r,e),u=ht(o);try{return u(i)}catch(t){return null}}function gt(t,n,r,e){var i=1-e;return i*i*t+2*i*e*n+e*e*r}function dt(t,n,r,e){return 2*(1-e)*(n-t)+2*e*(r-n)}function pt(t,n,r,e){var i=arguments.length>4&&void 0!==arguments[4]&&arguments[4],o=yt(t,n,null,r,e);return o||(o={x:gt(t.x,n.x,r.x,e),y:gt(t.y,n.y,r.y,e)}),i&&(o.a=mt(t,n,r,e)),o}function mt(t,n,r,e){return Math.atan2(dt(t.y,n.y,r.y,e),dt(t.x,n.x,r.x,e))}function bt(t,n,r,e,i){var o=i*i;return i*o*(e-t+3*(n-r))+3*o*(t+r-2*n)+3*i*(n-t)+t}function wt(t,n,r,e,i){var o=1-i;return 3*(o*o*(n-t)+2*o*i*(r-n)+i*i*(e-r))}function xt(t,n,r,e,i){var o=arguments.length>5&&void 0!==arguments[5]&&arguments[5],u=yt(t,n,r,e,i);return u||(u={x:bt(t.x,n.x,r.x,e.x,i),y:bt(t.y,n.y,r.y,e.y,i)}),o&&(u.a=kt(t,n,r,e,i)),u}function kt(t,n,r,e,i){return Math.atan2(wt(t.y,n.y,r.y,e.y,i),wt(t.x,n.x,r.x,e.x,i))}function _t(t,n,r){return t+(n-t)*r}function At(t,n,r){var e=arguments.length>3&&void 0!==arguments[3]&&arguments[3],i={x:_t(t.x,n.x,r),y:_t(t.y,n.y,r)};return e&&(i.a=St(t,n)),i}function St(t,n){return Math.atan2(n.y-t.y,n.x-t.x)}function Ot(t,n,r){var e=arguments.length>3&&void 0!==arguments[3]&&arguments[3];if(jt(n)){if(Mt(r))return pt(n,r.start,r,t,e)}else if(jt(r)){if(n.end)return pt(n,n.end,r,t,e)}else{if(n.end)return r.start?xt(n,n.end,r.start,r,t,e):pt(n,n.end,r,t,e);if(r.start)return pt(n,r.start,r,t,e)}return At(n,r,t,e)}function Pt(t,n,r){var e=Ot(t,n,r,!0);return e.a=function(t){return arguments.length>1&&void 0!==arguments[1]&&arguments[1]?t+Math.PI:t}(e.a)/y,e}function jt(t){return!t.type||"corner"===t.type}function Mt(t){return null!=t.start&&!jt(t)}var Et=new lt;var Rt={f:H,i:k},It={f:H,i:function(t,n,r){var e=k(t,n,r);return e<=0?0:e>=1?1:e}};function Ft(t,n,r,e,i,o,u,a){return n=function(t,n,r){for(var e,i,o,u=t.length-1,a={},l=0;l<=u;l++)(e=t[l]).e&&(e.e=n(e.e)),e.v&&"g"===(i=e.v).t&&i.r&&(o=r.getElementById(i.r))&&(a[i.r]=o.querySelectorAll("stop"));return a}(t,e,a),function(e){var i,o=r(e,t,Nt);return o?"c"===o.t?Z(o.v):"g"===o.t?(n[o.r]&&function(t,n){for(var r=0,e=t.length;r<e;r++)t[r].setAttribute("stop-color",Z(n[r]))}(n[o.r],o.v),(i=o.r)?"url(#"+i+")":"none"):"none":"none"}}function Nt(t,n,r){if(0===t)return n;if(1===t)return r;if(n&&r){var e=n.t;if(e===r.t)switch(n.t){case"c":return{t:e,v:O(t,n.v,r.v)};case"g":if(n.r===r.r)return{t:e,v:P(t,n.v,r.v),r:n.r}}}return x(t,n,r)}var Tt={fill:Ft,"fill-opacity":It,stroke:Ft,"stroke-opacity":It,"stroke-width":Rt,"stroke-dashoffset":{f:H,i:k},"stroke-dasharray":{f:function(t){var n=arguments.length>1&&void 0!==arguments[1]?arguments[1]:" ";return t&&t.length>0&&(t=t.map((function(t){return h(t,4)}))),J(t,n)},i:function(t,n,r){var e,i,o,u=n.length,a=r.length;if(u!==a)if(0===u)n=j(u=a,0);else if(0===a)a=u,r=j(u,0);else{var l=(o=(e=u)*(i=a)/function(t,n){for(var r;n;)r=n,n=t%n,t=r;return t||1}(e,i))<0?-o:o;n=M(n,Math.floor(l/u)),r=M(r,Math.floor(l/a)),u=a=l}for(var f=[],s=0;s<u;s++)f.push(h(_(t,n[s],r[s])));return f}},opacity:It,transform:function(t,r,e,i){if(!(t=function(t,r){if(!t||"object"!==n(t))return null;var e=!1;for(var i in t)t.hasOwnProperty(i)&&(t[i]&&t[i].length?(t[i].forEach((function(t){t.e&&(t.e=r(t.e))})),e=!0):delete t[i]);return e?t:null}(t,i)))return null;var o=function(n,i,o){var u=arguments.length>3&&void 0!==arguments[3]?arguments[3]:null;return t[n]?e(i,t[n],o):r&&r[n]?r[n]:u};return r&&r.a&&t.o?function(n){var r=e(n,t.o,Pt);return Et.recomposeSelf(r,o("r",n,k,0)+r.a,o("k",n,A),o("s",n,A),o("t",n,A)).toString()}:function(t){return Et.recomposeSelf(o("o",t,Ot,null),o("r",t,k,0),o("k",t,A),o("s",t,A),o("t",t,A)).toString()}},r:Rt,"#size":W,"#radius":K,_:function(t,n){if(Array.isArray(t))for(var r=0;r<t.length;r++)this[t[r]]=n;else this[t]=n}},Bt=function(t){!function(t,n){if("function"!=typeof n&&null!==n)throw new TypeError("Super expression must either be null or a function");t.prototype=Object.create(n&&n.prototype,{constructor:{value:t,writable:!0,configurable:!0}}),n&&a(t,n)}(e,t);var n=f(e);function e(){return r(this,e),n.apply(this,arguments)}return i(e,null,[{key:"build",value:function(t){var n=s(u(e),"build",this).call(this,t,Tt);if(!n)return null;n.el,n.options,function(t,n,r){t.play()}(n.player)}}]),e}($);return Bt.init(),Bt}));
(function(s,i,o,w){w[o]=w[o]||{};w[o][s]=w[o][s]||[];w[o][s].push(i);})('5c7f360c',{"root":"ed2WbTEkln11","animations":[{"elements":{"ed2WbTEkln19":{"transform":{"data":{"o":{"x":114.484272,"y":64.386925,"type":"corner"},"t":{"x":-114.484272,"y":-64.386925}},"keys":{"r":[{"t":0,"v":0,"e":[0.42,0,0.58,1]},{"t":200,"v":-16.03153,"e":[0.42,0,0.58,1]},{"t":400,"v":0,"e":[0.42,0,0.58,1]},{"t":600,"v":-15.974781,"e":[0.42,0,0.58,1]},{"t":800,"v":0,"e":[0.42,0,0.58,1]},{"t":1000,"v":-15.974781,"e":[0.42,0,0.58,1]},{"t":1200,"v":0,"e":[0.42,0,0.58,1]},{"t":1400,"v":-15.974781,"e":[0.42,0,0.58,1]},{"t":1600,"v":0,"e":[0.42,0,0.58,1]},{"t":1800,"v":-15.974781,"e":[0.42,0,0.58,1]},{"t":2000,"v":0,"e":[0.42,0,0.58,1]},{"t":2200,"v":-15.974781,"e":[0.42,0,0.58,1]},{"t":2400,"v":0,"e":[0.42,0,0.58,1]},{"t":2600,"v":-15.974781,"e":[0.42,0,0.58,1]},{"t":2800,"v":0,"e":[0.42,0,0.58,1]},{"t":3000,"v":-15.974781,"e":[0.42,0,0.58,1]},{"t":3200,"v":0,"e":[0.42,0,0.58,1]},{"t":3400,"v":-15.974781,"e":[0.42,0,0.58,1]},{"t":3600,"v":0,"e":[0.42,0,0.58,1]},{"t":3800,"v":-15.974781,"e":[0.42,0,0.58,1]},{"t":4000,"v":0,"e":[0.42,0,0.58,1]},{"t":4200,"v":-15.974781,"e":[0.42,0,0.58,1]},{"t":4400,"v":0,"e":[0.42,0,0.58,1]},{"t":4600,"v":-15.974781,"e":[0.42,0,0.58,1]},{"t":4800,"v":0,"e":[0.42,0,0.58,1]},{"t":5000,"v":-15.974781,"e":[0.42,0,0.58,1]},{"t":5200,"v":0,"e":[0.42,0,0.58,1]},{"t":5400,"v":-15.974781,"e":[0.42,0,0.58,1]},{"t":5600,"v":0,"e":[0.42,0,0.58,1]},{"t":5800,"v":-15.974781,"e":[0.42,0,0.58,1]}]}}},"ed2WbTEkln113":{"transform":{"data":{"o":{"x":88.556675,"y":64.414234,"type":"corner"},"t":{"x":-88.542271,"y":-64.414234}},"keys":{"r":[{"t":0,"v":0,"e":[0.42,0,0.58,1]},{"t":200,"v":-15.974781,"e":[0.42,0,0.58,1]},{"t":400,"v":0,"e":[0.42,0,0.58,1]},{"t":600,"v":-15.974781,"e":[0.42,0,0.58,1]},{"t":800,"v":0,"e":[0.42,0,0.58,1]},{"t":1000,"v":-15.974781,"e":[0.42,0,0.58,1]},{"t":1200,"v":0,"e":[0.42,0,0.58,1]},{"t":1400,"v":-15.974781,"e":[0.42,0,0.58,1]},{"t":1600,"v":0,"e":[0.42,0,0.58,1]},{"t":1800,"v":-15.974781,"e":[0.42,0,0.58,1]},{"t":2000,"v":0,"e":[0.42,0,0.58,1]},{"t":2200,"v":-15.974781,"e":[0.42,0,0.58,1]},{"t":2400,"v":0,"e":[0.42,0,0.58,1]},{"t":2600,"v":-15.974781,"e":[0.42,0,0.58,1]},{"t":2800,"v":0,"e":[0.42,0,0.58,1]},{"t":3000,"v":-15.974781,"e":[0.42,0,0.58,1]},{"t":3200,"v":0,"e":[0.42,0,0.58,1]},{"t":3400,"v":-15.974781,"e":[0.42,0,0.58,1]},{"t":3600,"v":0,"e":[0.42,0,0.58,1]},{"t":3800,"v":-15.974781,"e":[0.42,0,0.58,1]},{"t":4000,"v":0,"e":[0.42,0,0.58,1]},{"t":4200,"v":-15.974781,"e":[0.42,0,0.58,1]},{"t":4400,"v":0,"e":[0.42,0,0.58,1]},{"t":4600,"v":-15.974781,"e":[0.42,0,0.58,1]},{"t":4800,"v":0,"e":[0.42,0,0.58,1]},{"t":5000,"v":-15.974781,"e":[0.42,0,0.58,1]},{"t":5200,"v":0,"e":[0.42,0,0.58,1]},{"t":5400,"v":-15.974781,"e":[0.42,0,0.58,1]},{"t":5600,"v":0,"e":[0.42,0,0.58,1]},{"t":5800,"v":-15.974781,"e":[0.42,0,0.58,1]}]}}},"ed2WbTEkln116":{"transform":{"data":{"t":{"x":-95.947292,"y":-99.046259}},"keys":{"o":[{"t":0,"v":{"x":98.606173,"y":93.481986,"type":"corner"},"e":[0.365,0.915,0.485,0.965]},{"t":2500,"v":{"x":95.947296,"y":99.046259,"type":"corner"},"e":[0.25,1,0.25,1]},{"t":3000,"v":{"x":98.606173,"y":93.481986,"type":"corner"}}]}}},"ed2WbTEkln117":{"transform":{"data":{"o":{"x":103.889122,"y":93.491696,"type":"corner"},"t":{"x":-103.889122,"y":-93.491696}},"keys":{"r":[{"t":0,"v":0},{"t":2400,"v":0,"e":[0.42,0,1,1]},{"t":2600,"v":10.211161,"e":[0,0,0.58,1]},{"t":3000,"v":0}]}}}},"s":"MMDA1MzhjMzM3NTg2ODEM3Mjg1UzdhODA3ZjMGzRDRiNDY0OTQxNDFHYM2RLMzM3NTdhRTgzNEzY3NDg1N2E4MDdmMzEM0YjQyM2QzMzdhODUS3NjgzNzI4NTdhODA3MZkM4NDMzNGJMNDEzZFDMzNzc3YTdkN2QzMzFRiNDIzZDMzNzI3ZDgU1NzY4MzdmNzI4NTc2QMzM0Yjc3NzI3ZEM4NTDc2M2QzMzg0ODE3NjWc2Vjc1MzM0YkU0MjhGl"}],"options":"MCDAxMDg4MmY4MDgxUDYZlN2Y4MTJmNDcyZjcJ5N2M2ZTcxMmY4YQ|"},'__SVGATOR_PLAYER__',window)]]></script></svg>