<svg width="156" height="258" viewBox="0 0 156 258" fill="none" xmlns="http://www.w3.org/2000/svg">
<path fill-rule="evenodd" clip-rule="evenodd" d="M147.663 219.696C146.894 214.852 146.189 209.994 145.549 205.126C145.245 202.815 144.948 200.501 144.682 198.184C144.495 196.561 144.211 194.704 145.2 193.502C146.593 191.81 147.858 190.361 148.029 187.937C148.189 185.656 147.498 183.17 147.066 180.956C146.16 176.313 145.031 171.727 143.785 167.185C142.518 162.57 141.13 157.999 139.721 153.437C138.404 149.171 137.138 144.866 135.422 140.774C132.167 133.007 126.659 127.255 119.852 123.414C118.159 122.459 114.706 119.049 112.938 118.286C111.312 117.584 111.318 119.633 109.717 118.861C108.438 118.244 107.247 117.421 106.531 116.043C105.753 114.546 103.803 112.453 103.506 110.71C102.876 107.018 103.558 103.874 101.196 101.095C99.0996 98.627 96.2815 96.9362 93.3655 96.0285C86.9508 94.0319 78.396 95.4278 74.5258 102.08C72.6772 105.256 72.0313 109.096 69.537 111.688C67.3589 113.952 67.8463 115.5 65.0254 116.666C64.8656 116.733 60.535 115.696 60.3752 115.762C57.2892 115.025 54.3396 117.088 51.5083 118.286C47.2874 120.07 43.2687 122.393 39.4933 125.153C31.8804 130.72 25.36 137.948 19.9845 146.127C14.5645 154.374 10.3592 163.618 7.36489 173.278C6.63772 175.625 5.98454 178 5.40841 180.399C5.08592 181.741 4.74131 183.133 5.13398 184.507C5.45513 185.631 6.16953 186.468 7.00845 187.143C8.14565 188.057 10.4267 188.652 10.3823 190.491C10.3483 191.889 9.92325 193.361 9.71576 194.743C9.46879 196.388 9.26588 198.044 9.06296 199.697C8.13993 207.22 7.42153 214.786 7.10381 222.373C6.79105 229.843 6.53149 237.466 6.99587 244.935C7.02657 245.427 7.15816 245.879 7.37042 246.261C7.17227 246.346 7.15702 246.758 7.4036 246.817C7.57639 246.857 7.74879 246.898 7.92157 246.939C8.28048 247.242 8.72808 247.428 9.24318 247.446C9.59237 247.458 9.94137 247.476 10.2902 247.496C13.9711 248.355 17.6514 249.166 21.3803 249.78C25.9131 250.526 30.4592 251.135 35.0194 251.63C44.3899 252.646 53.6866 252.309 63.0695 251.761C72.4379 251.214 81.8007 251.086 91.1789 251.358C100.565 251.631 109.948 252.087 119.336 252.273C129.825 252.481 140.298 252.161 150.757 251.231C152.19 251.104 153.078 249.83 152.795 248.241C151.1 238.719 149.18 229.26 147.663 219.696Z" fill="#F0A672"/>
<path fill-rule="evenodd" clip-rule="evenodd" d="M51.5078 118.285L51.7127 118.197C54.4813 116.99 57.363 115.043 60.3747 115.762C60.4813 115.718 62.4409 116.164 63.7832 116.446L62.5092 117.93L60.2607 118.413C68.0175 132.7 77.1915 139.843 87.7828 139.843C98.3741 139.843 106.411 132.7 111.893 118.413L112.641 118.182C112.734 118.206 112.832 118.24 112.937 118.285C114.706 119.049 118.159 122.459 119.852 123.414C126.658 127.254 132.166 133.006 135.422 140.773C137.08 144.73 138.318 148.884 139.589 153.01L139.72 153.436C141.129 157.999 142.518 162.57 143.784 167.185C144.977 171.529 146.061 175.914 146.946 180.35L147.065 180.955C147.498 183.169 148.189 185.656 148.028 187.937C147.968 188.8 147.768 189.54 147.473 190.211L132.131 196.372L139.44 252.003C132.745 252.323 126.044 252.406 119.336 252.273C109.948 252.086 100.565 251.631 91.1784 251.358C82.0844 251.094 73.0048 251.207 63.9206 251.713L61.6137 251.844C52.7242 252.34 43.9047 252.594 35.0189 251.63L34.4134 251.563V251.563L34.4133 243.426L37.5347 198.113L21.7164 194.79L6.18851 186.374C5.71934 185.851 5.34285 185.24 5.13349 184.507C4.7698 183.234 5.03857 181.946 5.33645 180.696L5.40792 180.398C5.98405 178 6.63723 175.625 7.3644 173.278C10.3587 163.617 14.5641 154.374 19.984 146.127C25.3595 137.948 31.8799 130.719 39.4928 125.153C43.2682 122.392 47.2869 120.07 51.5078 118.285Z" fill="#EF4444"/>
<path fill-rule="evenodd" clip-rule="evenodd" d="M57.4482 115.528C58.4182 115.481 59.4072 115.656 60.3749 115.762C60.4591 115.771 60.4912 115.916 60.3962 115.939C58.6644 116.342 56.9516 116.895 55.2508 117.456L54.5226 117.696C52.6046 118.329 50.7429 118.982 48.8862 119.827C45.1856 121.51 41.6711 123.782 38.4364 126.391C25.9809 136.441 16.966 151.657 11.2772 167.41C9.73226 171.688 8.42323 176.073 7.36289 180.531C7.10505 181.616 6.86247 182.705 6.63247 183.798C6.56496 184.118 6.2707 184.938 6.43204 185.266C6.57469 185.556 7.12927 185.735 7.38692 185.885L8.25676 186.389C9.95348 187.365 12.7798 188.969 13.0632 189.125L13.5052 189.368C20.7351 193.323 28.4602 196.677 36.5961 196.909L36.6598 196.134V196.134C37.0225 191.848 37.4985 187.538 38.5375 183.384C38.5934 183.16 38.848 183.236 38.8713 183.434C39.4501 188.353 39.2651 193.309 39.0631 198.251C38.7055 207.003 38.2307 215.749 37.8086 224.498C37.5973 228.874 37.3242 233.247 37.0776 237.621C36.8307 242.004 36.7508 246.492 36.1868 250.839C36.0612 251.807 35.0443 252.334 34.2742 252.232C33.4221 252.119 32.7667 251.281 32.7627 250.321C32.7524 247.789 33.0375 245.227 33.196 242.701C33.3464 240.302 33.508 237.903 33.6735 235.505C34.2784 226.751 34.9743 218.007 35.618 209.258C35.846 206.154 36.0924 203.054 36.3461 199.953C27.7274 199.643 19.6754 196.081 11.9941 191.918C11.8829 194.735 11.6144 197.547 11.3544 200.353C10.6288 208.182 9.98895 216.008 9.51008 223.861C9.26826 227.827 9.09224 231.799 8.93891 235.77C8.86358 237.722 8.80217 239.675 8.75506 241.628C8.7393 242.279 8.72506 242.93 8.71246 243.581L8.68626 245.073C8.66482 246.018 8.57873 246.893 7.86617 247.581C7.14243 248.28 6.16485 248.317 5.44855 247.581C4.48967 246.596 4.65921 245.253 4.68762 243.93C4.71127 242.814 4.73969 241.698 4.77268 240.582C4.83885 238.35 4.92334 236.119 5.02613 233.888C5.38583 226.091 6.10453 218.326 7.04377 210.591L7.41042 207.605C8.09511 202.055 8.84682 196.378 10.3774 191.031C9.78146 190.7 9.18721 190.367 8.59525 190.033C7.54521 189.439 6.4595 188.883 5.43882 188.228C4.62907 187.708 3.9307 186.996 3.70528 185.944C3.45388 184.773 3.83831 183.491 4.0937 182.348L4.11588 182.248C4.36628 181.097 4.63594 179.951 4.92048 178.81C6.07427 174.184 7.50096 169.647 9.17062 165.222C12.5137 156.361 16.8289 147.944 22.0999 140.333C26.8446 133.482 32.4495 127.27 39.0187 122.61C42.2302 120.332 45.6527 118.461 49.2722 117.139C50.9639 116.521 52.8047 115.983 54.576 115.762C55.5314 115.643 56.4882 115.574 57.4482 115.528ZM74.6335 101.488C75.7862 100.107 78.0762 101.536 77.5228 103.365C76.221 107.668 74.148 111.593 70.9128 114.421C67.8718 117.079 64.2454 118.805 60.3401 118.437C60.31 118.434 60.2838 118.425 60.2607 118.413L60.5973 118.923C63.2395 122.911 66.027 126.845 69.3866 130.105C76.2317 136.747 85.5516 140.33 94.5512 137.781C101.632 135.776 107.87 129.528 109.705 121.565C109.442 121.696 109.129 121.741 108.786 121.658C107.318 121.302 105.865 119.58 104.918 118.344C103.894 117.008 103.094 115.565 102.508 113.934C101.435 110.949 101.091 107.106 102.556 104.214C102.737 103.857 103.154 104.057 103.189 104.405L103.245 104.948C103.527 107.658 103.879 110.28 105.024 112.75C105.584 113.959 106.256 115.139 107.074 116.151C107.511 116.693 107.985 117.211 108.498 117.665C108.997 118.107 109.6 118.427 110.048 118.935L110.13 119.032L110.132 119.015C110.245 117.942 110.919 117.469 111.579 117.499C112.217 117.528 112.967 117.841 113.257 117.991L113.285 118.006C117.738 120.392 121.84 123.501 125.7 126.951C133.682 134.086 139.663 143.413 142.561 154.396C143.983 159.787 144.799 165.341 145.661 170.87L146.191 174.257C146.995 179.361 147.893 184.566 149.709 189.313C150.178 190.542 149.816 191.693 148.665 192.176C147.227 192.779 145.784 193.363 144.339 193.94C145.049 197.337 145.482 200.852 146.013 204.267C147.143 211.524 148.528 218.734 149.715 225.982C150.323 229.688 150.87 233.406 151.477 237.112C151.769 238.896 152.073 240.679 152.37 242.463C152.529 243.424 152.674 244.389 152.827 245.353L152.853 245.513C152.94 246.021 153.05 246.546 152.925 247.055C152.782 247.635 152.376 248.044 152.014 248.46C151.716 248.803 151.285 248.805 150.92 248.618L150.8 248.556C150.148 248.216 149.637 247.876 149.405 247.055C149.259 246.535 149.206 245.949 149.11 245.414C148.927 244.387 148.752 243.359 148.588 242.327C148.259 240.264 147.938 238.2 147.625 236.134L147.332 234.199C146.327 227.532 145.372 220.824 144.89 214.086C144.676 211.096 144.449 208.11 144.22 205.123L144.048 202.882C143.83 200.046 143.565 197.138 143.527 194.264L142.663 194.607V194.607L138.446 196.27V196.27C137.401 196.682 136.07 197.527 134.945 197.374C134.394 197.298 133.974 197.105 133.65 196.753C134.038 202.868 134.563 208.973 135.264 215.046C135.901 220.572 136.608 226.091 137.442 231.585C137.856 234.305 138.28 237.023 138.742 239.733C138.972 241.089 139.21 242.442 139.456 243.795C139.578 244.469 139.723 245.145 139.819 245.825C139.928 246.604 139.736 247.083 139.346 247.724C139.025 248.25 138.385 248.52 137.865 248.157C137.178 247.675 136.819 247.258 136.617 246.381C136.433 245.585 136.321 244.753 136.179 243.946C135.916 242.457 135.662 240.966 135.417 239.473C134.905 236.35 134.432 233.22 134.011 230.08C132.524 219.02 131.581 207.867 131.104 196.696C130.869 191.185 130.797 185.668 130.838 180.151C130.86 177.323 130.942 174.487 131.122 171.666C131.303 168.811 131.681 166.012 132.018 163.184C132.03 163.084 132.156 163.079 132.161 163.184C132.321 166.355 132.571 169.522 132.694 172.701C132.811 175.734 132.862 178.772 132.955 181.807C133.077 185.795 133.247 189.786 133.471 193.775C133.878 193.279 134.49 192.993 135.103 193.104C135.991 192.896 136.947 192.377 137.794 192.061L140.985 190.871V190.871C142.662 190.246 144.34 189.625 146.024 189.023C144.519 183.371 143.487 177.636 142.607 171.817L142.214 169.2C141.437 164.049 140.599 158.895 139.191 153.907C137.711 148.662 135.496 143.787 132.558 139.371C129.661 135.02 126.138 131.188 122.51 127.604C119.404 124.536 116.081 121.766 112.913 118.782C112.946 118.98 112.953 119.197 112.924 119.437C112.25 124.938 109.679 130.061 106.095 133.872C98.8944 141.528 88.2362 143.116 79.0208 139.526C70.1065 136.054 62.2251 127.83 59.4405 117.653C59.3928 117.479 59.6018 117.41 59.6858 117.538C59.8402 117.774 59.9955 118.01 60.1509 118.246C60.1404 118.152 60.1841 118.05 60.2878 118.006C63.5367 116.606 66.7271 114.62 69.1625 111.812C70.3494 110.442 71.3854 108.891 72.2031 107.219C72.5949 106.417 72.9467 105.588 73.2274 104.73L73.2988 104.508C73.639 103.434 73.9233 102.339 74.6335 101.488Z" fill="black"/>
<path fill-rule="evenodd" clip-rule="evenodd" d="M127.399 69.1646C126.909 64.8612 127.544 55.8662 127.586 55.3197C127.855 51.865 126.234 38.2226 123.169 39.4796C118.029 35.416 111.182 34.5186 104.779 34.09C91.4802 33.1995 77.3325 35.2437 67.0634 44.1805C61.9849 48.8215 57.0407 55.5716 57.4382 62.5999C52.824 69.262 46.3192 78.4005 52.0682 86.189C54.0224 88.6773 57.1282 89.6039 59.5831 91.4884C64.521 95.4653 67.6189 101.173 72.6036 105.126C85.8098 116.976 108.234 119.451 121.209 105.973C131.242 96.2118 129.62 81.6087 127.855 69.1646C126.669 60.7984 128.356 77.5601 127.399 69.1646Z" fill="#F0A672"/>
<path fill-rule="evenodd" clip-rule="evenodd" d="M87.0132 15.8407C90.5699 15.1241 94.2221 14.6781 97.8542 14.8124L98.1343 14.8232C100.867 14.9323 104.328 15.1735 106.712 16.7603C106.849 16.6229 107.07 16.5524 107.27 16.6477C110.103 17.998 113.219 18.9743 116.202 19.9444C119.171 20.9097 122.252 21.547 125.364 21.8039C126.535 21.9005 127.537 23.163 126.795 24.2953C126.619 24.5652 126.447 24.8377 126.276 25.111C126.562 25.0812 126.849 25.0505 127.135 25.0216C128.076 24.9269 129.017 25.9305 128.961 26.846C128.927 27.4218 128.864 27.9908 128.772 28.553C129.131 28.5455 129.488 28.5992 129.832 28.7446C131.576 29.4801 131.455 31.5548 131.324 33.1333C131.144 35.3238 130.323 37.644 128.8 39.2835C129.937 40.4631 130.742 41.8719 131.223 43.545C131.571 44.7668 131.765 46.0681 131.669 47.3399L131.639 47.7207C131.52 49.1009 131.285 50.6289 130.291 51.6217C129.78 52.1336 129.151 52.3202 128.552 52.261C128.914 55.4417 129.147 58.6405 129.366 61.828L129.468 63.3514C129.956 70.7183 130.323 78.1331 130.227 85.5121C130.138 92.408 128.773 99.1015 124.538 104.701C120.68 109.799 115.141 113.558 108.875 114.986C105.499 115.758 102.051 115.812 98.6335 115.321C96.9768 115.082 95.3092 114.716 93.7368 114.138C91.9963 113.496 90.7454 112.552 89.5742 111.137C89.0203 110.466 89.2869 109.037 90.3899 109.171C92.0581 109.373 93.5809 109.617 95.1802 110.109L95.4092 110.181C97.0021 110.691 98.6517 111.071 100.317 111.232C103.728 111.562 107.191 111.23 110.459 110.197C115.779 108.514 120.361 104.762 123.298 100.048C126.784 94.4602 127.178 88.1171 127.128 81.6922C127.074 74.6419 126.844 67.5875 126.469 60.5446L126.406 59.3708C126.207 55.7465 126.016 52.12 125.848 48.4934C125.795 47.3559 125.715 46.2092 125.572 45.0739C124.257 44.3049 123.079 43.2447 122.311 41.9365C120.769 42.5735 119.147 43.0331 117.654 43.3994C114.197 44.2485 110.607 44.4546 107.088 43.9229C106.139 44.3145 105.171 44.6587 104.188 44.9549C103.922 45.0725 103.656 45.1881 103.391 45.3014C101.021 46.3139 98.6173 47.1716 96.1157 47.7995L95.5012 47.9525C94.1847 48.2766 92.7548 48.5957 91.3537 48.6959C91.1236 48.7846 90.8752 48.8597 90.6039 48.9257C89.3282 49.2351 88.0041 49.333 86.6965 49.2237C85.4226 49.1168 84.5021 47.8314 85.2039 46.6278C85.7165 45.7496 86.234 44.8737 86.7557 44C84.9398 44.7554 83.0646 45.3833 81.1735 45.9157C79.2641 46.4526 77.3274 46.9054 75.3882 47.3217C74.3515 47.5424 73.3104 47.7381 72.276 47.9588C71.5355 48.1158 70.3985 48.1977 69.7945 48.6845C69.1271 49.2192 68.938 50.466 68.6849 51.235C68.3522 52.2337 68.0401 53.2371 67.7553 54.2518C67.1881 56.2767 66.7233 58.3311 66.3633 60.406C66.0033 62.4832 65.7616 64.5809 65.6272 66.6854C65.493 68.7876 65.552 70.9035 65.3357 72.9966C65.2193 74.1069 64.0256 74.6779 63.1438 73.9021C63.0404 73.8111 62.9361 73.7191 62.8329 73.6261L62.679 73.4858C61.9246 72.8032 61.1932 72.0797 60.5897 71.2652C60.4803 71.1151 60.3755 70.9581 60.2775 70.7988C60.2616 70.7988 60.2479 70.7943 60.2319 70.7829L60.0646 70.6571C58.2218 69.2876 55.1432 67.502 53.3464 69.7773C52.7738 70.5021 52.4807 71.4251 52.2373 72.3155L51.8104 73.9091C51.5343 74.9494 51.2744 75.9955 51.1224 77.06C50.7783 79.4443 50.9515 82.1927 52.5945 84.1038C53.2507 84.8682 54.1552 85.4143 55.1644 85.5576C55.7274 85.635 56.2833 85.5394 56.8416 85.4689C57.4089 85.3983 57.9555 85.5121 58.5231 85.4575C59.4254 85.3688 59.8195 86.4472 59.4823 87.1252C59.3 87.4892 59.0856 87.8032 58.8421 88.0694C59.0378 88.2377 59.2249 88.4197 59.4049 88.6108C59.938 88.7815 60.4163 89.1478 60.7742 89.6324C61.0636 90.0237 61.2137 90.4491 61.239 90.8973C61.2707 91.0088 61.298 91.1226 61.3233 91.2386L61.8122 92.0308C61.9197 92.2045 62.0268 92.3762 62.1343 92.5445C63.3783 94.5012 64.7593 96.1574 66.475 97.7182C68.1269 99.2198 69.9198 100.564 71.4717 102.175L71.6545 102.366C73.1013 103.889 74.6263 105.731 74.06 107.945C73.9142 108.514 73.1188 108.923 72.5995 108.539C70.9294 107.301 70.0884 105.34 68.6714 103.838C67.213 102.291 65.5975 100.901 64.135 99.3586C62.7517 97.9025 61.6603 96.253 60.838 94.4374C60.5097 94.7992 60.0314 95.0563 59.3684 95.1564C58.2292 95.327 57.1672 94.6604 56.6707 93.6753C56.3515 93.8163 56.0259 93.9437 55.6975 94.0438C53.9705 94.5717 52.8838 92.6537 53.5355 91.2363C53.8839 90.4764 54.3191 89.8167 54.8593 89.2615C53.1707 89.0295 51.4527 88.1581 50.3431 87.0706C47.559 84.3381 47.1763 80.2315 47.8028 76.5799C48.1355 74.6438 48.7094 72.6849 49.4547 70.8671C49.5844 70.5508 49.7236 70.2323 49.876 69.9183C49.7917 69.9161 49.7051 69.8797 49.6505 69.8091C49.1469 69.1221 48.5342 68.5601 48.1603 67.7911C47.8163 67.0858 47.4337 66.3714 47.1624 65.6366C46.6044 64.1327 46.3309 62.4354 46.1487 60.8451C45.7727 57.5894 45.9183 54.3542 46.4175 51.1189C47.2672 45.6086 49.3196 40.3353 52.3434 35.7081C52.1788 35.6217 52.021 35.5174 51.8739 35.3941L51.8013 35.3309L51.6833 35.2244C50.8205 34.4447 50.895 32.9834 51.6833 32.1937L51.9323 31.9445C52.2476 31.6317 52.5195 31.3839 53.0288 31.0434C53.1039 30.9931 53.1807 30.9458 53.2584 30.9017C52.9918 30.4098 52.8993 29.8346 53.085 29.2001C53.7321 26.9896 56.9174 27.0678 58.9364 28.0318C61.17 26.0413 63.6467 24.3133 66.3312 22.9141C72.7249 19.5833 79.9543 17.2604 87.0132 15.8407ZM53.9641 74.0613C55.1581 73.6722 56.7439 74.489 57.817 74.9804C59.1773 75.6038 60.3348 76.5252 61.4558 77.499C62.014 77.9859 62.114 78.7822 61.9753 79.4624C61.9614 79.5307 61.9479 79.6012 61.9318 79.6717C61.7836 80.3975 60.9725 80.9686 60.2548 80.9481C58.7533 80.9071 58.0381 79.6126 57.188 78.516C57.0879 78.6934 56.9626 78.8572 56.8074 78.9801L56.7027 79.062C56.3499 79.3302 55.9611 79.5445 55.495 79.5239C55.1647 79.5079 54.8482 79.4238 54.5563 79.2713C53.8272 78.8868 53.5062 77.9449 53.7042 77.1782C53.8272 76.6959 54.1097 76.3182 54.4788 76.0566L54.3412 75.9626C54.0469 75.758 53.7783 75.5423 53.5691 75.2241L53.5219 75.1488H53.5401C53.3123 74.7575 53.4606 74.2251 53.9641 74.0613Z" fill="black"/>
<path fill-rule="evenodd" clip-rule="evenodd" d="M88.3529 75.3858C94.5905 75.3858 99.647 70.9576 99.647 65.495C99.647 60.0325 94.5905 55.6042 88.3529 55.6042C82.1154 55.6042 75.3649 59.8529 75.3649 65.3154C75.3649 67.6332 77.1893 71.6835 78.714 73.3696C80.7827 75.6572 84.762 75.3858 88.3529 75.3858Z" fill="white"/>
<path fill-rule="evenodd" clip-rule="evenodd" d="M115.237 73.4928C120.012 73.4928 123.882 69.4883 123.882 64.5485C123.882 59.6087 120.012 55.6042 115.237 55.6042C110.462 55.6042 105.294 59.4463 105.294 64.3861C105.294 66.4821 106.691 70.1448 107.858 71.6695C109.442 73.7383 112.488 73.4928 115.237 73.4928Z" fill="white"/>
<path fill-rule="evenodd" clip-rule="evenodd" d="M89.6907 45.5552L89.8434 45.5315C90.9983 45.3644 91.7836 45.5567 92.5344 46.5446C92.8923 47.0153 92.782 47.7263 92.5344 48.2074C91.9408 49.3616 90.5753 49.4816 89.3051 49.5932C88.8645 49.632 88.4354 49.6697 88.054 49.7492C86.6076 50.0504 85.1648 50.4604 83.8114 51.0571C82.4304 51.6661 81.1342 52.3865 79.8702 53.2091C79.4838 53.4606 79.1096 53.7549 78.7331 54.0511L78.7331 54.0511C77.9953 54.6313 77.2486 55.2186 76.3838 55.5054C76.325 55.5249 76.2542 55.4722 76.2579 55.4098C76.3507 53.9256 77.5874 52.563 78.5477 51.505L78.5525 51.4996C79.6641 50.2753 81.0158 49.1882 82.4236 48.324C83.8763 47.4324 85.4467 46.6983 87.0725 46.1864C87.9288 45.9167 88.8048 45.7024 89.6907 45.5552ZM96.8151 56.6064C94.2205 54.7156 90.9673 53.7708 87.7699 53.7981C87.1012 53.804 86.4511 53.8523 85.8179 53.9411C81.616 53.5005 77.4021 57.1714 75.7372 60.9355C73.5809 65.811 73.7612 73.4382 79.5833 75.5517C80.8064 75.9955 82.1103 76.1927 83.4007 76.3593L84.3378 76.4775C86.0844 76.6917 87.8565 76.8476 89.6158 76.8319C93.0002 76.802 95.692 75.5037 97.7518 72.811C99.5868 70.4125 101.241 67.3666 101.244 64.2687C101.246 61.0869 99.2974 58.4157 96.8151 56.6064ZM124.391 69.1022C123.559 71.6205 121.743 73.5597 119.213 74.4124C116.706 75.2576 113.918 74.9495 111.356 74.4925C110.795 74.3926 110.227 74.2822 109.66 74.1535C109.605 74.0231 108.838 73.6984 108.066 73.3718C107.282 73.0398 106.493 72.7059 106.443 72.5723L106.401 72.4576C106.37 72.4322 106.34 72.4064 106.31 72.3805C105.635 71.7956 105.068 71.0749 104.668 70.1824C103.583 67.7649 103.76 64.764 104.418 62.2538C104.945 60.2416 106.109 58.3805 107.648 57.1162C107.916 56.6739 108.093 56.4057 108.311 56.1797C109.195 55.2592 110.428 54.6384 111.632 54.2608C114.321 53.417 117.249 54.0224 119.528 55.629C121.632 57.1124 123.279 59.3371 124.17 61.8114C125.013 64.1547 125.177 66.7249 124.391 69.1022ZM93.1701 57.385C89.1661 55.5862 84.3012 56.1248 80.4172 58.0443C78.8786 59.7244 77.7541 61.8417 77.2991 63.7855C76.8132 65.8604 76.8842 68.0955 77.6148 70.1066C78.5068 72.5617 80.7033 73.1697 83.0727 73.547L83.9926 73.6915L84.3786 73.7501C86.7067 74.0976 89.252 74.368 91.4894 73.9329C93.9829 73.4476 95.5665 71.4315 96.8129 69.3645L96.8711 69.2675C98.1654 67.1017 99.249 64.4677 98.1633 61.986C97.2402 59.8767 95.224 58.3076 93.1701 57.385ZM112.378 57.6212C113.862 57.1112 115.429 57.2496 116.803 58.0117C119.787 59.666 121.481 63.3139 121.135 66.6647C120.989 68.0831 120.424 69.5196 119.227 70.366C117.852 71.3377 116.055 71.3767 114.415 71.2625L114.096 71.2384L112.897 71.1383C111.341 71.0017 109.598 70.7662 108.447 69.785C107.185 68.7091 106.905 66.7453 106.875 65.14L106.873 64.9565L106.873 64.7765C106.876 63.4184 107.067 62.0389 107.53 60.7632C107.926 60.8127 108.362 60.6638 108.611 60.2917L108.674 60.2003C109.018 59.7245 109.421 59.4561 109.856 59.1659C110.045 59.0398 110.241 58.9096 110.44 58.7566L110.653 58.595C111.188 58.1963 111.74 57.8407 112.378 57.6212ZM86.893 58.3213C89.0979 57.1947 91.7466 57.477 93.6144 58.889C93.4485 58.9215 93.2852 58.963 93.1224 59.0447C92.6986 59.2574 92.4356 59.6831 92.3353 60.1362C92.2224 60.6484 92.4876 61.1333 92.9927 61.2949C93.4323 61.4352 93.9534 61.4995 94.3617 61.2322C94.5756 61.0923 94.725 60.9079 94.8231 60.6757L94.837 60.6416L94.8542 60.6165L94.8608 60.6048C94.8623 60.6003 94.8545 60.6088 94.8424 60.6279C94.8549 60.599 94.8664 60.57 94.8779 60.5406C94.8951 60.5055 94.9116 60.4702 94.925 60.4337C94.9475 60.4142 94.9682 60.3927 94.9889 60.371L94.9923 60.3675C95.3316 60.89 95.5979 61.4802 95.7671 62.1368C96.8527 66.3509 92.401 70.7243 88.4238 71.1619C86.9207 71.3272 85.5502 70.969 84.4127 70.263C84.4166 70.2577 84.4207 70.2527 84.4248 70.2477L84.4248 70.2477C84.4315 70.2394 84.4382 70.2311 84.444 70.222C84.901 70.3042 85.4464 70.0995 85.6123 69.5895C86.0356 68.2883 85.6014 66.7663 84.185 66.3413C83.2734 66.0676 82.3407 66.37 81.6892 66.9936C81.1965 65.7867 81.0203 64.4279 81.2534 63.067C81.5824 61.147 82.7396 59.4168 84.5405 58.618C85.4174 58.2287 86.1732 58.147 86.893 58.3213ZM110.181 60.8154L110.113 60.9212C109.215 62.3723 108.993 64.1068 109.453 65.633C109.455 65.6612 109.458 65.6893 109.461 65.7173L109.482 65.8855C110.075 65.7333 110.708 65.8527 111.133 66.3734C111.303 66.3739 111.472 66.4113 111.608 66.4907L111.654 66.5192C112.07 66.794 112.141 67.2948 111.965 67.7329L111.947 67.7763L111.95 67.7701C111.964 67.7437 111.912 67.8943 111.906 67.9107L111.872 68C111.849 68.0592 111.824 68.1179 111.798 68.1761C111.697 68.4076 111.559 68.5946 111.392 68.7842C111.328 68.8562 111.255 68.9106 111.176 68.9525C112.156 69.7278 113.433 70.106 114.711 69.9753C116.091 69.8342 117.24 69.1372 117.985 68.1102L118.024 68.0762L118.024 68.076L118.024 68.076C118.089 68.0193 118.154 67.9626 118.216 67.901C120.052 66.0651 120.268 62.7555 118.703 60.6959C118.608 60.5708 118.508 60.4606 118.405 60.3617C118.361 60.5209 118.282 60.6756 118.168 60.7811C117.959 60.9756 117.705 61.103 117.416 61.1082C117.218 61.1122 117.017 61.0597 116.846 60.9598C116.597 60.8141 116.412 60.5732 116.283 60.3191C116.164 60.0845 116.13 59.8485 116.188 59.5933C116.19 59.5855 116.193 59.578 116.196 59.5706L116.213 59.5266C115.575 59.1341 114.799 58.9654 114.057 59.0662C113.89 58.9624 113.704 58.8823 113.514 58.8326C112.164 58.4787 110.862 59.766 110.181 60.8154ZM114.487 46.4225C112.354 45.8538 108.739 45.4457 107.285 47.5738C107.234 47.6485 107.285 47.7653 107.371 47.7846C107.467 47.8062 107.563 47.8278 107.658 47.8493C109.745 48.3187 111.751 48.77 113.732 49.6556C115.499 50.446 116.935 51.5188 118.385 52.7042L118.708 52.9694L119.212 53.3877C121.101 54.9606 123.614 52.5322 121.935 50.6631C120.059 48.5766 117.161 47.1351 114.487 46.4225Z" fill="black"/>
<path fill-rule="evenodd" clip-rule="evenodd" d="M108.095 73.3448C109.95 74.4727 112.777 77.1028 110.781 79.8991C108.432 82.3647 105.049 79.5377 103.383 78.2592C101.837 77.2684 100.101 79.8168 101.535 80.9738C113.579 89.8927 118.466 73.6397 109.033 72.0186C107.994 71.84 107.609 72.9959 108.095 73.3448Z" fill="black"/>
<path d="M95.9417 99.2093C95.9818 99.0769 95.7985 99.003 95.7093 99.1006C95.3989 99.4397 94.9566 99.66 94.6261 99.9858C94.3032 100.304 94.0318 100.667 93.7901 101.045C93.2428 101.904 92.8614 102.837 92.6089 103.804C92.3204 104.91 92.1893 106.231 92.8503 107.185C93.8262 107.503 93.8262 107.503 94.6328 106.974C95.27 106.239 94.886 105.015 94.8704 103.232C94.8403 102.702 94.8928 102.217 95.1237 101.273C95.3325 100.418 95.7775 99.7516 95.9417 99.2093Z" fill="#9AC8FF"/>
<path fill-rule="evenodd" clip-rule="evenodd" d="M105.544 90.8179C105.747 90.7787 105.901 91.0617 105.725 91.1966C105.005 91.7492 104.49 92.8422 103.94 93.5719C103.416 94.2661 102.909 94.9541 102.439 95.6868C101.912 96.508 101.402 97.3271 100.973 98.2059L100.888 98.3832C100.976 98.65 101.04 98.9115 101.089 99.0835L101.104 99.1324C101.596 100.762 100.174 102.421 98.6876 102.752C96.1458 103.318 94.1726 101.095 94.301 98.64C94.402 96.7089 95.8271 95.0904 97.2391 93.9169C98.4742 92.8905 99.8343 92.0403 101.328 91.4556C101.987 91.1979 102.666 90.9922 103.367 90.8964C104.085 90.7986 104.838 90.9535 105.544 90.8179Z" fill="black"/>
</svg>
