<svg width="226" height="258" viewBox="0 0 226 258" fill="none" xmlns="http://www.w3.org/2000/svg">
<path fill-rule="evenodd" clip-rule="evenodd" d="M147.663 219.696C146.894 214.852 146.189 209.994 145.549 205.126C145.245 202.815 144.948 200.501 144.682 198.184C144.495 196.561 144.211 194.704 145.2 193.502C146.593 191.81 147.858 190.361 148.029 187.937C148.189 185.656 147.498 183.17 147.066 180.955C146.16 176.313 145.031 171.727 143.785 167.185C142.518 162.57 141.13 157.999 139.721 153.436C138.404 149.171 137.138 144.866 135.422 140.774C132.167 133.006 126.659 127.255 119.852 123.414C118.159 122.459 114.706 119.049 112.938 118.285C111.312 117.583 111.318 119.633 109.717 118.861C108.438 118.244 107.247 117.421 106.531 116.042C105.753 114.546 103.803 112.452 103.506 110.71C102.876 107.017 103.558 103.874 101.196 101.095C99.0996 98.6269 96.2815 96.936 93.3655 96.0284C86.9508 94.0317 78.396 95.4276 74.5257 102.08C72.6772 105.256 72.0313 109.096 69.537 111.688C67.3589 113.952 67.8463 115.5 65.0254 116.666C64.8656 116.732 60.535 115.696 60.3752 115.762C57.2892 115.025 54.3396 117.088 51.5083 118.285C47.2874 120.07 43.2687 122.393 39.4933 125.153C31.8803 130.72 25.36 137.948 19.9845 146.127C14.5645 154.374 10.3592 163.617 7.36489 173.278C6.63772 175.625 5.98454 178 5.40841 180.398C5.08592 181.741 4.74131 183.133 5.13398 184.507C5.45513 185.631 6.16953 186.468 7.00846 187.143C8.14565 188.057 10.4267 188.652 10.3823 190.491C10.3483 191.889 9.92325 193.361 9.71576 194.743C9.46879 196.388 9.26588 198.043 9.06296 199.696C8.13993 207.22 7.42153 214.785 7.10381 222.373C6.79105 229.843 6.53149 237.466 6.99587 244.935C7.02657 245.427 7.15816 245.879 7.37042 246.261C7.17227 246.346 7.15702 246.758 7.4036 246.816C7.57639 246.857 7.74879 246.898 7.92157 246.939C8.28048 247.242 8.72808 247.428 9.24318 247.446C9.59237 247.458 9.94137 247.476 10.2902 247.496C13.9711 248.354 17.6514 249.166 21.3803 249.78C25.9131 250.526 30.4592 251.135 35.0194 251.63C44.3899 252.646 53.6866 252.309 63.0695 251.761C72.4379 251.214 81.8007 251.086 91.1789 251.358C100.565 251.631 109.948 252.087 119.336 252.273C129.825 252.481 122.042 229.43 132.5 228.5C133.934 228.373 140 232 144.5 232C154.273 232 149.18 229.26 147.663 219.696Z" fill="#F0A672"/>
<path fill-rule="evenodd" clip-rule="evenodd" d="M51.5078 118.285L51.7127 118.197C54.4813 116.99 57.363 115.043 60.3747 115.762C60.4813 115.718 62.4409 116.164 63.7832 116.446L62.5092 117.93L60.2607 118.413C68.0175 132.7 77.1915 139.843 87.7828 139.843C98.3741 139.843 106.411 132.7 111.893 118.413L112.641 118.182C112.734 118.206 112.832 118.24 112.937 118.285C114.706 119.049 118.159 122.459 119.852 123.414C126.658 127.254 132.166 133.006 135.422 140.773C137.08 144.73 138.318 148.884 139.589 153.01L139.72 153.436C141.129 157.999 142.518 162.57 143.784 167.185C144.977 171.529 146.061 175.914 146.946 180.35L147.065 180.955C147.498 183.169 148.189 185.656 148.028 187.937C147.968 188.8 147.768 189.54 147.473 190.211L132.131 196.372L139.44 252.003C132.745 252.323 126.044 252.406 119.336 252.273C109.948 252.086 100.565 251.631 91.1784 251.358C82.0844 251.094 73.0048 251.207 63.9206 251.713L61.6137 251.844C52.7242 252.34 43.9047 252.594 35.0189 251.63L34.4134 251.563V251.563L34.4133 243.426L37.5347 198.113L21.7164 194.79L6.18851 186.374C5.71934 185.851 5.34285 185.24 5.13349 184.507C4.7698 183.234 5.03857 181.946 5.33645 180.696L5.40792 180.398C5.98405 178 6.63723 175.625 7.3644 173.278C10.3587 163.617 14.5641 154.374 19.984 146.127C25.3595 137.948 31.8799 130.719 39.4928 125.153C43.2682 122.392 47.2869 120.07 51.5078 118.285Z" fill="#E83333"/>
<path fill-rule="evenodd" clip-rule="evenodd" d="M57.4482 115.528C58.4182 115.481 59.4072 115.656 60.3749 115.762C60.4591 115.771 60.4912 115.916 60.3962 115.939C58.6644 116.342 56.9516 116.895 55.2508 117.456L54.5226 117.696C52.6046 118.329 50.7429 118.982 48.8862 119.827C45.1856 121.51 41.6711 123.782 38.4364 126.391C25.9809 136.441 16.966 151.657 11.2772 167.41C9.73226 171.688 8.42323 176.073 7.36289 180.531C7.10505 181.616 6.86247 182.705 6.63247 183.798C6.56496 184.118 6.2707 184.938 6.43204 185.266C6.57469 185.556 7.12927 185.735 7.38692 185.885L8.25676 186.389C9.95348 187.365 12.7798 188.969 13.0632 189.125L13.5052 189.368C20.7351 193.323 28.4602 196.677 36.5961 196.909L36.6598 196.134V196.134C37.0225 191.848 37.4985 187.538 38.5375 183.384C38.5934 183.16 38.848 183.236 38.8713 183.434C39.4501 188.353 39.2651 193.309 39.0631 198.251C38.7055 207.003 38.2307 215.749 37.8086 224.498C37.5973 228.874 37.3242 233.247 37.0776 237.621C36.8307 242.004 36.7508 246.492 36.1868 250.839C36.0612 251.807 35.0443 252.334 34.2742 252.232C33.4221 252.119 32.7667 251.281 32.7627 250.321C32.7524 247.789 33.0375 245.227 33.196 242.701C33.3464 240.302 33.508 237.903 33.6735 235.505C34.2784 226.751 34.9743 218.007 35.618 209.258C35.846 206.154 36.0924 203.054 36.3461 199.953C27.7274 199.643 19.6754 196.081 11.9941 191.918C11.8829 194.735 11.6144 197.547 11.3544 200.353C10.6288 208.182 9.98895 216.008 9.51008 223.861C9.26826 227.827 9.09224 231.799 8.93891 235.77C8.86358 237.722 8.80217 239.675 8.75506 241.628C8.7393 242.279 8.72506 242.93 8.71246 243.581L8.68626 245.073C8.66482 246.018 8.57873 246.893 7.86617 247.581C7.14243 248.28 6.16485 248.317 5.44855 247.581C4.48967 246.596 4.65921 245.253 4.68762 243.93C4.71127 242.814 4.73969 241.698 4.77268 240.582C4.83885 238.35 4.92334 236.119 5.02613 233.888C5.38583 226.091 6.10453 218.326 7.04377 210.591L7.41042 207.605C8.09511 202.055 8.84682 196.378 10.3774 191.031C9.78146 190.7 9.18721 190.367 8.59525 190.033C7.54521 189.439 6.4595 188.883 5.43882 188.228C4.62907 187.708 3.9307 186.996 3.70528 185.944C3.45388 184.773 3.83831 183.491 4.0937 182.348L4.11588 182.248C4.36628 181.097 4.63594 179.951 4.92048 178.81C6.07427 174.184 7.50096 169.647 9.17062 165.222C12.5137 156.361 16.8289 147.944 22.0999 140.333C26.8446 133.482 32.4495 127.27 39.0187 122.61C42.2302 120.332 45.6527 118.461 49.2722 117.139C50.9639 116.521 52.8047 115.983 54.576 115.762C55.5314 115.643 56.4882 115.574 57.4482 115.528ZM74.6335 101.488C75.7862 100.107 78.0762 101.536 77.5228 103.365C76.221 107.668 74.148 111.593 70.9128 114.421C67.8718 117.079 64.2454 118.805 60.3401 118.437C60.31 118.434 60.2838 118.425 60.2607 118.413L60.5973 118.923C63.2395 122.911 66.027 126.845 69.3866 130.105C76.2317 136.747 85.5516 140.33 94.5512 137.781C101.632 135.776 107.87 129.528 109.705 121.565C109.442 121.696 109.129 121.741 108.786 121.658C107.318 121.302 105.865 119.58 104.918 118.344C103.894 117.008 103.094 115.565 102.508 113.934C101.435 110.949 101.091 107.106 102.556 104.214C102.737 103.857 103.154 104.057 103.189 104.405L103.245 104.948C103.527 107.658 103.879 110.28 105.024 112.75C105.584 113.959 106.256 115.139 107.074 116.151C107.511 116.693 107.985 117.211 108.498 117.665C108.997 118.107 109.6 118.427 110.048 118.935L110.13 119.032L110.132 119.015C110.245 117.942 110.919 117.47 111.579 117.499C112.217 117.528 112.967 117.841 113.257 117.991L113.285 118.006C117.738 120.392 121.84 123.501 125.7 126.951C133.682 134.086 139.663 143.413 142.561 154.396C143.983 159.787 144.799 165.341 145.661 170.87L146.191 174.257C146.995 179.361 147.893 184.566 149.709 189.313C150.178 190.542 149.816 191.693 148.665 192.176C147.227 192.779 145.784 193.363 144.339 193.94C145.049 197.337 145.482 200.852 146.013 204.267C147.143 211.524 148.528 218.734 149.715 225.982C150.323 229.688 153.785 228.658 151.5 231.5C150 233 147.784 233.704 146 234C145.038 234.16 141.5 233.5 141.5 233.5C141.5 233.5 137.5 232.5 137.5 232C137.5 232 137.259 230.364 137.442 230.08L138.5 230.5C141 232 142.807 231.915 143.5 232C144.193 232.085 144.5 232 145.5 232L148.5 231C147.495 224.332 145.372 220.824 144.89 214.086C144.676 211.096 144.449 208.11 144.22 205.123L144.048 202.882C143.83 200.046 143.565 197.138 143.527 194.264L142.663 194.607L138.446 196.27C137.401 196.682 136.07 197.527 134.945 197.374C134.394 197.298 133.974 197.105 133.65 196.753C134.038 202.868 134.563 208.973 135.264 215.046C135.901 220.572 136.608 226.091 137.442 231.585C137.856 234.305 138.28 237.023 138.742 239.733C138.972 241.089 139.21 242.442 139.456 243.795C139.578 244.469 139.723 245.145 139.819 245.825C139.928 246.604 139.736 247.083 139.346 247.724C139.025 248.25 138.385 248.52 137.865 248.157C137.178 247.675 136.819 247.258 136.617 246.381C136.433 245.585 136.321 244.753 136.179 243.946C135.916 242.457 135.662 240.966 135.417 239.473C134.905 236.35 134.432 233.22 134.011 230.08C132.524 219.02 131.581 207.867 131.104 196.696C130.869 191.185 130.797 185.668 130.838 180.151C130.86 177.323 130.942 174.487 131.122 171.666C131.303 168.811 131.681 166.012 132.018 163.184C132.03 163.084 132.156 163.079 132.161 163.184C132.321 166.355 132.571 169.522 132.694 172.701C132.811 175.734 132.862 178.772 132.955 181.807C133.077 185.795 133.247 189.786 133.471 193.775C133.878 193.279 134.49 192.993 135.103 193.104C135.991 192.896 136.947 192.377 137.794 192.061L140.985 190.871C142.663 190.246 144.34 189.625 146.024 189.023C144.519 183.371 143.487 177.636 142.607 171.817L142.214 169.2C141.437 164.049 140.599 158.895 139.191 153.907C137.711 148.662 135.496 143.787 132.558 139.371C129.661 135.02 126.138 131.188 122.51 127.604C119.404 124.536 116.081 121.766 112.913 118.782C112.946 118.98 112.953 119.197 112.924 119.437C112.25 124.938 109.679 130.061 106.095 133.872C98.8944 141.528 88.2362 143.116 79.0208 139.526C70.1065 136.054 62.2251 127.83 59.4405 117.653C59.3928 117.479 59.6018 117.41 59.6858 117.538C59.8402 117.774 59.9955 118.01 60.1509 118.246C60.1404 118.152 60.1841 118.05 60.2878 118.006C63.5367 116.606 66.7271 114.62 69.1625 111.812C70.3494 110.442 71.3854 108.891 72.2031 107.219C72.5949 106.417 72.9467 105.588 73.2274 104.73L73.2988 104.508C73.639 103.434 73.9233 102.339 74.6335 101.488Z" fill="black"/>
<path fill-rule="evenodd" clip-rule="evenodd" d="M127.399 69.1647C126.909 64.8613 127.544 55.8663 127.586 55.3199C127.855 51.8651 126.234 38.2227 123.169 39.4797C118.029 35.4161 111.182 34.5188 104.779 34.0901C91.4802 33.1997 77.3326 35.2439 67.0634 44.1806C61.9849 48.8216 57.0408 55.5717 57.4382 62.6C52.8241 69.2621 46.3192 78.4006 52.0682 86.1891C54.0224 88.6774 57.1283 89.604 59.5832 91.4885C64.521 95.4655 67.619 101.173 72.6037 105.126C85.8098 116.976 108.234 119.451 121.209 105.973C131.242 96.2119 129.62 81.6088 127.855 69.1647C126.669 60.7985 128.356 77.5602 127.399 69.1647Z" fill="#F0A672"/>
<path fill-rule="evenodd" clip-rule="evenodd" d="M87.0132 15.8406C90.5699 15.1239 94.2221 14.678 97.8542 14.8122L98.1343 14.8231C100.867 14.9322 104.328 15.1734 106.712 16.7602C106.849 16.6228 107.07 16.5523 107.27 16.6476C110.103 17.9979 113.219 18.9741 116.202 19.9443C119.171 20.9096 122.252 21.5469 125.364 21.8037C126.535 21.9004 127.537 23.1629 126.795 24.2952C126.619 24.5651 126.447 24.8376 126.276 25.1109C126.562 25.0811 126.849 25.0503 127.135 25.0214C128.076 24.9268 129.017 25.9304 128.961 26.8459C128.927 27.4217 128.864 27.9907 128.772 28.5529C129.131 28.5454 129.488 28.5991 129.832 28.7445C131.576 29.48 131.455 31.5547 131.324 33.1332C131.144 35.3237 130.323 37.6439 128.8 39.2833C129.937 40.463 130.742 41.8718 131.223 43.5449C131.571 44.7666 131.765 46.068 131.669 47.3398L131.639 47.7206C131.52 49.1007 131.285 50.6287 130.291 51.6216C129.78 52.1335 129.151 52.3201 128.552 52.2609C128.914 55.4416 129.147 58.6404 129.366 61.8279L129.468 63.3513C129.956 70.7182 130.323 78.133 130.227 85.512C130.138 92.4079 128.773 99.1013 124.538 104.7C120.68 109.799 115.141 113.558 108.875 114.986C105.499 115.758 102.051 115.812 98.6335 115.321C96.9768 115.082 95.3092 114.716 93.7368 114.138C91.9963 113.496 90.7454 112.552 89.5742 111.137C89.0203 110.466 89.2869 109.037 90.3899 109.171C92.0581 109.373 93.5809 109.616 95.1802 110.109L95.4092 110.181C97.0021 110.691 98.6517 111.071 100.317 111.232C103.728 111.562 107.191 111.23 110.459 110.197C115.779 108.514 120.361 104.762 123.298 100.048C126.784 94.4601 127.178 88.117 127.128 81.692C127.074 74.6418 126.844 67.5874 126.469 60.5444L126.406 59.3707C126.207 55.7464 126.016 52.1199 125.848 48.4933C125.795 47.3557 125.715 46.2091 125.572 45.0738C124.257 44.3048 123.079 43.2446 122.311 41.9364C120.769 42.5734 119.147 43.033 117.654 43.3993C114.197 44.2484 110.607 44.4545 107.088 43.9228C106.139 44.3143 105.171 44.6586 104.188 44.9548C103.922 45.0724 103.656 45.188 103.391 45.3013C101.021 46.3137 98.6173 47.1715 96.1157 47.7994L95.5012 47.9524C94.1847 48.2765 92.7548 48.5956 91.3537 48.6958C91.1236 48.7845 90.8752 48.8596 90.6039 48.9256C89.3282 49.235 88.0041 49.3328 86.6965 49.2236C85.4226 49.1167 84.5021 47.8312 85.2039 46.6277C85.7165 45.7495 86.234 44.8736 86.7557 43.9999C84.9398 44.7553 83.0646 45.3832 81.1735 45.9156C79.2641 46.4525 77.3274 46.9053 75.3882 47.3216C74.3515 47.5423 73.3104 47.738 72.276 47.9586C71.5355 48.1156 70.3985 48.1975 69.7945 48.6844C69.1271 49.2191 68.938 50.4658 68.6849 51.2348C68.3522 52.2336 68.0401 53.237 67.7553 54.2517C67.1881 56.2765 66.7233 58.331 66.3633 60.4059C66.0033 62.4831 65.7616 64.5808 65.6272 66.6853C65.493 68.7875 65.552 70.9034 65.3357 72.9965C65.2193 74.1067 64.0256 74.6778 63.1438 73.902C63.0404 73.811 62.9361 73.719 62.8329 73.6259L62.679 73.4856C61.9246 72.8031 61.1932 72.0796 60.5897 71.2651C60.4803 71.1149 60.3755 70.958 60.2775 70.7987C60.2616 70.7987 60.2479 70.7942 60.2319 70.7828L60.0646 70.657C58.2218 69.2874 55.1432 67.5019 53.3464 69.7772C52.7738 70.502 52.4807 71.425 52.2373 72.3154L51.8104 73.909C51.5343 74.9493 51.2744 75.9954 51.1224 77.0599C50.7783 79.4442 50.9515 82.1926 52.5945 84.1037C53.2507 84.8681 54.1552 85.4142 55.1644 85.5575C55.7274 85.6348 56.2833 85.5393 56.8416 85.4688C57.4089 85.3982 57.9555 85.512 58.5231 85.4574C59.4254 85.3686 59.8195 86.4471 59.4823 87.125C59.3 87.4891 59.0856 87.803 58.8421 88.0692C59.0378 88.2376 59.2249 88.4196 59.4049 88.6107C59.938 88.7813 60.4163 89.1476 60.7742 89.6322C61.0636 90.0236 61.2137 90.449 61.239 90.8972C61.2707 91.0087 61.298 91.1225 61.3233 91.2385L61.8122 92.0307C61.9197 92.2044 62.0268 92.3761 62.1343 92.5444C63.3783 94.501 64.7593 96.1573 66.475 97.7181C68.1269 99.2197 69.9198 100.564 71.4717 102.175L71.6545 102.366C73.1013 103.889 74.6263 105.731 74.06 107.945C73.9142 108.514 73.1188 108.923 72.5995 108.539C70.9294 107.301 70.0884 105.34 68.6714 103.838C67.213 102.291 65.5975 100.901 64.135 99.3584C62.7517 97.9024 61.6603 96.2529 60.838 94.4373C60.5097 94.7991 60.0314 95.0562 59.3684 95.1563C58.2292 95.3269 57.1672 94.6603 56.6707 93.6752C56.3515 93.8162 56.0259 93.9436 55.6975 94.0437C53.9705 94.5716 52.8838 92.6536 53.5355 91.2362C53.8839 90.4763 54.3191 89.8165 54.8593 89.2614C53.1707 89.0293 51.4527 88.158 50.3431 87.0704C47.559 84.338 47.1763 80.2314 47.8028 76.5798C48.1355 74.6437 48.7094 72.6848 49.4547 70.867C49.5844 70.5507 49.7236 70.2322 49.876 69.9182C49.7917 69.916 49.7051 69.8795 49.6505 69.809C49.1469 69.1219 48.5342 68.56 48.1603 67.791C47.8163 67.0857 47.4337 66.3713 47.1624 65.6364C46.6044 64.1326 46.3309 62.4353 46.1487 60.845C45.7727 57.5893 45.9183 54.354 46.4175 51.1188C47.2672 45.6084 49.3196 40.3351 52.3434 35.708C52.1788 35.6216 52.021 35.5173 51.8739 35.394L51.8013 35.3308L51.6833 35.2243C50.8205 34.4446 50.895 32.9833 51.6833 32.1936L51.9323 31.9444C52.2476 31.6316 52.5195 31.3838 53.0288 31.0433C53.1039 30.993 53.1807 30.9457 53.2584 30.9015C52.9918 30.4096 52.8993 29.8345 53.085 29.2C53.7321 26.9894 56.9174 27.0677 58.9364 28.0317C61.17 26.0412 63.6467 24.3132 66.3312 22.914C72.7249 19.5832 79.9543 17.2603 87.0132 15.8406ZM53.9641 74.0611C55.1581 73.6721 56.7439 74.4889 57.817 74.9803C59.1773 75.6037 60.3348 76.5251 61.4558 77.4989C62.014 77.9857 62.114 78.782 61.9753 79.4623C61.9614 79.5306 61.9479 79.6011 61.9318 79.6716C61.7836 80.3974 60.9725 80.9684 60.2548 80.948C58.7533 80.907 58.0381 79.6125 57.188 78.5159C57.0879 78.6933 56.9626 78.8571 56.8074 78.98L56.7027 79.0619C56.3499 79.3301 55.9611 79.5444 55.495 79.5237C55.1647 79.5078 54.8482 79.4236 54.5563 79.2712C53.8272 78.8867 53.5062 77.9448 53.7042 77.1781C53.8272 76.6957 54.1097 76.3181 54.4788 76.0564L54.3412 75.9625C54.0469 75.7579 53.7783 75.5422 53.5691 75.224L53.5219 75.1487H53.5401C53.3123 74.7573 53.4606 74.225 53.9641 74.0611Z" fill="black"/>
<path fill-rule="evenodd" clip-rule="evenodd" d="M107.965 72.4759C109.82 73.6038 112.647 76.2339 110.651 79.0302C108.302 81.4958 104.92 78.6688 103.253 77.3903C101.707 76.3994 99.971 78.9479 101.405 80.1048C113.449 89.0238 118.336 72.7708 108.903 71.1497C107.865 70.9711 107.479 72.1269 107.965 72.4759ZM90.6108 67.5128C90.0145 67.1313 89.3131 67.0004 88.5358 67.3542C87.9283 67.6305 86.8628 68.5516 86.1214 69.7625C85.6141 70.591 85.2544 71.5628 85.3293 72.5751C85.3467 72.8102 85.2598 72.9835 85.1228 73.1117C85.0146 73.2129 84.8584 73.2873 84.6748 73.3106C84.519 73.3303 84.3445 73.3125 84.2027 73.2682C83.9329 73.184 83.7901 73.0089 83.7363 72.866C83.2172 71.4869 83.4408 69.948 84.0227 68.5596C84.8079 66.6858 86.2339 65.1163 87.1682 64.6103C88.767 63.744 90.6531 63.7042 92.2541 64.5866C93.617 65.3377 94.4692 66.5503 95.3167 67.7863C95.4969 68.0491 95.6757 68.3099 95.8605 68.5662C96.2309 69.0796 96.2678 69.5888 96.1244 70.0255C95.9655 70.5093 95.5603 70.9175 95.0536 71.1312C94.5853 71.3286 94.0418 71.3564 93.5609 71.1535C93.1546 70.9821 92.7818 70.648 92.5458 70.0811C92.1485 69.1263 91.4865 68.0729 90.6108 67.5128V67.5128ZM120.893 69.637C120.485 69.8498 120.166 69.914 119.713 69.7783C119.462 69.703 119.215 69.5588 119.021 69.3649C118.829 69.1727 118.69 68.9338 118.636 68.6687C118.504 68.0145 118.146 67.4021 117.636 67.0028C117.2 66.6616 116.65 66.4808 116.039 66.5828C115.381 66.6927 114.754 67.1152 114.321 67.6132C114.177 67.7799 114.064 67.9692 113.95 68.1571C113.737 68.5087 113.53 68.8355 113.237 69.0937C113.125 69.1919 112.958 69.26 112.795 69.26C112.729 69.26 112.662 69.2492 112.598 69.2293C111.943 68.5713 111.817 68.0722 111.838 67.5771C111.86 67.0579 112.065 66.5322 112.395 66.0417C113.171 64.8912 114.644 63.9479 115.638 63.7342C116.999 63.4416 118.351 63.7929 119.435 64.5533C120.55 65.3357 121.376 66.5505 121.634 67.9195C121.696 68.2492 121.669 68.6051 121.544 68.9137C121.421 69.2152 121.207 69.4735 120.893 69.637ZM93.6125 55.2464C92.7956 56.0424 91.8288 56.1657 90.8507 56.2754C90.3072 56.3369 89.8734 56.3865 89.4465 56.4828C88.273 56.7478 87.1132 57.1468 86.0549 57.7215C84.9487 58.3223 83.7433 59.0468 82.876 59.9749C82.6698 60.1958 82.4754 60.4276 82.2807 60.6598C82.1032 60.8716 81.9322 61.0755 81.752 61.2721C81.545 61.4979 81.3484 61.7346 81.153 61.9707C81.0321 62.1698 81.0082 62.2188 80.9838 62.2698C80.9472 62.3465 80.9046 62.4322 80.8559 62.5242C80.7893 62.6502 80.7112 62.7881 80.6294 62.9132C80.4934 63.1418 80.4204 63.2047 80.3573 63.2329C80.2527 63.2795 80.1534 63.3025 80.0571 63.29C79.9668 63.2784 79.8817 63.235 79.7977 63.164C79.3784 62.8096 79.2547 62.2279 79.2673 61.6105C79.2866 60.6736 79.6321 59.6363 79.9506 58.9986C80.6911 57.5169 81.7182 55.9765 82.9531 54.8707C84.3623 53.6084 85.904 52.6527 87.6749 51.9942C88.7753 51.5848 90.0495 51.2091 91.2484 51.2565C92.1113 51.2907 92.9352 51.5473 93.6155 52.1881C94.0333 52.5814 94.2338 53.1409 94.2338 53.7C94.2338 54.2702 94.0256 54.8438 93.6125 55.2464ZM122.555 62.5361C122.503 62.6212 122.431 62.6799 122.351 62.7151C122.267 62.7521 122.174 62.7627 122.084 62.7476C121.994 62.7325 121.909 62.692 121.842 62.63C121.777 62.5706 121.728 62.4918 121.706 62.3952C121.164 60.0127 120.111 58.2401 117.863 57.097C116.757 56.5347 115.486 56.1774 114.282 55.8925C113.933 55.8097 113.563 55.7561 113.191 55.7017C112.024 55.5314 110.85 55.3363 110.089 54.3932C109.631 53.8252 109.439 53.0987 109.547 52.4342C109.65 51.8087 110.015 51.235 110.68 50.8913C112.334 50.0359 114.389 50.8753 116.059 51.5903C116.183 51.6433 116.305 51.6954 116.424 51.7456C118.057 52.4353 119.547 53.3456 120.772 54.6474C121.743 55.6802 122.644 57.207 123.006 58.7776C123.308 60.0844 123.237 61.4183 122.555 62.5361Z" fill="black"/>
<path d="M218.877 144.493C216.795 145.771 214.68 147 212.513 148.13C214.826 147.908 217.138 147.695 219.442 147.459C221.179 147.281 221.471 150.05 219.847 150.45C210.272 152.844 200.678 155.173 191.121 157.635C188.56 158.339 186.001 159.21 183.884 160.866C176.823 166.759 171.431 182.315 168.211 191.098C163.527 202.241 157.834 224.062 148.5 231C145.387 233.235 140 224.5 140 224.5C135 213.5 133.981 195.712 142.981 196.712C146.294 190.287 166.955 158.192 171.083 152.354C171.937 151.104 171.586 149.688 171.812 148.276C172.144 146.197 172.986 144.125 174.707 142.598C177.728 139.674 182.729 139.913 185.724 137.19C186.041 136.54 186.365 135.893 186.706 135.254C188.091 132.65 192.001 134.495 191.325 137.204C190.408 139.886 188.68 141.978 187.99 144.747C189.751 144.397 191.485 144.083 193.3 144.219C198.26 144.162 203.358 143.838 207.98 141.879C210.162 140.971 212.087 139.576 213.989 138.197L214.116 138.105C216.32 136.679 218.81 139.955 216.872 141.691L216.906 141.725C216.404 142.343 215.843 142.91 215.238 143.431C216.007 143.026 216.772 142.613 217.541 142.205C219.045 141.407 220.343 143.616 218.877 144.493Z" fill="#F0A672"/>
<path d="M143.5 196.294L143 195.794C146.993 189.528 167.795 156.163 171.972 150.017C171.022 147.482 172.073 144.894 173.852 142.936C175.823 140.768 178.549 139.762 181.157 138.59L181.5 138.435C182.756 137.862 184.009 137.231 185.095 136.372C186.14 135.543 186.907 134.401 188.007 133.638C189.606 132.526 192.508 132.762 192.582 135.192C192.62 136.527 192.046 137.99 191.522 139.189C190.928 140.544 190.126 141.773 189.174 142.902C189.13 142.954 189.082 142.996 189.033 143.029L188.997 143.052C190.312 143.27 191.638 143.445 192.99 143.507C195.716 143.631 198.472 143.431 201.141 142.855C203.873 142.267 206.521 141.312 208.979 139.979C211.079 138.842 213.024 137.37 215.41 137.023C215.63 136.989 215.852 136.968 216.08 136.956C216.461 136.935 216.842 137.383 216.692 137.759C216.609 137.966 216.522 138.172 216.427 138.379C215.602 140.195 214.337 141.957 212.759 143.295L212.637 143.397C213.194 143.204 213.741 142.989 214.281 142.745C217.451 141.318 220.327 139.161 223.726 138.294C223.887 138.252 224.049 138.214 224.212 138.178C225.263 137.952 225.817 139.093 225.2 139.876C225.101 140.003 225.001 140.128 224.897 140.252C223.381 142.134 221.708 143.881 219.864 145.45C219.232 145.987 218.58 146.507 217.916 147.004C219.997 146.374 222.049 145.628 224.056 144.801C224.853 144.473 225.473 145.281 225.557 145.945C225.837 148.138 223.439 149.734 221.831 150.803L221.763 150.848C220.152 151.923 218.377 152.739 216.56 153.394C213.067 154.657 209.399 155.23 205.736 155.743L203.957 155.991C196.915 156.976 189.56 158.153 184.507 163.631C181.675 166.702 179.759 170.516 178.006 174.27C176.254 178.019 174.717 181.868 173.258 185.737C171.745 189.742 170.428 193.821 169.028 197.867C167.742 201.581 166.206 205.248 164.685 208.878L164.445 209.45C161.215 217.165 157.358 224.43 151.982 230.871C151.095 231.935 149.664 230.425 150.482 229.372C156.106 222.123 160.018 213.57 163.248 205.037C164.718 201.155 165.948 197.179 167.361 193.276L168.202 190.957C169.324 187.866 170.457 184.778 171.638 181.711C173.133 177.831 174.776 173.997 176.656 170.288L176.856 169.897C178.696 166.319 180.883 162.793 183.893 160.085C189.311 155.209 196.521 154.039 203.491 153.113L205.684 152.824C208.631 152.432 211.586 152 214.452 151.212C216.106 150.76 217.722 150.18 219.24 149.381C219.845 149.064 220.435 148.715 221.006 148.334C219.378 148.812 217.726 149.203 216.044 149.51C215.222 149.66 214.407 149.772 213.595 149.851C211.504 150.058 209.429 150.049 207.287 149.937C207.105 149.926 207.046 149.641 207.24 149.605C208.732 149.34 210.226 149.008 211.713 148.648L212.159 148.539C212.168 148.292 212.265 148.03 212.468 147.78C213.208 146.88 214.615 146.418 215.59 145.782C216.611 145.116 217.601 144.397 218.544 143.627C219.407 142.923 220.236 142.179 221.034 141.401C218.881 142.395 216.84 143.669 214.592 144.456C212.804 145.084 210.931 145.507 209.04 145.657L208.922 145.666L208.805 145.674C206.832 145.816 204.846 145.759 202.902 146.186C202.685 146.235 202.617 145.943 202.811 145.86C204.51 145.154 206.276 144.881 208.061 144.551C208.099 144.412 208.196 144.287 208.365 144.207L208.822 143.989C210.182 143.335 211.45 142.676 212.58 141.616C213.578 140.679 214.41 139.584 215.033 138.37C212.536 138.918 210.343 140.811 208.071 141.874C205.597 143.035 202.978 143.868 200.288 144.342L199.982 144.395C194.955 145.233 188.909 145.126 184.405 142.513C184.261 142.428 184.365 142.236 184.513 142.259C185.791 142.468 187.055 142.716 188.32 142.936C188.073 142.709 187.963 142.303 188.248 141.978C189.384 140.676 190.282 139.189 190.857 137.561L190.966 137.242C191.231 136.487 191.678 135.315 191.222 134.634C190.786 133.985 189.76 134.073 189.147 134.348C187.872 134.923 187.024 136.36 185.949 137.226C184.777 138.174 183.445 138.876 182.081 139.504L181.793 139.635C179.433 140.696 176.913 141.589 175.057 143.462C174.059 144.469 173.2 145.727 172.913 147.137C172.782 147.784 172.782 148.451 172.955 149.091C173.093 149.592 173.38 149.901 173.215 150.411C173 151.068 172.236 151.855 171.843 152.441C171.386 153.118 170.931 153.796 170.476 154.475C169.569 155.833 168.666 157.194 167.763 158.554C165.957 161.278 164.17 164.014 162.397 166.759C161.821 167.653 161.246 168.547 160.673 169.443L159.815 170.787L159.362 171.496L158.589 172.711C158.616 172.823 158.614 172.942 158.578 173.045C158.446 173.421 158.199 173.677 157.893 173.863L157.838 173.896C153.324 181.028 147.986 189.144 143.5 196.294Z" fill="black"/>
<path fill-rule="evenodd" clip-rule="evenodd" d="M89.5245 90.9784C91.4492 88.1511 105.175 91.3863 105.175 91.3863L105.053 101.18C105.053 101.18 98.0512 102.433 94.117 101.444C90.1828 100.454 87.5999 93.8057 89.5245 90.9784Z" fill="white"/>
<path fill-rule="evenodd" clip-rule="evenodd" d="M89.8234 96.1717C89.4814 95.0794 99.8024 93.6158 102.623 95.9452C105.444 98.2747 104.13 100.757 104.13 100.757C104.13 100.757 90.7834 101.966 89.8234 96.1717Z" fill="#FF8181"/>
<path fill-rule="evenodd" clip-rule="evenodd" d="M88.9036 89.0685C91.5875 86.6848 95.5218 87.0233 98.6692 88.1334C100.689 88.8459 102.615 89.839 104.69 90.3903C105.659 90.6478 106.65 90.8193 107.645 90.9346C108.623 91.0479 109.626 90.9829 110.593 91.1503C110.742 91.1759 110.772 91.3796 110.632 91.442C109.188 92.0812 107.357 92.102 105.76 92.05C105.75 92.1672 105.741 92.2818 105.744 92.3804C105.753 92.6433 105.758 92.904 105.754 93.1671C105.747 93.7605 105.749 94.3531 105.75 94.9465C105.753 96.1142 105.643 97.3037 105.768 98.4677L105.791 98.6615C105.824 98.9069 105.809 99.1224 105.762 99.3121L105.83 99.2917L106.046 99.221L106.187 99.1762C106.701 99.0171 107.185 98.9159 107.747 99.047C108.174 99.1466 108.498 99.491 108.439 99.9538C108.17 102.031 105.282 102.322 103.628 102.504L103.143 102.556C101.039 102.778 98.8999 102.934 96.7906 102.756C93.4055 102.47 89.7517 101.034 87.9191 98.0114C86.2091 95.1911 86.3444 91.3412 88.9036 89.0685ZM103 99.8451C103.068 96.6727 99.2494 95.9837 97.8775 97.8166C97.759 94.9883 90.1649 96.5352 90.6583 97.1607C92.5281 99.5316 95.7656 100.158 98.6222 100.151C100.077 100.147 101.55 100.02 103 99.8451ZM99.8395 91.0806L98.8925 90.8116L98.5191 90.7081C96.168 90.0652 93.4978 89.5372 91.3227 90.8067C90.5286 91.27 90.0258 91.9461 89.7691 92.7105C91.6689 92.6853 93.5667 92.7265 95.4653 92.8036L95.9831 92.8255C97.1705 92.8777 98.3581 92.9241 99.5459 92.965L100.39 92.9929L101.234 93.0185C101.532 93.0273 103.52 93.1922 103.882 93.31C103.967 92.9818 104.115 92.2671 104.243 91.9538C102.834 91.8126 101.451 91.5204 100.081 91.1473L99.8395 91.0806Z" fill="black"/>
</svg>
