<svg width="156" height="258" viewBox="0 0 156 258" fill="none" xmlns="http://www.w3.org/2000/svg">
<path fill-rule="evenodd" clip-rule="evenodd" d="M147.663 219.696C146.894 214.852 146.189 209.994 145.549 205.126C145.245 202.815 144.948 200.501 144.682 198.184C144.495 196.561 144.211 194.704 145.2 193.502C146.593 191.81 147.858 190.361 148.029 187.937C148.189 185.656 147.498 183.17 147.066 180.956C146.16 176.313 145.031 171.727 143.785 167.185C142.518 162.57 141.129 157.999 139.721 153.437C138.404 149.171 137.138 144.866 135.422 140.774C132.167 133.007 126.659 127.255 119.852 123.414C118.159 122.459 114.706 119.049 112.938 118.286C111.312 117.584 111.317 119.633 109.717 118.861C108.438 118.244 107.247 117.421 106.53 116.043C105.753 114.546 103.802 112.453 103.506 110.71C102.876 107.018 103.558 103.874 101.196 101.095C99.0995 98.627 96.2814 96.9362 93.3655 96.0285C86.9508 94.0319 78.3959 95.4278 74.5257 102.08C72.6771 105.256 72.0312 109.096 69.5369 111.688C67.3588 113.952 67.8463 115.5 65.0253 116.666C64.8655 116.733 60.535 115.696 60.3752 115.762C57.2891 115.025 54.3395 117.088 51.5083 118.286C47.2873 120.07 43.2687 122.393 39.4932 125.153C31.8803 130.72 25.3599 137.948 19.9844 146.127C14.5645 154.374 10.3592 163.618 7.36483 173.278C6.63766 175.625 5.98448 178 5.40835 180.399C5.08586 181.741 4.74124 183.133 5.13391 184.507C5.45507 185.631 6.16946 186.468 7.00839 187.143C8.14559 188.057 10.4267 188.652 10.3822 190.491C10.3483 191.889 9.92319 193.361 9.7157 194.743C9.46873 196.388 9.26582 198.044 9.0629 199.697C8.13987 207.22 7.42147 214.786 7.10375 222.373C6.79099 229.843 6.53143 237.466 6.99581 244.935C7.02651 245.427 7.1581 245.879 7.37036 246.261C7.17221 246.346 7.15696 246.758 7.40354 246.817C7.57633 246.857 7.74873 246.898 7.92151 246.939C8.28042 247.242 8.72802 247.428 9.24312 247.446C9.59231 247.458 9.94131 247.476 10.2901 247.496C13.971 248.355 17.6513 249.166 21.3802 249.78C25.913 250.526 30.4591 251.135 35.0194 251.63C44.3898 252.646 53.6865 252.309 63.0694 251.761C72.4378 251.214 81.8007 251.086 91.1788 251.358C100.565 251.631 109.948 252.087 119.336 252.273C129.825 252.481 140.298 252.161 150.756 251.231C152.19 251.104 153.078 249.83 152.795 248.241C151.1 238.719 149.18 229.26 147.663 219.696Z" fill="#F0A672"/>
<path fill-rule="evenodd" clip-rule="evenodd" d="M51.5078 118.285L51.7127 118.197C54.4813 116.99 57.363 115.043 60.3747 115.762C60.4813 115.718 62.4409 116.164 63.7832 116.446L62.5092 117.93L60.2607 118.413C68.0175 132.7 77.1915 139.843 87.7828 139.843C98.3741 139.843 106.411 132.7 111.893 118.413L112.641 118.182C112.734 118.206 112.832 118.24 112.937 118.285C114.706 119.049 118.159 122.459 119.852 123.414C126.658 127.254 132.166 133.006 135.422 140.773C137.08 144.73 138.318 148.884 139.589 153.01L139.72 153.436C141.129 157.999 142.518 162.57 143.784 167.185C144.977 171.529 146.061 175.914 146.946 180.35L147.065 180.955C147.498 183.169 148.189 185.656 148.028 187.937C147.968 188.8 147.768 189.54 147.473 190.211L132.131 196.372L139.44 252.003C132.745 252.323 126.044 252.406 119.336 252.273C109.948 252.086 100.565 251.631 91.1784 251.358C82.0844 251.094 73.0048 251.207 63.9206 251.713L61.6137 251.844C52.7242 252.34 43.9047 252.594 35.0189 251.63L34.4134 251.563V251.563L34.4133 243.426L37.5347 198.113L21.7164 194.79L6.18851 186.374C5.71934 185.851 5.34285 185.24 5.13349 184.507C4.7698 183.234 5.03857 181.946 5.33645 180.696L5.40792 180.398C5.98405 178 6.63723 175.625 7.3644 173.278C10.3587 163.617 14.5641 154.374 19.984 146.127C25.3595 137.948 31.8799 130.719 39.4928 125.153C43.2682 122.392 47.2869 120.07 51.5078 118.285Z" fill="#E83333"/>
<path fill-rule="evenodd" clip-rule="evenodd" d="M57.4483 115.528C58.4182 115.481 59.4073 115.656 60.3749 115.762C60.4592 115.771 60.4912 115.916 60.3963 115.939C58.6645 116.342 56.9517 116.895 55.2509 117.456L54.5226 117.696C52.6047 118.329 50.743 118.982 48.8862 119.827C45.1857 121.51 41.6711 123.782 38.4365 126.391C25.9809 136.441 16.9661 151.657 11.2773 167.41C9.73232 171.688 8.42329 176.073 7.36295 180.531C7.10511 181.616 6.86253 182.705 6.63253 183.798C6.56502 184.118 6.27076 184.938 6.4321 185.266C6.57475 185.556 7.12933 185.735 7.38698 185.885L8.25682 186.389C9.95354 187.365 12.7798 188.969 13.0632 189.125L13.5053 189.368C20.7352 193.323 28.4603 196.677 36.5962 196.909L36.6599 196.134V196.134C37.0226 191.848 37.4986 187.538 38.5376 183.384C38.5935 183.16 38.8481 183.236 38.8713 183.434C39.4501 188.353 39.2651 193.309 39.0632 198.251C38.7056 207.003 38.2307 215.749 37.8087 224.498C37.5974 228.874 37.3243 233.247 37.0777 237.621C36.8307 242.004 36.7508 246.492 36.1869 250.839C36.0612 251.807 35.0444 252.334 34.2743 252.232C33.4222 252.119 32.7667 251.281 32.7627 250.321C32.7524 247.789 33.0375 245.227 33.196 242.701C33.3465 240.302 33.508 237.903 33.6736 235.505C34.2785 226.751 34.9744 218.007 35.618 209.258C35.8461 206.154 36.0925 203.054 36.3461 199.953C27.7274 199.643 19.6755 196.081 11.9941 191.918C11.8829 194.735 11.6144 197.547 11.3545 200.353C10.6288 208.182 9.98901 216.008 9.51014 223.861C9.26832 227.827 9.0923 231.799 8.93897 235.77C8.86364 237.722 8.80223 239.675 8.75513 241.628C8.73936 242.279 8.72512 242.93 8.71252 243.581L8.68632 245.073C8.66488 246.018 8.57879 246.893 7.86623 247.581C7.14249 248.28 6.16491 248.317 5.44861 247.581C4.48973 246.596 4.65927 245.253 4.68768 243.93C4.71133 242.814 4.73975 241.698 4.77274 240.582C4.83891 238.35 4.9234 236.119 5.02619 233.888C5.38589 226.091 6.10459 218.326 7.04383 210.591L7.41048 207.605C8.09517 202.055 8.84688 196.378 10.3775 191.031C9.78152 190.7 9.18727 190.367 8.59531 190.033C7.54527 189.439 6.45956 188.883 5.43889 188.228C4.62914 187.708 3.93076 186.996 3.70534 185.944C3.45394 184.773 3.83837 183.491 4.09376 182.348L4.11594 182.248C4.36634 181.097 4.636 179.951 4.92054 178.81C6.07433 174.184 7.50102 169.647 9.17068 165.222C12.5138 156.361 16.829 147.944 22.1 140.333C26.8446 133.482 32.4496 127.27 39.0187 122.61C42.2303 120.332 45.6527 118.461 49.2722 117.139C50.964 116.521 52.8047 115.983 54.576 115.762C55.5315 115.643 56.4883 115.574 57.4483 115.528ZM74.6336 101.488C75.7862 100.107 78.0763 101.536 77.5228 103.365C76.2211 107.668 74.1481 111.593 70.9129 114.421C67.8718 117.079 64.2455 118.805 60.3401 118.437C60.31 118.434 60.2839 118.425 60.2608 118.413L60.5974 118.923C63.2396 122.911 66.027 126.845 69.3866 130.105C76.2317 136.747 85.5517 140.33 94.5512 137.781C101.632 135.776 107.87 129.528 109.705 121.565C109.442 121.696 109.129 121.741 108.786 121.658C107.318 121.302 105.865 119.58 104.918 118.344C103.894 117.008 103.094 115.565 102.508 113.934C101.435 110.949 101.091 107.106 102.556 104.214C102.737 103.857 103.154 104.057 103.189 104.405L103.245 104.948C103.527 107.658 103.879 110.28 105.024 112.75C105.585 113.959 106.256 115.139 107.074 116.151C107.511 116.693 107.986 117.211 108.498 117.665C108.997 118.107 109.6 118.427 110.048 118.935L110.13 119.032L110.132 119.015C110.245 117.942 110.919 117.469 111.579 117.499C112.217 117.528 112.967 117.841 113.257 117.991L113.285 118.006C117.738 120.392 121.84 123.501 125.7 126.951C133.682 134.086 139.663 143.413 142.561 154.396C143.983 159.787 144.799 165.341 145.661 170.87L146.191 174.257C146.995 179.361 147.894 184.566 149.709 189.313C150.178 190.542 149.816 191.693 148.665 192.176C147.227 192.779 145.784 193.363 144.339 193.94C145.049 197.337 145.482 200.852 146.013 204.267C147.143 211.524 148.528 218.734 149.716 225.982C150.323 229.688 150.87 233.406 151.477 237.112C151.769 238.896 152.073 240.679 152.37 242.463C152.529 243.424 152.674 244.389 152.827 245.353L152.853 245.513C152.94 246.021 153.05 246.546 152.925 247.055C152.782 247.635 152.376 248.044 152.014 248.46C151.716 248.803 151.285 248.805 150.92 248.618L150.8 248.556C150.148 248.216 149.637 247.876 149.405 247.055C149.259 246.535 149.206 245.949 149.11 245.414C148.927 244.387 148.752 243.359 148.588 242.327C148.259 240.264 147.938 238.2 147.625 236.134L147.332 234.199C146.327 227.532 145.372 220.824 144.89 214.086C144.676 211.096 144.449 208.11 144.22 205.123L144.048 202.882C143.83 200.046 143.565 197.138 143.527 194.264L142.663 194.607V194.607L138.446 196.27V196.27C137.401 196.682 136.07 197.527 134.945 197.374C134.394 197.298 133.974 197.105 133.65 196.753C134.038 202.868 134.564 208.973 135.264 215.046C135.901 220.572 136.608 226.091 137.442 231.585C137.856 234.305 138.28 237.023 138.742 239.733C138.972 241.089 139.21 242.442 139.456 243.795C139.578 244.469 139.723 245.145 139.819 245.825C139.928 246.604 139.736 247.083 139.346 247.724C139.025 248.25 138.385 248.52 137.865 248.157C137.178 247.675 136.819 247.258 136.617 246.381C136.433 245.585 136.321 244.753 136.179 243.946C135.916 242.457 135.662 240.966 135.417 239.473C134.905 236.35 134.433 233.22 134.011 230.08C132.524 219.02 131.581 207.867 131.104 196.696C130.869 191.185 130.797 185.668 130.838 180.151C130.86 177.323 130.943 174.487 131.122 171.666C131.303 168.811 131.681 166.012 132.018 163.184C132.03 163.084 132.156 163.079 132.161 163.184C132.321 166.355 132.571 169.522 132.694 172.701C132.811 175.734 132.862 178.772 132.955 181.807C133.077 185.795 133.247 189.786 133.471 193.775C133.878 193.279 134.49 192.993 135.103 193.104C135.991 192.896 136.947 192.377 137.794 192.061L140.985 190.871V190.871C142.663 190.246 144.34 189.625 146.024 189.023C144.519 183.371 143.487 177.636 142.607 171.817L142.214 169.2C141.437 164.049 140.599 158.895 139.191 153.907C137.711 148.662 135.496 143.787 132.558 139.371C129.662 135.02 126.138 131.188 122.51 127.604C119.404 124.536 116.081 121.766 112.913 118.782C112.946 118.98 112.953 119.197 112.924 119.437C112.25 124.938 109.679 130.061 106.095 133.872C98.8945 141.528 88.2363 143.116 79.0209 139.526C70.1065 136.054 62.2251 127.83 59.4406 117.653C59.3929 117.479 59.6019 117.41 59.6858 117.538C59.8403 117.774 59.9955 118.01 60.151 118.246C60.1405 118.152 60.1841 118.05 60.2879 118.006C63.5368 116.606 66.7272 114.62 69.1625 111.812C70.3495 110.442 71.3854 108.891 72.2032 107.219C72.5949 106.417 72.9468 105.588 73.2275 104.73L73.2988 104.508C73.6391 103.434 73.9234 102.339 74.6336 101.488Z" fill="black"/>
<path fill-rule="evenodd" clip-rule="evenodd" d="M127.399 69.1647C126.909 64.8613 127.544 55.8663 127.586 55.3199C127.855 51.8651 126.234 38.2227 123.169 39.4797C118.029 35.4161 111.182 34.5188 104.779 34.0901C91.4802 33.1997 77.3325 35.2439 67.0634 44.1806C61.9849 48.8216 57.0408 55.5717 57.4382 62.6C52.8241 69.2621 46.3192 78.4006 52.0682 86.1891C54.0224 88.6774 57.1282 89.604 59.5832 91.4885C64.521 95.4655 67.6189 101.173 72.6037 105.126C85.8098 116.976 108.234 119.451 121.209 105.973C131.242 96.2119 129.62 81.6088 127.855 69.1647C126.669 60.7985 128.356 77.5602 127.399 69.1647Z" fill="#F0A672"/>
<path fill-rule="evenodd" clip-rule="evenodd" d="M87.0132 15.8406C90.5699 15.1239 94.2221 14.678 97.8542 14.8122L98.1343 14.8231C100.867 14.9322 104.328 15.1734 106.712 16.7602C106.849 16.6228 107.07 16.5523 107.27 16.6476C110.103 17.9979 113.219 18.9741 116.202 19.9443C119.171 20.9096 122.252 21.5469 125.364 21.8037C126.535 21.9004 127.537 23.1629 126.795 24.2952C126.619 24.5651 126.447 24.8376 126.276 25.1109C126.562 25.0811 126.849 25.0503 127.135 25.0214C128.076 24.9268 129.017 25.9304 128.961 26.8459C128.927 27.4217 128.864 27.9907 128.772 28.5529C129.131 28.5454 129.488 28.5991 129.832 28.7445C131.576 29.48 131.455 31.5547 131.324 33.1332C131.144 35.3237 130.323 37.6439 128.8 39.2833C129.937 40.463 130.742 41.8718 131.223 43.5449C131.571 44.7666 131.765 46.068 131.669 47.3398L131.639 47.7206C131.52 49.1007 131.285 50.6287 130.291 51.6216C129.78 52.1335 129.151 52.3201 128.552 52.2609C128.914 55.4416 129.147 58.6404 129.366 61.8279L129.468 63.3513C129.956 70.7182 130.323 78.133 130.227 85.512C130.138 92.4079 128.773 99.1013 124.538 104.7C120.68 109.799 115.141 113.558 108.875 114.986C105.499 115.758 102.051 115.812 98.6335 115.321C96.9768 115.082 95.3092 114.716 93.7368 114.138C91.9963 113.496 90.7454 112.552 89.5742 111.137C89.0203 110.466 89.2869 109.037 90.3899 109.171C92.0581 109.373 93.5809 109.616 95.1802 110.109L95.4092 110.181C97.0021 110.691 98.6517 111.071 100.317 111.232C103.728 111.562 107.191 111.23 110.459 110.197C115.779 108.514 120.361 104.762 123.298 100.048C126.784 94.4601 127.178 88.117 127.128 81.692C127.074 74.6418 126.844 67.5874 126.469 60.5444L126.406 59.3707C126.207 55.7464 126.016 52.1199 125.848 48.4933C125.795 47.3557 125.715 46.2091 125.572 45.0738C124.257 44.3048 123.079 43.2446 122.311 41.9364C120.769 42.5734 119.147 43.033 117.654 43.3993C114.197 44.2484 110.607 44.4545 107.088 43.9228C106.139 44.3143 105.171 44.6586 104.188 44.9548C103.922 45.0724 103.656 45.188 103.391 45.3013C101.021 46.3137 98.6173 47.1715 96.1157 47.7994L95.5012 47.9524C94.1847 48.2765 92.7548 48.5956 91.3537 48.6958C91.1236 48.7845 90.8752 48.8596 90.6039 48.9256C89.3282 49.235 88.0041 49.3328 86.6965 49.2236C85.4226 49.1167 84.5021 47.8312 85.2039 46.6277C85.7165 45.7495 86.234 44.8736 86.7557 43.9999C84.9398 44.7553 83.0646 45.3832 81.1735 45.9156C79.2641 46.4525 77.3274 46.9053 75.3882 47.3216C74.3515 47.5423 73.3104 47.738 72.276 47.9586C71.5355 48.1156 70.3985 48.1975 69.7945 48.6844C69.1271 49.2191 68.938 50.4658 68.6849 51.2348C68.3522 52.2336 68.0401 53.237 67.7553 54.2517C67.1882 56.2765 66.7233 58.331 66.3633 60.4059C66.0033 62.4831 65.7616 64.5808 65.6272 66.6853C65.493 68.7875 65.552 70.9034 65.3357 72.9965C65.2193 74.1067 64.0256 74.6778 63.1438 73.902C63.0404 73.811 62.9361 73.719 62.8329 73.6259L62.679 73.4856C61.9246 72.8031 61.1932 72.0796 60.5897 71.2651C60.4803 71.1149 60.3755 70.958 60.2775 70.7987C60.2616 70.7987 60.2479 70.7942 60.2319 70.7828L60.0646 70.657C58.2218 69.2874 55.1432 67.5019 53.3464 69.7772C52.7738 70.502 52.4807 71.425 52.2373 72.3154L51.8104 73.909C51.5343 74.9493 51.2744 75.9954 51.1224 77.0599C50.7783 79.4442 50.9515 82.1926 52.5945 84.1037C53.2507 84.8681 54.1552 85.4142 55.1644 85.5575C55.7274 85.6348 56.2833 85.5393 56.8416 85.4688C57.4089 85.3982 57.9555 85.512 58.5231 85.4574C59.4254 85.3687 59.8195 86.4471 59.4823 87.125C59.3 87.4891 59.0856 87.803 58.8421 88.0692C59.0378 88.2376 59.2249 88.4196 59.4049 88.6107C59.938 88.7813 60.4163 89.1476 60.7742 89.6322C61.0636 90.0236 61.2137 90.449 61.239 90.8972C61.2707 91.0087 61.298 91.1225 61.3233 91.2385L61.8122 92.0307C61.9197 92.2044 62.0268 92.3761 62.1343 92.5444C63.3783 94.501 64.7593 96.1573 66.475 97.7181C68.1269 99.2197 69.9198 100.564 71.4717 102.175L71.6545 102.366C73.1013 103.889 74.6263 105.731 74.06 107.945C73.9142 108.514 73.1188 108.923 72.5995 108.539C70.9294 107.301 70.0884 105.34 68.6714 103.838C67.213 102.291 65.5975 100.901 64.135 99.3584C62.7517 97.9024 61.6603 96.2529 60.838 94.4373C60.5097 94.7991 60.0314 95.0562 59.3684 95.1563C58.2292 95.3269 57.1672 94.6603 56.6707 93.6752C56.3515 93.8162 56.0259 93.9436 55.6975 94.0437C53.9705 94.5716 52.8838 92.6536 53.5355 91.2362C53.8839 90.4763 54.3191 89.8165 54.8593 89.2614C53.1707 89.0293 51.4527 88.158 50.3431 87.0704C47.559 84.338 47.1763 80.2314 47.8028 76.5798C48.1355 74.6437 48.7094 72.6848 49.4547 70.867C49.5844 70.5507 49.7236 70.2322 49.876 69.9182C49.7917 69.916 49.7051 69.8796 49.6505 69.809C49.1469 69.1219 48.5342 68.56 48.1603 67.791C47.8163 67.0857 47.4337 66.3713 47.1624 65.6364C46.6044 64.1326 46.3309 62.4353 46.1487 60.845C45.7727 57.5893 45.9183 54.354 46.4175 51.1188C47.2672 45.6084 49.3196 40.3351 52.3434 35.708C52.1788 35.6216 52.021 35.5173 51.8739 35.394L51.8013 35.3308L51.6833 35.2243C50.8205 34.4446 50.895 32.9833 51.6833 32.1936L51.9323 31.9444C52.2476 31.6316 52.5195 31.3838 53.0288 31.0433C53.1039 30.993 53.1807 30.9457 53.2584 30.9015C52.9918 30.4096 52.8993 29.8345 53.085 29.2C53.7321 26.9894 56.9174 27.0677 58.9364 28.0317C61.17 26.0412 63.6467 24.3132 66.3312 22.914C72.7249 19.5832 79.9543 17.2603 87.0132 15.8406ZM53.9641 74.0611C55.1581 73.6721 56.7439 74.4889 57.817 74.9803C59.1773 75.6037 60.3348 76.5251 61.4558 77.4989C62.014 77.9857 62.114 78.782 61.9753 79.4623C61.9614 79.5306 61.9479 79.6011 61.9318 79.6716C61.7836 80.3974 60.9725 80.9684 60.2548 80.948C58.7533 80.907 58.0381 79.6125 57.188 78.5159C57.0879 78.6933 56.9626 78.8571 56.8074 78.98L56.7027 79.0619C56.3499 79.3301 55.9611 79.5444 55.495 79.5237C55.1647 79.5078 54.8482 79.4236 54.5563 79.2712C53.8272 78.8867 53.5062 77.9448 53.7042 77.1781C53.8272 76.6957 54.1097 76.3181 54.4788 76.0564L54.3412 75.9625C54.0469 75.7579 53.7783 75.5422 53.5691 75.224L53.5219 75.1487H53.5401C53.3123 74.7573 53.4606 74.225 53.9641 74.0611Z" fill="black"/>
<path fill-rule="evenodd" clip-rule="evenodd" d="M108.02 96.0153C106.211 96.5396 104.268 96.5865 102.423 96.045C100.75 95.5538 99.032 94.4729 97.8005 93.0427C96.7065 91.7721 95.998 90.2281 96.0259 88.5799C96.029 88.3916 96.0963 88.2345 96.1998 88.1126C96.3113 87.9813 96.4669 87.8911 96.6336 87.852C96.8051 87.8118 96.9864 87.826 97.1407 87.8962C97.2805 87.9596 97.4002 88.0675 97.4751 88.2251C97.6643 88.4738 97.8528 88.7188 98.0421 88.957C99.5638 90.8364 101.037 92.2409 103.326 92.7447C104.567 93.0181 105.807 92.8969 106.945 92.4798C108.163 92.0333 109.264 91.2482 110.126 90.2436C110.516 89.7896 110.976 89.6043 111.426 89.6012C111.936 89.5977 112.441 89.8347 112.82 90.2136C113.194 90.586 113.444 91.0921 113.466 91.6215C113.486 92.0862 113.335 92.5715 112.931 93.0045C111.604 94.4309 109.883 95.4758 108.02 96.0153ZM107.965 72.476C109.82 73.6039 112.647 76.234 110.651 79.0303C108.302 81.4959 104.92 78.6689 103.253 77.3904C101.707 76.3996 99.971 78.948 101.405 80.105C113.449 89.0239 118.336 72.7709 108.903 71.1498C107.865 70.9712 107.479 72.1271 107.965 72.476ZM90.6108 67.5129C90.0145 67.1315 89.3131 67.0005 88.5358 67.3543C87.9283 67.6306 86.8628 68.5518 86.1214 69.7627C85.6141 70.5911 85.2544 71.5629 85.3293 72.5752C85.3467 72.8103 85.2598 72.9837 85.1228 73.1118C85.0146 73.213 84.8584 73.2874 84.6748 73.3107C84.519 73.3304 84.3445 73.3126 84.2027 73.2683C83.9329 73.1841 83.7901 73.0091 83.7363 72.8661C83.2172 71.4871 83.4408 69.9481 84.0227 68.5597C84.8079 66.6859 86.2339 65.1164 87.1682 64.6104C88.767 63.7442 90.6531 63.7043 92.2541 64.5868C93.617 65.3378 94.4692 66.5504 95.3167 67.7865C95.4969 68.0492 95.6757 68.31 95.8605 68.5663C96.2309 69.0797 96.2678 69.589 96.1244 70.0256C95.9655 70.5094 95.5603 70.9176 95.0536 71.1313C94.5853 71.3288 94.0418 71.3566 93.5609 71.1537C93.1546 70.9823 92.7818 70.6481 92.5458 70.0812C92.1485 69.1264 91.4865 68.073 90.6108 67.5129ZM120.893 69.6371C120.485 69.85 120.166 69.9141 119.713 69.7784C119.462 69.7031 119.215 69.5589 119.021 69.365C118.829 69.1728 118.69 68.9339 118.636 68.6688C118.504 68.0146 118.146 67.4022 117.636 67.003C117.2 66.6617 116.65 66.4809 116.039 66.5829C115.381 66.6929 114.754 67.1153 114.321 67.6133C114.177 67.78 114.064 67.9693 113.95 68.1573C113.737 68.5088 113.53 68.8356 113.237 69.0938C113.125 69.1921 112.958 69.2601 112.795 69.2601C112.729 69.2601 112.662 69.2493 112.598 69.2294C111.943 68.5714 111.817 68.0723 111.838 67.5772C111.86 67.058 112.065 66.5323 112.395 66.0418C113.171 64.8913 114.644 63.948 115.638 63.7343C116.999 63.4418 118.351 63.793 119.435 64.5534C120.55 65.3358 121.376 66.5506 121.634 67.9196C121.696 68.2494 121.669 68.6053 121.544 68.9138C121.421 69.2153 121.207 69.4736 120.893 69.6371ZM93.6125 55.2465C92.7956 56.0425 91.8288 56.1658 90.8507 56.2755C90.3072 56.337 89.8734 56.3866 89.4465 56.483C88.273 56.7479 87.1132 57.1469 86.0549 57.7216C84.9487 58.3224 83.7433 59.0469 82.876 59.9751C82.6698 60.1959 82.4754 60.4277 82.2807 60.66C82.1032 60.8717 81.9322 61.0756 81.752 61.2722C81.545 61.4981 81.3484 61.7347 81.153 61.9708C81.0321 62.17 81.0082 62.219 80.9838 62.27C80.9472 62.3466 80.9046 62.4323 80.8559 62.5243C80.7893 62.6503 80.7112 62.7883 80.6294 62.9133C80.4934 63.1419 80.4204 63.2049 80.3573 63.233C80.2527 63.2796 80.1534 63.3026 80.0571 63.2902C79.9668 63.2785 79.8817 63.2351 79.7977 63.1641C79.3784 62.8097 79.2547 62.2281 79.2673 61.6106C79.2866 60.6737 79.6321 59.6364 79.9506 58.9987C80.6911 57.517 81.7182 55.9767 82.9531 54.8708C84.3623 53.6085 85.904 52.6528 87.6749 51.9943C88.7753 51.585 90.0495 51.2092 91.2484 51.2567C92.1113 51.2908 92.9352 51.5474 93.6155 52.1882C94.0333 52.5815 94.2338 53.141 94.2338 53.7001C94.2338 54.2704 94.0256 54.844 93.6125 55.2465ZM122.555 62.5362C122.503 62.6213 122.431 62.68 122.351 62.7153C122.267 62.7522 122.174 62.7629 122.084 62.7477C121.994 62.7326 121.909 62.6921 121.842 62.6301C121.777 62.5707 121.728 62.4919 121.706 62.3954C121.164 60.0128 120.111 58.2402 117.863 57.0971C116.757 56.5348 115.486 56.1775 114.282 55.8927C113.933 55.8099 113.563 55.7562 113.191 55.7019C112.024 55.5315 110.85 55.3364 110.089 54.3934C109.631 53.8253 109.439 53.0988 109.547 52.4344C109.65 51.8088 110.015 51.2352 110.68 50.8914C112.334 50.036 114.389 50.8754 116.059 51.5904C116.183 51.6434 116.305 51.6955 116.424 51.7458C118.057 52.4354 119.547 53.3457 120.772 54.6475C121.743 55.6803 122.644 57.2071 123.006 58.7778C123.308 60.0845 123.237 61.4185 122.555 62.5362Z" fill="black"/>
</svg>
