<svg width="174" height="258" viewBox="0 0 174 258" fill="none" xmlns="http://www.w3.org/2000/svg">
<path fill-rule="evenodd" clip-rule="evenodd" d="M164.701 219.696C163.843 214.852 163.057 209.994 162.343 205.126C162.004 202.815 161.673 200.501 161.376 198.184C161.167 196.561 160.85 194.704 161.954 193.502C163.508 191.81 164.919 190.361 165.109 187.937C165.288 185.656 164.517 183.17 164.035 180.956C163.024 176.313 161.766 171.727 160.375 167.185C158.963 162.57 157.414 157.999 155.842 153.437C154.373 149.171 152.961 144.866 151.048 140.774C147.417 133.007 141.273 127.255 133.681 123.414C131.793 122.459 127.942 119.049 125.969 118.286C124.155 117.584 124.162 119.633 122.377 118.861C120.95 118.244 119.621 117.421 118.822 116.043C117.955 114.546 115.78 112.453 115.448 110.71C114.747 107.018 115.507 103.874 112.873 101.095C110.534 98.627 107.391 96.9362 104.138 96.0285C96.9836 94.0319 87.4416 95.4278 83.1248 102.08C81.063 105.256 80.3425 109.096 77.5604 111.688C75.131 113.952 75.6747 115.5 72.5282 116.666C72.35 116.733 67.5198 115.696 67.3415 115.762C63.8994 115.025 60.6095 117.088 57.4515 118.286C52.7435 120.07 48.2612 122.393 44.0501 125.153C35.5588 130.72 28.2861 137.948 22.2903 146.127C16.245 154.374 11.5544 163.618 8.21462 173.278C7.40354 175.625 6.675 178 6.03239 180.399C5.67269 181.741 5.28831 183.133 5.72629 184.507C6.0845 185.631 6.88133 186.468 7.81706 187.143C9.08547 188.057 11.6297 188.652 11.5802 190.491C11.5423 191.889 11.0682 193.361 10.8367 194.743C10.5613 196.388 10.335 198.044 10.1086 199.697C9.07909 207.22 8.2778 214.786 7.92341 222.373C7.57456 229.843 7.28506 237.466 7.80302 244.935C7.83727 245.427 7.98404 245.879 8.22079 246.261C7.99978 246.346 7.98276 246.758 8.2578 246.817C8.45052 246.857 8.64281 246.898 8.83553 246.939C9.23586 247.242 9.7351 247.428 10.3096 247.446C10.6991 247.458 11.0884 247.476 11.4774 247.496C15.583 248.355 19.688 249.166 23.8472 249.78C28.903 250.526 33.9736 251.135 39.0601 251.63C49.5118 252.646 59.8811 252.309 70.3467 251.761C80.796 251.214 91.2392 251.086 101.699 251.358C112.169 251.631 122.634 252.087 133.106 252.273C144.805 252.481 156.486 252.161 168.151 251.231C169.751 251.104 170.74 249.83 170.425 248.241C168.535 238.719 166.393 229.26 164.701 219.696Z" fill="#F0A672"/>
<path fill-rule="evenodd" clip-rule="evenodd" d="M57.4511 118.285L57.6796 118.197C60.7677 116.99 63.9819 115.043 67.3411 115.762C67.4599 115.718 69.6457 116.164 71.1428 116.446L69.7218 117.93L67.2139 118.413C75.8657 132.7 86.0983 139.843 97.9116 139.843C109.725 139.843 118.689 132.7 124.804 118.413L125.638 118.182C125.741 118.206 125.851 118.24 125.968 118.285C127.941 119.049 131.792 122.459 133.681 123.414C141.273 127.254 147.416 133.006 151.047 140.773C152.897 144.73 154.278 148.884 155.695 153.01L155.842 153.436C157.413 157.999 158.962 162.57 160.375 167.185C161.705 171.529 162.914 175.914 163.901 180.35L164.035 180.955C164.517 183.169 165.287 185.656 165.109 187.937C165.041 188.8 164.818 189.54 164.489 190.211L147.377 196.372L155.53 252.003C148.062 252.323 140.587 252.406 133.106 252.273C122.634 252.086 112.168 251.631 101.699 251.358C91.5557 251.094 81.4285 251.207 71.2961 251.713L68.723 251.844C58.8078 252.34 48.9707 252.594 39.0596 251.63L38.3843 251.563L38.3841 243.426L41.8656 198.113L24.2221 194.79L6.90258 186.374C6.37929 185.851 5.95936 185.24 5.72583 184.507C5.32018 183.234 5.61997 181.946 5.95222 180.696L6.03193 180.398C6.67454 178 7.40308 175.625 8.21416 173.278C11.554 163.617 16.2445 154.374 22.2899 146.127C28.2856 137.948 35.5583 130.719 44.0497 125.153C48.2608 122.392 52.7431 120.07 57.4511 118.285Z" fill="#E83333"/>
<path fill-rule="evenodd" clip-rule="evenodd" d="M64.0769 115.528C65.1588 115.481 66.2619 115.656 67.3412 115.762C67.4353 115.771 67.471 115.916 67.3651 115.939C65.4335 116.342 63.523 116.895 61.6259 117.456L60.8137 117.696C58.6744 118.329 56.5979 118.982 54.5269 119.827C50.3994 121.51 46.4793 123.782 42.8715 126.391C28.9787 136.441 18.9237 151.657 12.5785 167.41C10.8553 171.688 9.39521 176.073 8.21252 180.531C7.92493 181.616 7.65436 182.705 7.39782 183.798C7.32252 184.118 6.99431 184.938 7.17426 185.266C7.33337 185.556 7.95194 185.735 8.23932 185.885L9.20953 186.389C11.102 187.365 14.2544 188.969 14.5705 189.125L15.0636 189.368C23.1277 193.323 31.7441 196.677 40.8188 196.909L40.8898 196.134C41.2944 191.848 41.8254 187.538 42.9842 183.384C43.0466 183.16 43.3305 183.236 43.3565 183.434C44.0021 188.353 43.7957 193.309 43.5705 198.251C43.1716 207.003 42.642 215.749 42.1712 224.498C41.9355 228.874 41.6309 233.247 41.3559 237.621C41.0804 242.004 40.9913 246.492 40.3623 250.839C40.2221 251.807 39.0879 252.334 38.229 252.232C37.2786 252.119 36.5475 251.281 36.543 250.321C36.5315 247.789 36.8496 245.227 37.0263 242.701C37.1942 240.302 37.3743 237.903 37.559 235.505C38.2337 226.751 39.0099 218.007 39.7278 209.258C39.9822 206.154 40.257 203.054 40.5399 199.953C30.9267 199.643 21.9458 196.081 13.3781 191.918C13.2541 194.735 12.9545 197.547 12.6646 200.353C11.8552 208.182 11.1416 216.008 10.6075 223.861C10.3377 227.827 10.1414 231.799 9.97039 235.77C9.88636 237.722 9.81787 239.675 9.76533 241.628C9.74774 242.279 9.73186 242.93 9.71781 243.581L9.68858 245.073C9.66467 246.018 9.56865 246.893 8.77387 247.581C7.96662 248.28 6.87625 248.317 6.0773 247.581C5.00777 246.596 5.19687 245.253 5.22857 243.93C5.25494 242.814 5.28664 241.698 5.32344 240.582C5.39725 238.35 5.49148 236.119 5.60613 233.888C6.00734 226.091 6.80896 218.326 7.85658 210.591L8.26553 207.605C9.02923 202.055 9.86767 196.378 11.5749 191.031C10.9102 190.7 10.2473 190.367 9.58707 190.033C8.41587 189.439 7.20489 188.883 6.06645 188.228C5.16326 187.708 4.38431 186.996 4.13288 185.944C3.85247 184.773 4.28125 183.491 4.56611 182.348L4.59085 182.248C4.87014 181.097 5.17092 179.951 5.48829 178.81C6.77521 174.184 8.36652 169.647 10.2288 165.222C13.9577 156.361 18.7708 147.944 24.65 140.333C29.9421 133.482 36.1938 127.27 43.5209 122.61C47.103 120.332 50.9204 118.461 54.9575 117.139C56.8445 116.521 58.8976 115.983 60.8733 115.762C61.939 115.643 63.0061 115.574 64.0769 115.528ZM83.2452 101.488C84.5308 100.107 87.0851 101.536 86.4678 103.365C85.0158 107.668 82.7036 111.593 79.0951 114.421C75.7032 117.079 71.6584 118.805 67.3025 118.437C67.2689 118.434 67.2397 118.425 67.214 118.413L67.5894 118.923C70.5365 122.911 73.6455 126.845 77.3928 130.105C85.0277 136.747 95.423 140.33 105.461 137.781C113.359 135.776 120.317 129.528 122.363 121.565C122.069 121.696 121.721 121.741 121.338 121.658C119.701 121.302 118.08 119.58 117.024 118.344C115.882 117.008 114.99 115.565 114.336 113.934C113.139 110.949 112.755 107.106 114.389 104.214C114.591 103.857 115.056 104.057 115.096 104.405L115.158 104.948C115.473 107.658 115.865 110.28 117.142 112.75C117.767 113.959 118.517 115.139 119.428 116.151C119.916 116.693 120.445 117.211 121.017 117.665C121.573 118.107 122.247 118.427 122.746 118.935L122.837 119.032L122.84 119.015C122.966 117.942 123.718 117.469 124.453 117.499C125.165 117.528 126.002 117.841 126.326 117.991L126.356 118.006C131.324 120.392 135.899 123.501 140.204 126.951C149.107 134.086 155.778 143.413 159.01 154.396C160.597 159.787 161.507 165.341 162.468 170.87L163.059 174.257C163.956 179.361 164.958 184.566 166.983 189.313C167.506 190.542 167.103 191.693 165.819 192.176C164.215 192.779 162.606 193.363 160.994 193.94C161.785 197.337 162.268 200.852 162.861 204.267C164.122 211.524 165.666 218.734 166.99 225.982C167.667 229.688 168.278 233.406 168.955 237.112C169.281 238.896 169.62 240.679 169.951 242.463C170.129 243.424 170.29 244.389 170.46 245.353L170.49 245.513C170.587 246.021 170.71 246.546 170.57 247.055C170.411 247.635 169.958 248.044 169.554 248.46C169.222 248.803 168.741 248.805 168.334 248.618L168.2 248.556C167.472 248.216 166.902 247.876 166.644 247.055C166.481 246.535 166.422 245.949 166.315 245.414C166.11 244.387 165.916 243.359 165.733 242.327C165.366 240.264 165.008 238.2 164.658 236.134L164.332 234.199C163.211 227.532 162.146 220.824 161.608 214.086C161.369 211.096 161.116 208.11 160.861 205.123L160.669 202.882C160.426 200.046 160.13 197.138 160.088 194.264L159.124 194.607L154.421 196.27C153.255 196.682 151.77 197.527 150.515 197.374C149.901 197.298 149.432 197.105 149.071 196.753C149.504 202.868 150.09 208.973 150.871 215.046C151.582 220.572 152.37 226.091 153.301 231.585C153.762 234.305 154.236 237.023 154.75 239.733C155.008 241.089 155.273 242.442 155.547 243.795C155.683 244.469 155.845 245.145 155.952 245.825C156.073 246.604 155.859 247.083 155.424 247.724C155.067 248.25 154.352 248.52 153.773 248.157C153.006 247.675 152.606 247.258 152.38 246.381C152.175 245.585 152.05 244.753 151.892 243.946C151.599 242.457 151.316 240.966 151.042 239.473C150.471 236.35 149.944 233.22 149.473 230.08C147.815 219.02 146.763 207.867 146.232 196.696C145.97 191.185 145.889 185.668 145.935 180.151C145.959 177.323 146.051 174.487 146.251 171.666C146.454 168.811 146.875 166.012 147.251 163.184C147.264 163.084 147.405 163.079 147.411 163.184C147.589 166.355 147.868 169.522 148.004 172.701C148.135 175.734 148.192 178.772 148.296 181.807C148.432 185.795 148.622 189.786 148.872 193.775C149.325 193.279 150.008 192.993 150.692 193.104C151.682 192.896 152.749 192.377 153.693 192.061L157.252 190.871C159.124 190.246 160.995 189.625 162.873 189.023C161.194 183.371 160.044 177.636 159.062 171.817L158.624 169.2C157.757 164.049 156.822 158.895 155.252 153.907C153.601 148.662 151.13 143.787 147.853 139.371C144.622 135.02 140.692 131.188 136.646 127.604C133.181 124.536 129.475 121.766 125.941 118.782C125.978 118.98 125.986 119.197 125.954 119.437C125.202 124.938 122.334 130.061 118.336 133.872C110.305 141.528 98.4174 143.116 88.1386 139.526C78.1958 136.054 69.4049 127.83 66.2991 117.653C66.2459 117.479 66.4791 117.41 66.5726 117.538C66.7449 117.774 66.9181 118.01 67.0915 118.246C67.0798 118.152 67.1285 118.05 67.2442 118.006C70.868 116.606 74.4265 114.62 77.1428 111.812C78.4668 110.442 79.6222 108.891 80.5343 107.219C80.9713 106.417 81.3637 105.588 81.6768 104.73L81.7564 104.508C82.1359 103.434 82.453 102.339 83.2452 101.488Z" fill="black"/>
<path fill-rule="evenodd" clip-rule="evenodd" d="M134.399 69.1647C133.909 64.8613 134.544 55.8663 134.586 55.3199C134.855 51.8651 133.234 38.2227 130.169 39.4797C125.029 35.4161 118.182 34.5188 111.779 34.0901C98.4802 33.1997 84.3325 35.2439 74.0634 44.1806C68.9849 48.8216 64.0408 55.5717 64.4382 62.6C59.8241 69.2621 53.3192 78.4006 59.0682 86.1891C61.0224 88.6774 64.1282 89.604 66.5832 91.4885C71.521 95.4655 74.6189 101.173 79.6037 105.126C92.8098 116.976 115.234 119.451 128.209 105.973C138.242 96.2119 136.62 81.6088 134.855 69.1647C133.669 60.7985 135.356 77.5602 134.399 69.1647Z" fill="#F0A672"/>
<path fill-rule="evenodd" clip-rule="evenodd" d="M94.0132 15.8406C97.5699 15.1239 101.222 14.678 104.854 14.8122L105.134 14.8231C107.867 14.9322 111.328 15.1734 113.712 16.7602C113.849 16.6228 114.07 16.5523 114.27 16.6476C117.103 17.9979 120.219 18.9741 123.202 19.9443C126.171 20.9096 129.252 21.5469 132.364 21.8037C133.535 21.9004 134.537 23.1629 133.795 24.2952C133.619 24.5651 133.447 24.8376 133.276 25.1109C133.562 25.0811 133.849 25.0503 134.135 25.0214C135.076 24.9268 136.017 25.9304 135.961 26.8459C135.927 27.4217 135.864 27.9907 135.772 28.5529C136.131 28.5454 136.488 28.5991 136.832 28.7445C138.576 29.48 138.455 31.5547 138.324 33.1332C138.144 35.3237 137.323 37.6439 135.8 39.2833C136.937 40.463 137.742 41.8718 138.223 43.5449C138.571 44.7666 138.765 46.068 138.669 47.3398L138.639 47.7206C138.52 49.1007 138.285 50.6287 137.291 51.6216C136.78 52.1335 136.151 52.3201 135.552 52.2609C135.914 55.4416 136.147 58.6404 136.366 61.8279L136.468 63.3513C136.956 70.7182 137.323 78.133 137.227 85.512C137.138 92.4079 135.773 99.1013 131.538 104.7C127.68 109.799 122.141 113.558 115.875 114.986C112.499 115.758 109.051 115.812 105.633 115.321C103.977 115.082 102.309 114.716 100.737 114.138C98.9963 113.496 97.7454 112.552 96.5742 111.137C96.0203 110.466 96.2869 109.037 97.3899 109.171C99.0581 109.373 100.581 109.616 102.18 110.109L102.409 110.181C104.002 110.691 105.652 111.071 107.317 111.232C110.728 111.562 114.191 111.23 117.459 110.197C122.779 108.514 127.361 104.762 130.298 100.048C133.784 94.4601 134.178 88.117 134.128 81.692C134.074 74.6418 133.844 67.5874 133.469 60.5444L133.406 59.3707C133.207 55.7464 133.016 52.1199 132.848 48.4933C132.795 47.3557 132.715 46.2091 132.572 45.0738C131.257 44.3048 130.079 43.2446 129.311 41.9364C127.769 42.5734 126.147 43.033 124.654 43.3993C121.197 44.2484 117.607 44.4545 114.088 43.9228C113.139 44.3143 112.171 44.6586 111.188 44.9548C110.922 45.0724 110.656 45.188 110.391 45.3013C108.021 46.3137 105.617 47.1715 103.116 47.7994L102.501 47.9524C101.185 48.2765 99.7548 48.5956 98.3537 48.6958C98.1236 48.7845 97.8752 48.8596 97.6039 48.9256C96.3282 49.235 95.0041 49.3328 93.6965 49.2236C92.4226 49.1167 91.5021 47.8312 92.2039 46.6277C92.7165 45.7495 93.234 44.8736 93.7557 43.9999C91.9398 44.7553 90.0646 45.3832 88.1735 45.9156C86.2641 46.4525 84.3274 46.9053 82.3882 47.3216C81.3515 47.5423 80.3104 47.738 79.276 47.9586C78.5355 48.1156 77.3985 48.1975 76.7945 48.6844C76.1271 49.2191 75.938 50.4658 75.6849 51.2348C75.3522 52.2336 75.0401 53.237 74.7553 54.2517C74.1882 56.2765 73.7233 58.331 73.3633 60.4059C73.0033 62.4831 72.7616 64.5808 72.6272 66.6853C72.493 68.7875 72.552 70.9034 72.3357 72.9965C72.2193 74.1067 71.0256 74.6778 70.1438 73.902C70.0404 73.811 69.9361 73.719 69.8329 73.6259L69.679 73.4856C68.9246 72.8031 68.1932 72.0796 67.5897 71.2651C67.4803 71.1149 67.3755 70.958 67.2775 70.7987C67.2616 70.7987 67.2479 70.7942 67.2319 70.7828L67.0646 70.657C65.2218 69.2874 62.1432 67.5019 60.3464 69.7772C59.7738 70.502 59.4807 71.425 59.2373 72.3154L58.8104 73.909C58.5343 74.9493 58.2744 75.9954 58.1224 77.0599C57.7783 79.4442 57.9515 82.1926 59.5945 84.1037C60.2507 84.8681 61.1552 85.4142 62.1644 85.5575C62.7274 85.6348 63.2833 85.5393 63.8416 85.4688C64.4089 85.3982 64.9555 85.512 65.5231 85.4574C66.4254 85.3687 66.8195 86.4471 66.4823 87.125C66.3 87.4891 66.0856 87.803 65.8421 88.0692C66.0378 88.2376 66.2249 88.4196 66.4049 88.6107C66.938 88.7813 67.4163 89.1476 67.7742 89.6322C68.0636 90.0236 68.2137 90.449 68.239 90.8972C68.2707 91.0087 68.298 91.1225 68.3233 91.2385L68.8122 92.0307C68.9197 92.2044 69.0268 92.3761 69.1343 92.5444C70.3783 94.501 71.7593 96.1573 73.475 97.7181C75.1269 99.2197 76.9198 100.564 78.4717 102.175L78.6545 102.366C80.1013 103.889 81.6263 105.731 81.06 107.945C80.9142 108.514 80.1188 108.923 79.5995 108.539C77.9294 107.301 77.0884 105.34 75.6714 103.838C74.213 102.291 72.5975 100.901 71.135 99.3584C69.7517 97.9024 68.6603 96.2529 67.838 94.4373C67.5097 94.7991 67.0314 95.0562 66.3684 95.1563C65.2292 95.3269 64.1672 94.6603 63.6707 93.6752C63.3515 93.8162 63.0259 93.9436 62.6975 94.0437C60.9705 94.5716 59.8838 92.6536 60.5355 91.2362C60.8839 90.4763 61.3191 89.8165 61.8593 89.2614C60.1707 89.0293 58.4527 88.158 57.3431 87.0704C54.559 84.338 54.1763 80.2314 54.8028 76.5798C55.1355 74.6437 55.7094 72.6848 56.4547 70.867C56.5844 70.5507 56.7236 70.2322 56.876 69.9182C56.7917 69.916 56.7051 69.8796 56.6505 69.809C56.1469 69.1219 55.5342 68.56 55.1603 67.791C54.8163 67.0857 54.4337 66.3713 54.1624 65.6364C53.6044 64.1326 53.3309 62.4353 53.1487 60.845C52.7727 57.5893 52.9183 54.354 53.4175 51.1188C54.2672 45.6084 56.3196 40.3351 59.3434 35.708C59.1788 35.6216 59.021 35.5173 58.8739 35.394L58.8013 35.3308L58.6833 35.2243C57.8205 34.4446 57.895 32.9833 58.6833 32.1936L58.9323 31.9444C59.2476 31.6316 59.5195 31.3838 60.0288 31.0433C60.1039 30.993 60.1807 30.9457 60.2584 30.9015C59.9918 30.4096 59.8993 29.8345 60.085 29.2C60.7321 26.9894 63.9174 27.0677 65.9364 28.0317C68.17 26.0412 70.6467 24.3132 73.3312 22.914C79.7249 19.5832 86.9543 17.2603 94.0132 15.8406ZM60.9641 74.0611C62.1581 73.6721 63.7439 74.4889 64.817 74.9803C66.1773 75.6037 67.3348 76.5251 68.4558 77.4989C69.014 77.9857 69.114 78.782 68.9753 79.4623C68.9614 79.5306 68.9479 79.6011 68.9318 79.6716C68.7836 80.3974 67.9725 80.9684 67.2548 80.948C65.7533 80.907 65.0381 79.6125 64.188 78.5159C64.0879 78.6933 63.9626 78.8571 63.8074 78.98L63.7027 79.0619C63.3499 79.3301 62.9611 79.5444 62.495 79.5237C62.1647 79.5078 61.8482 79.4236 61.5563 79.2712C60.8272 78.8867 60.5062 77.9448 60.7042 77.1781C60.8272 76.6957 61.1097 76.3181 61.4788 76.0564L61.3412 75.9625C61.0469 75.7579 60.7783 75.5422 60.5691 75.224L60.5219 75.1487H60.5401C60.3123 74.7573 60.4606 74.225 60.9641 74.0611Z" fill="black"/>
<path fill-rule="evenodd" clip-rule="evenodd" d="M114.02 97.0153C112.211 97.5396 110.268 97.5865 108.423 97.045C106.75 96.5538 105.032 95.4729 103.801 94.0427C102.707 92.7721 101.998 91.2281 102.026 89.5799C102.029 89.3916 102.096 89.2345 102.2 89.1126C102.311 88.9813 102.467 88.8911 102.634 88.852C102.805 88.8118 102.986 88.826 103.141 88.8962C103.28 88.9596 103.4 89.0675 103.475 89.2251C103.664 89.4738 103.853 89.7188 104.042 89.957C105.564 91.8364 107.037 93.2409 109.326 93.7447C110.567 94.0181 111.807 93.8969 112.945 93.4798C114.163 93.0333 115.264 92.2482 116.126 91.2436C116.516 90.7896 116.976 90.6043 117.426 90.6012C117.936 90.5977 118.441 90.8347 118.82 91.2136C119.194 91.586 119.444 92.0921 119.466 92.6215C119.486 93.0862 119.335 93.5715 118.931 94.0045C117.604 95.4309 115.883 96.4758 114.02 97.0153ZM113.965 73.476C115.82 74.6039 118.647 77.234 116.651 80.0303C114.302 82.4959 110.92 79.6689 109.253 78.3904C107.707 77.3996 105.971 79.948 107.405 81.105C119.449 90.0239 124.336 73.7709 114.903 72.1498C113.865 71.9712 113.479 73.1271 113.965 73.476ZM96.6108 68.5129C96.0145 68.1315 95.3131 68.0005 94.5358 68.3543C93.9283 68.6306 92.8628 69.5518 92.1214 70.7627C91.6141 71.5911 91.2544 72.5629 91.3293 73.5752C91.3467 73.8103 91.2598 73.9837 91.1228 74.1118C91.0146 74.213 90.8584 74.2874 90.6748 74.3107C90.519 74.3304 90.3445 74.3126 90.2027 74.2683C89.9329 74.1841 89.7901 74.0091 89.7363 73.8661C89.2172 72.4871 89.4408 70.9481 90.0227 69.5597C90.8079 67.6859 92.2339 66.1164 93.1682 65.6104C94.767 64.7442 96.6531 64.7043 98.2541 65.5868C99.617 66.3378 100.469 67.5504 101.317 68.7865C101.497 69.0492 101.676 69.31 101.861 69.5663C102.231 70.0797 102.268 70.589 102.124 71.0256C101.965 71.5094 101.56 71.9176 101.054 72.1313C100.585 72.3288 100.042 72.3566 99.5609 72.1537C99.1546 71.9823 98.7818 71.6481 98.5458 71.0812C98.1485 70.1264 97.4865 69.073 96.6108 68.5129ZM126.893 70.6371C126.485 70.85 126.166 70.9141 125.713 70.7784C125.462 70.7031 125.215 70.5589 125.021 70.365C124.829 70.1728 124.69 69.9339 124.636 69.6688C124.504 69.0146 124.146 68.4022 123.636 68.003C123.2 67.6617 122.65 67.4809 122.039 67.5829C121.381 67.6929 120.754 68.1153 120.321 68.6133C120.177 68.78 120.064 68.9693 119.95 69.1573C119.737 69.5088 119.53 69.8356 119.237 70.0938C119.125 70.1921 118.958 70.2601 118.795 70.2601C118.729 70.2601 118.662 70.2493 118.598 70.2294C117.943 69.5714 117.817 69.0723 117.838 68.5772C117.86 68.058 118.065 67.5323 118.395 67.0418C119.171 65.8913 120.644 64.948 121.638 64.7343C122.999 64.4418 124.351 64.793 125.435 65.5534C126.55 66.3358 127.376 67.5506 127.634 68.9196C127.696 69.2494 127.669 69.6053 127.544 69.9138C127.421 70.2153 127.207 70.4736 126.893 70.6371ZM99.6125 56.2465C98.7956 57.0425 97.8288 57.1658 96.8507 57.2755C96.3072 57.337 95.8734 57.3866 95.4465 57.483C94.273 57.7479 93.1132 58.1469 92.0549 58.7216C90.9487 59.3224 89.7433 60.0469 88.876 60.9751C88.6698 61.1959 88.4754 61.4277 88.2807 61.66C88.1032 61.8717 87.9322 62.0756 87.752 62.2722C87.545 62.4981 87.3484 62.7347 87.153 62.9708C87.0321 63.17 87.0082 63.219 86.9838 63.27C86.9472 63.3466 86.9046 63.4323 86.8559 63.5243C86.7893 63.6503 86.7112 63.7883 86.6294 63.9133C86.4934 64.1419 86.4204 64.2049 86.3573 64.233C86.2527 64.2796 86.1534 64.3026 86.0571 64.2902C85.9668 64.2785 85.8817 64.2351 85.7977 64.1641C85.3784 63.8097 85.2547 63.2281 85.2673 62.6106C85.2866 61.6737 85.6321 60.6364 85.9506 59.9987C86.6911 58.517 87.7182 56.9767 88.9531 55.8708C90.3623 54.6085 91.904 53.6528 93.6749 52.9943C94.7753 52.585 96.0495 52.2092 97.2484 52.2567C98.1113 52.2908 98.9352 52.5474 99.6155 53.1882C100.033 53.5815 100.234 54.141 100.234 54.7001C100.234 55.2704 100.026 55.844 99.6125 56.2465ZM128.555 63.5362C128.503 63.6213 128.431 63.68 128.351 63.7153C128.267 63.7522 128.174 63.7629 128.084 63.7477C127.994 63.7326 127.909 63.6921 127.842 63.6301C127.777 63.5707 127.728 63.4919 127.706 63.3954C127.164 61.0128 126.111 59.2402 123.863 58.0971C122.757 57.5348 121.486 57.1775 120.282 56.8927C119.933 56.8099 119.563 56.7562 119.191 56.7019C118.024 56.5315 116.85 56.3364 116.089 55.3934C115.631 54.8253 115.439 54.0988 115.547 53.4344C115.65 52.8088 116.015 52.2352 116.68 51.8914C118.334 51.036 120.389 51.8754 122.059 52.5904C122.183 52.6434 122.305 52.6955 122.424 52.7458C124.057 53.4354 125.547 54.3457 126.772 55.6475C127.743 56.6803 128.644 58.2071 129.006 59.7778C129.308 61.0845 129.237 62.4185 128.555 63.5362Z" fill="black"/>
</svg>
