<?xml version="1.0" encoding="UTF-8" standalone="no"?>
<!-- Created with Inkscape (http://www.inkscape.org/) -->

<svg
   xmlns:dc="http://purl.org/dc/elements/1.1/"
   xmlns:cc="http://creativecommons.org/ns#"
   xmlns:rdf="http://www.w3.org/1999/02/22-rdf-syntax-ns#"
   xmlns:svg="http://www.w3.org/2000/svg"
   xmlns="http://www.w3.org/2000/svg"
   xmlns:sodipodi="http://sodipodi.sourceforge.net/DTD/sodipodi-0.dtd"
   xmlns:inkscape="http://www.inkscape.org/namespaces/inkscape"
   width="97.14196mm"
   height="27.563137mm"
   viewBox="0 0 97.14196 27.563137"
   version="1.1"
   id="svg3989"
   inkscape:version="0.92.3 (2405546, 2018-03-11)"
   sodipodi:docname="logo.svg">
  <defs
     id="defs3983" />
  <sodipodi:namedview
     id="base"
     pagecolor="#ffffff"
     bordercolor="#666666"
     borderopacity="1.0"
     inkscape:pageopacity="0.0"
     inkscape:pageshadow="2"
     inkscape:zoom="1.979899"
     inkscape:cx="90.520448"
     inkscape:cy="6.4477995"
     inkscape:document-units="mm"
     inkscape:current-layer="layer1"
     showgrid="false"
     fit-margin-top="1"
     fit-margin-right="1"
     fit-margin-bottom="1"
     fit-margin-left="1"
     inkscape:window-width="1920"
     inkscape:window-height="1017"
     inkscape:window-x="-8"
     inkscape:window-y="-8"
     inkscape:window-maximized="1" />
  <metadata
     id="metadata3986">
    <rdf:RDF>
      <cc:Work
         rdf:about="">
        <dc:format>image/svg+xml</dc:format>
        <dc:type
           rdf:resource="http://purl.org/dc/dcmitype/StillImage" />
        <dc:title></dc:title>
      </cc:Work>
    </rdf:RDF>
  </metadata>
  <g
     inkscape:label="Layer 1"
     inkscape:groupmode="layer"
     id="layer1"
     transform="translate(-70.869496,-52.652955)">
    <g
       transform="translate(11.197765,-5.8482177)"
       id="g3893">
      <g
         id="text3726-1"
         style="font-style:normal;font-variant:normal;font-weight:normal;font-stretch:normal;font-size:14.11111069px;line-height:1.25;font-family:Pacifico;-inkscape-font-specification:Pacifico;letter-spacing:0px;word-spacing:0px;fill:#e83333;fill-opacity:1;stroke:none;stroke-width:0.26458332"
         aria-label="Walshs Kitchen">
        <path
           inkscape:connector-curvature="0"
           id="path3791"
           style="font-style:normal;font-variant:normal;font-weight:normal;font-stretch:normal;font-size:14.11111069px;font-family:Pacifico;-inkscape-font-specification:Pacifico;fill:#e83333;fill-opacity:1;stroke-width:0.26458332"
           d="m 77.562731,66.669618 q 0.324555,0 0.465666,0.141111 0.155223,0.141111 0.155223,0.366889 0,0.366888 -0.225778,0.649111 -0.211667,0.282222 -0.677334,0.296333 -1.114777,0.01411 -2.003777,-0.169333 -0.987778,2.102555 -2.384778,3.499555 -1.382889,1.382889 -2.737555,1.382889 -1.241778,0 -1.862667,-1.312333 -0.620889,-1.326445 -0.705556,-3.541889 -0.846666,2.455333 -1.919111,3.654778 -1.058333,1.199444 -2.257777,1.199444 -1.354667,0 -2.046111,-1.679222 -0.691445,-1.693334 -0.691445,-4.543778 0,-2.074333 0.366889,-4.557889 0.09878,-0.705555 0.352778,-0.973666 0.268111,-0.282222 0.832555,-0.282222 0.423334,0 0.649111,0.183444 0.239889,0.183444 0.239889,0.677333 0,0.09878 -0.02822,0.381 -0.423333,2.892778 -0.423333,4.924778 0,1.890889 0.324555,2.921 0.324556,1.030111 0.874889,1.030111 0.493889,0 1.185334,-1.030111 0.705555,-1.044222 1.396999,-3.076222 0.691445,-2.046111 1.171223,-4.868334 0.112889,-0.649111 0.409222,-0.888999 0.310444,-0.254 0.832555,-0.254 0.437445,0 0.635,0.197555 0.211667,0.183444 0.211667,0.564444 0,0.225778 -0.02822,0.352778 -0.395111,2.300111 -0.395111,4.600222 0,1.566334 0.09878,2.497667 0.112889,0.931333 0.409223,1.425222 0.310444,0.479778 0.889,0.479778 0.677333,0 1.509889,-1.016 0.832555,-1.030111 1.523999,-2.554111 -0.860777,-0.536222 -1.298222,-1.382889 -0.437444,-0.860778 -0.437444,-1.975555 0,-1.114778 0.338667,-1.876778 0.352777,-0.776111 0.945444,-1.157111 0.606778,-0.381 1.340555,-0.381 0.903112,0 1.425223,0.649111 0.536222,0.649111 0.536222,1.778 0,1.594555 -0.691445,3.541889 0.719667,0.127 1.693334,0.127 z m -4.162778,-2.779889 q 0,1.382889 0.889,2.046111 0.550333,-1.580445 0.550333,-2.610556 0,-0.592666 -0.155222,-0.860777 -0.155222,-0.282223 -0.423333,-0.282223 -0.381,0 -0.620889,0.451556 -0.239889,0.437444 -0.239889,1.255889 z" />
        <path
           inkscape:connector-curvature="0"
           id="path3793"
           style="font-style:normal;font-variant:normal;font-weight:normal;font-stretch:normal;font-size:14.11111069px;font-family:Pacifico;-inkscape-font-specification:Pacifico;fill:#e83333;fill-opacity:1;stroke-width:0.26458332"
           d="m 77.996427,72.836173 q -0.874889,0 -1.397,-0.635 -0.522111,-0.635 -0.522111,-1.665111 0,-1.128889 0.522111,-2.130778 0.522111,-1.016 1.382889,-1.622778 0.874889,-0.620888 1.848556,-0.620888 0.310444,0 0.409222,0.127 0.112889,0.112888 0.183444,0.423333 0.296334,-0.05644 0.620889,-0.05644 0.691445,0 0.691445,0.493889 0,0.296334 -0.211667,1.411111 -0.324556,1.622778 -0.324556,2.257778 0,0.211667 0.09878,0.338667 0.112889,0.127 0.282222,0.127 0.268112,0 0.649112,-0.338667 0.381,-0.352778 1.030111,-1.128889 0.169333,-0.197555 0.381,-0.197555 0.183444,0 0.282222,0.169333 0.112889,0.169333 0.112889,0.465667 0,0.564444 -0.268111,0.874889 -0.578556,0.719666 -1.227667,1.213555 -0.649111,0.493889 -1.255889,0.493889 -0.465667,0 -0.860778,-0.310445 -0.381,-0.324555 -0.578555,-0.874888 -0.733778,1.185333 -1.848556,1.185333 z m 0.508,-1.425222 q 0.310445,0 0.592667,-0.366889 0.282222,-0.366889 0.409222,-0.973667 l 0.522111,-2.596444 q -0.592666,0.01411 -1.100666,0.451555 -0.493889,0.423334 -0.790223,1.128889 -0.296333,0.705556 -0.296333,1.495778 0,0.437444 0.169333,0.649111 0.183445,0.211667 0.493889,0.211667 z" />
        <path
           inkscape:connector-curvature="0"
           id="path3795"
           style="font-style:normal;font-variant:normal;font-weight:normal;font-stretch:normal;font-size:14.11111069px;font-family:Pacifico;-inkscape-font-specification:Pacifico;fill:#e83333;fill-opacity:1;stroke-width:0.26458332"
           d="m 88.251015,69.61884 q 0.183444,0 0.282222,0.169333 0.112889,0.169333 0.112889,0.465667 0,0.564444 -0.268111,0.874889 -0.606778,0.747888 -1.326444,1.227666 -0.705556,0.479778 -1.608667,0.479778 -1.241778,0 -1.848556,-1.128889 -0.592666,-1.128889 -0.592666,-2.921 0,-1.721555 0.437444,-3.922889 0.451556,-2.201333 1.312333,-3.781777 0.874889,-1.580445 2.074334,-1.580445 0.677333,0 1.058333,0.635 0.395111,0.620889 0.395111,1.792111 0,1.679223 -0.931333,3.894667 -0.931333,2.215444 -2.525889,4.388555 0.09878,0.578556 0.324556,0.832556 0.225777,0.239889 0.592666,0.239889 0.578556,0 1.016,-0.324556 0.437445,-0.338666 1.114778,-1.143 0.169333,-0.197555 0.381,-0.197555 z m -1.735667,-8.720667 q -0.324555,0 -0.733777,1.171222 -0.409223,1.171223 -0.719667,2.906889 -0.310445,1.735667 -0.338667,3.330222 1.001889,-1.651 1.594556,-3.302 0.592666,-1.665111 0.592666,-3.033888 0,-1.072445 -0.395111,-1.072445 z" />
        <path
           inkscape:connector-curvature="0"
           id="path3797"
           style="font-style:normal;font-variant:normal;font-weight:normal;font-stretch:normal;font-size:14.11111069px;font-family:Pacifico;-inkscape-font-specification:Pacifico;fill:#e83333;fill-opacity:1;stroke-width:0.26458332"
           d="m 90.130218,73.146617 q -0.733777,0 -1.128888,-0.338666 -0.381,-0.338667 -0.381,-0.762 0,-0.366889 0.268111,-0.635 0.268111,-0.268111 0.790222,-0.268111 0.183444,0 0.423333,0.04233 0.254,0.02822 0.381,0.04233 -0.01411,-0.366889 -0.169333,-0.691444 -0.141111,-0.324556 -0.366889,-0.620889 -0.225778,-0.310444 -0.423333,-0.536222 -0.437445,0.832555 -0.874889,1.382889 -0.423334,0.550333 -0.931334,1.044222 -0.254,0.254 -0.536222,0.254 -0.225778,0 -0.366889,-0.155222 -0.141111,-0.169334 -0.141111,-0.409223 0,-0.282222 0.197556,-0.522111 l 0.183444,-0.225777 q 0.776111,-0.959556 1.171222,-1.580445 0.239889,-0.409222 0.564445,-1.086555 0.324555,-0.691445 0.635,-1.425223 0.268111,-0.620888 1.114778,-0.620888 0.395111,0 0.550333,0.07055 0.155222,0.07056 0.155222,0.225778 0,0.08467 -0.05644,0.268111 -0.05644,0.183444 -0.155223,0.366889 -0.254,0.508 -0.254,0.860778 0,0.211666 0.141112,0.465666 0.155222,0.254 0.465666,0.635 0.451556,0.592667 0.677334,1.016 0.239888,0.409222 0.239888,0.903111 0,0.141111 -0.02822,0.395111 0.691445,-0.268111 1.622778,-1.425222 0.169333,-0.197555 0.381,-0.197555 0.183444,0 0.282222,0.169333 0.112889,0.169333 0.112889,0.465667 0,0.536222 -0.268111,0.874889 -0.705556,0.874888 -1.354667,1.199444 -0.635,0.310444 -1.580444,0.338667 -0.564445,0.479777 -1.340556,0.479777 z" />
        <path
           inkscape:connector-curvature="0"
           id="path3799"
           style="font-style:normal;font-variant:normal;font-weight:normal;font-stretch:normal;font-size:14.11111069px;font-family:Pacifico;-inkscape-font-specification:Pacifico;fill:#e83333;fill-opacity:1;stroke-width:0.26458332"
           d="m 101.37302,69.61884 q 0.18345,0 0.28223,0.169333 0.11289,0.169333 0.11289,0.465667 0,0.564444 -0.26812,0.874889 -0.64911,0.747888 -1.34055,1.227666 -0.677334,0.479778 -1.552223,0.479778 -0.719666,0 -1.086555,-0.409222 -0.366889,-0.423334 -0.366889,-1.213556 0,-0.395111 0.197555,-1.411111 0.183445,-0.889 0.183445,-1.227667 0,-0.225777 -0.155222,-0.225777 -0.183445,0 -0.522112,0.479777 -0.338666,0.465667 -0.677333,1.241778 -0.338667,0.776111 -0.550333,1.636889 -0.268111,1.128889 -1.326445,1.128889 -0.423333,0 -0.564444,-0.296333 -0.127,-0.310445 -0.127,-1.100667 0,-0.451556 0.01411,-0.719667 l 0.01411,-1.128889 q 0,-2.173111 0.437445,-4.529666 0.451555,-2.356556 1.312333,-3.951111 0.874889,-1.608667 2.088444,-1.608667 0.649111,0 1.044223,0.564445 0.409222,0.550333 0.409222,1.439333 0,1.425222 -0.832556,2.963333 -0.832555,1.524 -2.709333,3.570111 -0.04233,0.733778 -0.04233,1.509889 0.465666,-1.199444 1.030111,-1.947333 0.578555,-0.762 1.128889,-1.086556 0.564444,-0.324555 1.030111,-0.324555 0.917222,0 0.917222,0.917222 0,0.550333 -0.310445,1.989667 -0.268111,1.227666 -0.268111,1.622777 0,0.564445 0.409222,0.564445 0.282223,0 0.663223,-0.338667 0.395106,-0.352778 1.044216,-1.128889 0.16934,-0.197555 0.381,-0.197555 z m -4.190995,-8.720667 q -0.254,0 -0.564444,0.733778 -0.310445,0.719667 -0.606778,1.961444 -0.282222,1.227667 -0.465667,2.681111 0.874889,-1.030111 1.439333,-2.243666 0.578556,-1.213556 0.578556,-2.201333 0,-0.451556 -0.09878,-0.691445 -0.09878,-0.239889 -0.282222,-0.239889 z" />
        <path
           inkscape:connector-curvature="0"
           id="path3801"
           style="font-style:normal;font-variant:normal;font-weight:normal;font-stretch:normal;font-size:14.11111069px;font-family:Pacifico;-inkscape-font-specification:Pacifico;fill:#e83333;fill-opacity:1;stroke-width:0.26458332"
           d="m 103.24914,73.146617 q -0.73377,0 -1.12889,-0.338666 -0.381,-0.338667 -0.381,-0.762 0,-0.366889 0.26812,-0.635 0.26811,-0.268111 0.79022,-0.268111 0.18344,0 0.42333,0.04233 0.254,0.02822 0.381,0.04233 -0.0141,-0.366889 -0.16933,-0.691444 -0.14111,-0.324556 -0.36689,-0.620889 -0.22578,-0.310444 -0.42333,-0.536222 -0.43745,0.832555 -0.87489,1.382889 -0.42334,0.550333 -0.93134,1.044222 -0.254,0.254 -0.53622,0.254 -0.22578,0 -0.366888,-0.155222 -0.141111,-0.169334 -0.141111,-0.409223 0,-0.282222 0.197556,-0.522111 l 0.183443,-0.225777 q 0.77611,-0.959556 1.17122,-1.580445 0.254,-0.409222 0.508,-0.973666 0.26811,-0.564445 0.69145,-1.538112 0.26811,-0.620888 1.11478,-0.620888 0.39511,0 0.55033,0.07055 0.15522,0.07056 0.15522,0.225778 0,0.08467 -0.0564,0.268111 -0.0564,0.183444 -0.15523,0.366889 -0.254,0.508 -0.254,0.860778 0,0.211666 0.14112,0.465666 0.15522,0.254 0.46566,0.635 0.45156,0.592667 0.67734,1.016 0.23988,0.409222 0.23988,0.903111 0,0.592667 -0.28222,1.128889 -0.26811,0.522111 -0.762,0.846667 -0.49389,0.324555 -1.12889,0.324555 z" />
        <path
           inkscape:connector-curvature="0"
           id="path3803"
           style="font-style:normal;font-variant:normal;font-weight:normal;font-stretch:normal;font-size:14.11111069px;font-family:Pacifico;-inkscape-font-specification:Pacifico;fill:#e83333;fill-opacity:1;stroke-width:0.26458332"
           d="m 123.91001,69.61884 q 0.18345,0 0.28223,0.169333 0.11288,0.169333 0.11288,0.465667 0,0.550333 -0.26811,0.874889 -0.67733,0.818444 -1.36877,1.269999 -0.69145,0.437445 -1.63689,0.437445 -1.04423,0 -1.70745,-0.606778 -0.66322,-0.620889 -1.24178,-1.919111 -0.42333,-0.931333 -0.70555,-1.382889 -0.26811,-0.465666 -0.53622,-0.649111 -0.26811,-0.197555 -0.67734,-0.239889 l -0.15522,1.044222 q -0.29633,2.017889 -1.15711,2.906889 -0.84667,0.889 -2.34244,0.889 -0.97367,0 -1.73567,-0.465666 -0.74789,-0.479778 -1.04422,-1.213556 -0.0988,-0.254 -0.0988,-0.550333 0,-0.423334 0.19755,-0.733778 0.19756,-0.310444 0.508,-0.310444 0.18345,0 0.31045,0.09878 0.127,0.08467 0.23989,0.310445 0.43744,0.818444 0.762,1.143 0.33866,0.324555 0.83255,0.324555 0.56445,0 0.95956,-0.508 0.40922,-0.522111 0.57855,-1.594555 l 0.19756,-1.340556 h -0.22578 q -0.32455,0 -0.508,-0.183444 -0.18344,-0.183445 -0.18344,-0.508 0,-0.366889 0.18344,-0.578556 0.19756,-0.225777 0.47978,-0.225777 h 0.46567 q 0.0988,-0.691445 0.14111,-0.959556 l 0.43744,-3.175 q -0.36689,-0.04233 -0.69144,-0.04233 -1.19945,0 -1.82034,0.423333 -0.62088,0.409222 -0.62088,1.185333 0,0.352778 0.0706,0.578556 0.0847,0.211667 0.21167,0.479778 0.0564,0.112889 0.0564,0.254 0,0.310444 -0.29633,0.550333 -0.28222,0.225778 -0.635,0.225778 -0.45156,0 -0.66322,-0.395111 -0.42334,-0.747889 -0.42334,-1.608667 0,-0.889 0.47978,-1.622778 0.49389,-0.733777 1.48167,-1.171222 0.98778,-0.451555 2.44122,-0.451555 0.635,0 1.15711,0.07055 0.53622,0.07056 1.17122,0.268111 0.69145,0.211667 0.69145,0.790222 0,0.776112 -0.66322,0.776112 l -0.55034,3.795888 q 1.651,-0.169333 2.68111,-1.411111 1.04423,-1.255889 1.73567,-3.400777 0.127,-0.395112 0.42333,-0.606778 0.31045,-0.211667 0.77611,-0.211667 0.39512,0 0.60678,0.183445 0.22578,0.169333 0.22578,0.493888 0,0.09878 -0.0564,0.324556 -0.70556,2.328333 -2.01789,3.697111 -1.31234,1.368778 -2.86456,1.820333 0.53622,0.127 0.87489,0.381 0.35278,0.254 0.59267,0.635 0.23989,0.366889 0.55033,1.030111 0.43744,0.931334 0.81844,1.326445 0.381,0.381 0.889,0.381 0.45156,0 0.86078,-0.296334 0.40922,-0.310444 1.03011,-1.044222 0.16934,-0.197555 0.381,-0.197555 z" />
        <path
           inkscape:connector-curvature="0"
           id="path3805"
           style="font-style:normal;font-variant:normal;font-weight:normal;font-stretch:normal;font-size:14.11111069px;font-family:Pacifico;-inkscape-font-specification:Pacifico;fill:#e83333;fill-opacity:1;stroke-width:0.26458332"
           d="m 125.01773,65.258506 q -0.59266,0 -0.889,-0.268111 -0.29633,-0.282222 -0.29633,-0.776111 0,-0.493889 0.381,-0.818444 0.39511,-0.338667 0.97367,-0.338667 0.52211,0 0.84666,0.254 0.32456,0.254 0.32456,0.719667 0,0.564444 -0.36689,0.903111 -0.36689,0.324555 -0.97367,0.324555 z m -0.11289,7.577667 q -0.91722,0 -1.34055,-0.649111 -0.40922,-0.649111 -0.40922,-1.721556 0,-0.635 0.15522,-1.622777 0.16933,-1.001889 0.42333,-1.862667 0.127,-0.451556 0.33867,-0.620889 0.21167,-0.169333 0.67733,-0.169333 0.71967,0 0.71967,0.479778 0,0.352777 -0.26811,1.636888 -0.33867,1.552223 -0.33867,2.102556 0,0.423333 0.11289,0.649111 0.11289,0.225778 0.381,0.225778 0.254,0 0.635,-0.352778 0.381,-0.352778 1.016,-1.114778 0.16933,-0.197555 0.381,-0.197555 0.18344,0 0.28222,0.169333 0.11289,0.169333 0.11289,0.465667 0,0.564444 -0.26811,0.874889 -1.397,1.707444 -2.61056,1.707444 z" />
        <path
           inkscape:connector-curvature="0"
           id="path3807"
           style="font-style:normal;font-variant:normal;font-weight:normal;font-stretch:normal;font-size:14.11111069px;font-family:Pacifico;-inkscape-font-specification:Pacifico;fill:#e83333;fill-opacity:1;stroke-width:0.26458332"
           d="m 132.93539,69.61884 q 0.18344,0 0.28222,0.169333 0.11289,0.169333 0.11289,0.465667 0,0.564444 -0.26811,0.874889 -0.60678,0.747888 -1.32645,1.227666 -0.71966,0.479778 -1.651,0.479778 -2.87866,0 -2.87866,-4.049889 0,-0.620889 0.0423,-1.255889 h -0.55033 q -0.42334,0 -0.57856,-0.155222 -0.14111,-0.155222 -0.14111,-0.493889 0,-0.790222 0.635,-0.790222 h 0.80433 q 0.23989,-1.552222 0.73378,-2.836333 0.49389,-1.284111 1.18534,-2.046111 0.70555,-0.762 1.50988,-0.762 0.59267,0 0.93134,0.522111 0.33866,0.522111 0.33866,1.312333 0,2.187222 -1.83444,3.81 h 1.58044 q 0.22578,0 0.32456,0.09878 0.0988,0.09878 0.0988,0.366889 0,0.973666 -1.59456,0.973666 h -1.72155 q -0.0282,0.705556 -0.0282,1.100667 0,1.467555 0.33867,2.060222 0.35278,0.592667 1.10067,0.592667 0.60678,0 1.07244,-0.366889 0.46567,-0.366889 1.10067,-1.100667 0.16933,-0.197555 0.381,-0.197555 z m -2.46945,-7.817556 q -0.21166,0 -0.47977,0.536223 -0.254,0.522111 -0.49389,1.467555 -0.22578,0.931333 -0.381,2.074333 0.83255,-0.719666 1.24178,-1.608666 0.42333,-0.903111 0.42333,-1.636889 0,-0.832556 -0.31045,-0.832556 z" />
        <path
           inkscape:connector-curvature="0"
           id="path3809"
           style="font-style:normal;font-variant:normal;font-weight:normal;font-stretch:normal;font-size:14.11111069px;font-family:Pacifico;-inkscape-font-specification:Pacifico;fill:#e83333;fill-opacity:1;stroke-width:0.26458332"
           d="m 134.87677,72.836173 q -1.38288,0 -2.159,-0.776111 -0.762,-0.790222 -0.762,-2.074333 0,-1.143 0.45156,-2.003778 0.45156,-0.860778 1.17122,-1.326445 0.71967,-0.465666 1.50989,-0.465666 0.77611,0 1.19945,0.465666 0.43744,0.451556 0.43744,1.171223 0,0.592666 -0.26811,1.001888 -0.254,0.409223 -0.67733,0.409223 -0.26812,0 -0.43745,-0.127 -0.15522,-0.127 -0.15522,-0.352778 0,-0.09878 0.0282,-0.225778 0.0282,-0.127 0.0423,-0.183444 0.0706,-0.211667 0.0706,-0.395111 0,-0.183445 -0.0988,-0.282223 -0.0847,-0.09878 -0.254,-0.09878 -0.32455,0 -0.60678,0.296333 -0.28222,0.282222 -0.45155,0.776111 -0.16933,0.493889 -0.16933,1.086556 0,1.636888 1.42522,1.636888 0.57855,0 1.24178,-0.381 0.67733,-0.395111 1.32644,-1.171222 0.16933,-0.197555 0.381,-0.197555 0.18344,0 0.28222,0.169333 0.11289,0.169333 0.11289,0.465667 0,0.536222 -0.26811,0.874889 -0.66322,0.818444 -1.59456,1.269999 -0.91722,0.437445 -1.778,0.437445 z" />
        <path
           inkscape:connector-curvature="0"
           id="path3811"
           style="font-style:normal;font-variant:normal;font-weight:normal;font-stretch:normal;font-size:14.11111069px;font-family:Pacifico;-inkscape-font-specification:Pacifico;fill:#e83333;fill-opacity:1;stroke-width:0.26458332"
           d="m 145.19464,69.61884 q 0.18344,0 0.28222,0.169333 0.11289,0.169333 0.11289,0.465667 0,0.564444 -0.26811,0.874889 -0.64911,0.747888 -1.34056,1.227666 -0.67733,0.479778 -1.55222,0.479778 -0.71967,0 -1.08656,-0.409222 -0.36688,-0.423334 -0.36688,-1.213556 0,-0.395111 0.19755,-1.411111 0.18345,-0.889 0.18345,-1.227667 0,-0.225777 -0.15523,-0.225777 -0.18344,0 -0.52211,0.479777 -0.33866,0.465667 -0.67733,1.241778 -0.33867,0.776111 -0.55033,1.636889 -0.26811,1.128889 -1.32645,1.128889 -0.42333,0 -0.56444,-0.296333 -0.127,-0.310445 -0.127,-1.100667 0,-0.451556 0.0141,-0.719667 l 0.0141,-1.128889 q 0,-2.173111 0.43744,-4.529666 0.45156,-2.356556 1.31234,-3.951111 0.87489,-1.608667 2.08844,-1.608667 0.64911,0 1.04422,0.564445 0.40923,0.550333 0.40923,1.439333 0,1.425222 -0.83256,2.963333 -0.83256,1.524 -2.70933,3.570111 -0.0423,0.733778 -0.0423,1.509889 0.46567,-1.199444 1.03011,-1.947333 0.57856,-0.762 1.12889,-1.086556 0.56445,-0.324555 1.03011,-0.324555 0.91723,0 0.91723,0.917222 0,0.550333 -0.31045,1.989667 -0.26811,1.227666 -0.26811,1.622777 0,0.564445 0.40922,0.564445 0.28223,0 0.66323,-0.338667 0.39511,-0.352778 1.04422,-1.128889 0.16933,-0.197555 0.381,-0.197555 z m -4.191,-8.720667 q -0.254,0 -0.56445,0.733778 -0.31044,0.719667 -0.60677,1.961444 -0.28223,1.227667 -0.46567,2.681111 0.87489,-1.030111 1.43933,-2.243666 0.57856,-1.213556 0.57856,-2.201333 0,-0.451556 -0.0988,-0.691445 -0.0988,-0.239889 -0.28222,-0.239889 z" />
        <path
           inkscape:connector-curvature="0"
           id="path3813"
           style="font-style:normal;font-variant:normal;font-weight:normal;font-stretch:normal;font-size:14.11111069px;font-family:Pacifico;-inkscape-font-specification:Pacifico;fill:#e83333;fill-opacity:1;stroke-width:0.26458332"
           d="m 150.73964,69.61884 q 0.18345,0 0.28222,0.169333 0.11289,0.169333 0.11289,0.465667 0,0.564444 -0.26811,0.874889 -0.52211,0.635 -1.48166,1.171222 -0.94545,0.536222 -2.032,0.536222 -1.48167,0 -2.30012,-0.804333 -0.81844,-0.804334 -0.81844,-2.201334 0,-0.973666 0.40922,-1.806222 0.40922,-0.846666 1.12889,-1.340555 0.73378,-0.493889 1.651,-0.493889 0.81845,0 1.31233,0.493889 0.49389,0.479777 0.49389,1.312333 0,0.973667 -0.70555,1.679222 -0.69145,0.691445 -2.35656,1.100667 0.35278,0.649111 1.34056,0.649111 0.635,0 1.43933,-0.437445 0.81845,-0.451555 1.41111,-1.171222 0.16934,-0.197555 0.381,-0.197555 z m -3.556,-2.046111 q -0.52211,0 -0.889,0.606777 -0.35278,0.606778 -0.35278,1.467556 v 0.02822 q 0.83256,-0.197555 1.31234,-0.592667 0.47978,-0.395111 0.47978,-0.917222 0,-0.268111 -0.15523,-0.423333 -0.14111,-0.169333 -0.39511,-0.169333 z" />
        <path
           inkscape:connector-curvature="0"
           id="path3815"
           style="font-style:normal;font-variant:normal;font-weight:normal;font-stretch:normal;font-size:14.11111069px;font-family:Pacifico;-inkscape-font-specification:Pacifico;fill:#e83333;fill-opacity:1;stroke-width:0.26458332"
           d="m 150.98769,72.836173 q -0.53622,0 -0.762,-0.564445 -0.21166,-0.564444 -0.21166,-1.806222 0,-1.834444 0.52211,-3.485444 0.127,-0.409222 0.40922,-0.592667 0.29633,-0.197555 0.81844,-0.197555 0.28223,0 0.39512,0.07055 0.11288,0.07056 0.11288,0.268111 0,0.225778 -0.21166,1.016 -0.14111,0.564445 -0.22578,0.987778 -0.0847,0.423333 -0.14111,1.044222 0.46567,-1.213555 1.04422,-1.975555 0.57856,-0.762 1.12889,-1.086556 0.56444,-0.324555 1.03011,-0.324555 0.45156,0 0.67733,0.239889 0.23989,0.225777 0.23989,0.677333 0,0.366889 -0.15522,1.382889 -0.14111,0.860778 -0.22578,1.636889 -0.0847,0.762 -0.0847,1.707444 0,0.536222 -0.22578,0.776111 -0.21167,0.225778 -0.70556,0.225778 -0.46566,0 -0.67733,-0.239889 -0.21167,-0.239889 -0.21167,-0.719667 0,-0.564444 0.19756,-1.862666 0.16933,-1.128889 0.16933,-1.439334 0,-0.225777 -0.15522,-0.225777 -0.18344,0 -0.52211,0.479777 -0.32456,0.465667 -0.67733,1.241778 -0.33867,0.776111 -0.55034,1.636889 -0.15522,0.663222 -0.36689,0.903111 -0.19755,0.225778 -0.635,0.225778 z" />
      </g>
      <g
         id="text3726-8-7"
         style="font-style:normal;font-variant:normal;font-weight:normal;font-stretch:normal;font-size:14.11111069px;line-height:1.25;font-family:Pacifico;-inkscape-font-specification:Pacifico;letter-spacing:0px;word-spacing:0px;fill:#e83333;fill-opacity:1;stroke:none;stroke-width:0.26458332"
         aria-label="'">
        <path
           inkscape:connector-curvature="0"
           id="path3818"
           style="font-style:normal;font-variant:normal;font-weight:normal;font-stretch:normal;font-size:14.11111069px;font-family:Pacifico;-inkscape-font-specification:Pacifico;fill:#e83333;fill-opacity:1;stroke-width:0.26458332"
           d="m 101.5565,65.792466 q -0.35278,0 -0.59267,-0.183444 -0.22577,-0.197556 -0.18344,-0.649112 l 0.28222,-2.695222 q 0.14111,-1.298222 1.22767,-1.298222 0.93133,0 0.93133,0.874889 0,0.197556 -0.0705,0.522111 l -0.56445,2.596444 q -0.0988,0.451556 -0.381,0.649112 -0.28222,0.183444 -0.64911,0.183444 z" />
      </g>
      <g
         id="text3748-4"
         style="font-style:normal;font-variant:normal;font-weight:normal;font-stretch:normal;font-size:5.99722242px;line-height:1.25;font-family:Raleway;-inkscape-font-specification:Raleway;letter-spacing:0px;word-spacing:0px;fill:#666666;fill-opacity:1;stroke:none;stroke-width:0.26458332"
         aria-label="Our family. Our food.">
        <path
           inkscape:connector-curvature="0"
           id="path3821"
           style="font-style:normal;font-variant:normal;font-weight:normal;font-stretch:normal;font-size:5.99722242px;font-family:Raleway;-inkscape-font-specification:Raleway;fill:#666666;stroke-width:0.26458332"
           d="m 83.513836,83.756915 q -0.443795,0 -0.815623,-0.179917 -0.36583,-0.185914 -0.629708,-0.485775 -0.263878,-0.305858 -0.407811,-0.695678 -0.143933,-0.389819 -0.143933,-0.79763 0,-0.425803 0.14993,-0.815622 0.155928,-0.38982 0.425803,-0.689681 0.269875,-0.299861 0.635706,-0.473781 0.36583,-0.179916 0.791633,-0.179916 0.443794,0 0.809625,0.191911 0.371828,0.185914 0.629708,0.491772 0.263878,0.305858 0.407811,0.695678 0.143934,0.383822 0.143934,0.785636 0,0.425803 -0.155928,0.815622 -0.149931,0.38982 -0.419806,0.689681 -0.263877,0.293864 -0.629708,0.47378 -0.36583,0.17392 -0.791633,0.17392 z m -1.57727,-2.159 q 0,0.347839 0.113947,0.671689 0.113948,0.317852 0.32385,0.569736 0.209903,0.245886 0.49777,0.395816 0.287867,0.143934 0.641703,0.143934 0.359833,0 0.653697,-0.155928 0.293864,-0.155928 0.497769,-0.407811 0.203906,-0.251883 0.311856,-0.569736 0.113947,-0.317853 0.113947,-0.6477 0,-0.347839 -0.119944,-0.665692 -0.113947,-0.32385 -0.32385,-0.569736 -0.209903,-0.245886 -0.49777,-0.38982 -0.287866,-0.14993 -0.635705,-0.14993 -0.359834,0 -0.653698,0.155928 -0.293863,0.14993 -0.497769,0.401814 -0.203906,0.251883 -0.317853,0.569736 -0.10795,0.317853 -0.10795,0.6477 z" />
        <path
           inkscape:connector-curvature="0"
           id="path3823"
           style="font-style:normal;font-variant:normal;font-weight:normal;font-stretch:normal;font-size:5.99722242px;font-family:Raleway;-inkscape-font-specification:Raleway;fill:#666666;stroke-width:0.26458332"
           d="m 87.201846,83.786901 q -0.509763,0 -0.761647,-0.335845 -0.245886,-0.341841 -0.245886,-1.01353 v -1.83515 h 0.407811 v 1.763183 q 0,1.061509 0.725664,1.061509 0.179917,0 0.353836,-0.05997 0.17392,-0.05997 0.317853,-0.173919 0.149931,-0.113947 0.263878,-0.269875 0.119944,-0.155928 0.191911,-0.353836 v -1.967089 h 0.407811 v 2.596797 q 0,0.167922 0.143933,0.167922 v 0.359834 q -0.07197,0.01199 -0.119944,0.01199 -0.04198,0 -0.05997,0 -0.143934,-0.006 -0.233892,-0.101953 -0.08996,-0.09596 -0.08996,-0.25788 v -0.359834 q -0.203906,0.365831 -0.557742,0.569737 -0.347839,0.197908 -0.743656,0.197908 z" />
        <path
           inkscape:connector-curvature="0"
           id="path3825"
           style="font-style:normal;font-variant:normal;font-weight:normal;font-stretch:normal;font-size:5.99722242px;font-family:Raleway;-inkscape-font-specification:Raleway;fill:#666666;stroke-width:0.26458332"
           d="m 91.344428,80.962209 q -0.413808,0.01199 -0.719667,0.227895 -0.305858,0.2159 -0.4318,0.593725 v 1.9431 H 89.78515 v -3.124553 h 0.383823 v 0.749653 q 0.173919,-0.359834 0.467783,-0.563739 0.293864,-0.203906 0.629708,-0.203906 0.04798,0 0.07796,0.006 z" />
        <path
           inkscape:connector-curvature="0"
           id="path3827"
           style="font-style:normal;font-variant:normal;font-weight:normal;font-stretch:normal;font-size:5.99722242px;font-family:Raleway;-inkscape-font-specification:Raleway;fill:#666666;stroke-width:0.26458332"
           d="m 93.437365,83.726929 v -2.800703 h -0.4318 v -0.32385 h 0.4318 v -0.08396 q 0,-0.575734 0.245886,-0.899584 0.245886,-0.329847 0.671689,-0.329847 0.185914,0 0.359833,0.05397 0.17392,0.05398 0.299861,0.143933 l -0.125941,0.293864 q -0.08396,-0.06597 -0.209903,-0.101952 -0.119944,-0.03598 -0.245886,-0.03598 -0.287867,0 -0.437797,0.221897 -0.149931,0.221898 -0.149931,0.641703 v 0.09596 h 0.8636 v 0.32385 h -0.8636 v 2.800703 z" />
        <path
           inkscape:connector-curvature="0"
           id="path3829"
           style="font-style:normal;font-variant:normal;font-weight:normal;font-stretch:normal;font-size:5.99722242px;font-family:Raleway;-inkscape-font-specification:Raleway;fill:#666666;stroke-width:0.26458332"
           d="m 96.005769,83.786901 q -0.221897,0 -0.413809,-0.07197 -0.185914,-0.07796 -0.329847,-0.209903 -0.137936,-0.131938 -0.2159,-0.305858 -0.07796,-0.179917 -0.07796,-0.383822 0,-0.203906 0.09596,-0.377825 0.09596,-0.17392 0.269875,-0.299861 0.173919,-0.125942 0.413808,-0.191911 0.239889,-0.07197 0.527756,-0.07197 0.239889,0 0.485775,0.04198 0.245886,0.04198 0.437797,0.119944 v -0.281869 q 0,-0.413809 -0.233892,-0.653698 -0.233891,-0.245886 -0.6477,-0.245886 -0.239889,0 -0.491772,0.09596 -0.251883,0.09596 -0.509764,0.275872 l -0.143933,-0.269875 q 0.605719,-0.407811 1.175455,-0.407811 0.587728,0 0.923573,0.329847 0.335844,0.329847 0.335844,0.911578 v 1.409347 q 0,0.167922 0.149931,0.167922 v 0.359834 q -0.101953,0.01799 -0.155928,0.01799 -0.155928,0 -0.245886,-0.07796 -0.08396,-0.07796 -0.08996,-0.2159 l -0.01199,-0.245886 q -0.2159,0.28187 -0.545747,0.4318 -0.32385,0.149931 -0.701675,0.149931 z m 0.09596,-0.311856 q 0.317853,0 0.581731,-0.119944 0.269875,-0.119945 0.407811,-0.317853 0.05397,-0.05398 0.07796,-0.113947 0.02999,-0.06597 0.02999,-0.119945 v -0.509763 q -0.203906,-0.07796 -0.425803,-0.119945 -0.2159,-0.04198 -0.443794,-0.04198 -0.4318,0 -0.701675,0.179916 -0.269875,0.179917 -0.269875,0.473781 0,0.143933 0.05397,0.269875 0.05997,0.125941 0.155928,0.221897 0.101952,0.08996 0.239888,0.143933 0.137937,0.05397 0.293864,0.05397 z" />
        <path
           inkscape:connector-curvature="0"
           id="path3831"
           style="font-style:normal;font-variant:normal;font-weight:normal;font-stretch:normal;font-size:5.99722242px;font-family:Raleway;-inkscape-font-specification:Raleway;fill:#666666;stroke-width:0.26458332"
           d="m 103.136,83.726929 h -0.40781 v -1.745192 q 0,-0.545747 -0.17392,-0.803628 -0.17392,-0.25788 -0.51576,-0.25788 -0.17992,0 -0.34185,0.06597 -0.15592,0.06597 -0.29386,0.185914 -0.13194,0.119944 -0.23389,0.287867 -0.10195,0.161925 -0.15593,0.359833 v 1.907117 h -0.40781 v -1.745192 q 0,-0.557742 -0.16792,-0.809625 -0.16792,-0.251883 -0.515763,-0.251883 -0.353837,0 -0.629709,0.245886 -0.275872,0.245886 -0.395817,0.6477 V 83.72693 H 98.48815 v -3.124553 h 0.371828 v 0.707672 q 0.191911,-0.359833 0.503767,-0.557742 0.311855,-0.203905 0.689685,-0.203905 0.39581,0 0.6297,0.221897 0.23989,0.221897 0.29387,0.581731 0.43779,-0.803628 1.20544,-0.803628 0.26388,0 0.44379,0.09596 0.18592,0.09596 0.29387,0.275873 0.11394,0.173919 0.16192,0.425802 0.054,0.245887 0.054,0.551745 z" />
        <path
           inkscape:connector-curvature="0"
           id="path3833"
           style="font-style:normal;font-variant:normal;font-weight:normal;font-stretch:normal;font-size:5.99722242px;font-family:Raleway;-inkscape-font-specification:Raleway;fill:#666666;stroke-width:0.26458332"
           d="m 104.00513,83.726929 v -3.124553 h 0.40781 v 3.124553 z m 0,-3.77825 v -0.599723 h 0.40781 v 0.599723 z" />
        <path
           inkscape:connector-curvature="0"
           id="path3835"
           style="font-style:normal;font-variant:normal;font-weight:normal;font-stretch:normal;font-size:5.99722242px;font-family:Raleway;-inkscape-font-specification:Raleway;fill:#666666;stroke-width:0.26458332"
           d="m 105.33501,79.348956 h 0.40781 v 3.6703 q 0,0.17392 0.096,0.275873 0.096,0.09596 0.26987,0.09596 0.066,0 0.15593,-0.01799 0.09,-0.01799 0.16792,-0.04798 l 0.072,0.329847 q -0.11395,0.04798 -0.28187,0.07796 -0.16193,0.02999 -0.28187,0.02999 -0.28187,0 -0.44379,-0.155928 -0.16193,-0.161925 -0.16193,-0.449791 z" />
        <path
           inkscape:connector-curvature="0"
           id="path3837"
           style="font-style:normal;font-variant:normal;font-weight:normal;font-stretch:normal;font-size:5.99722242px;font-family:Raleway;-inkscape-font-specification:Raleway;fill:#666666;stroke-width:0.26458332"
           d="m 107.05481,84.686484 q 0.048,0.006 0.09,0.006 0.048,0.006 0.09,0.006 0.10795,0 0.16793,-0.02999 0.066,-0.02999 0.12594,-0.131939 0.06,-0.101953 0.13194,-0.293864 0.078,-0.191911 0.2159,-0.515761 l -1.36137,-3.124553 h 0.4198 l 1.15747,2.746728 1.0735,-2.746728 h 0.38982 l -1.61925,4.030133 q -0.066,0.17392 -0.2219,0.299861 -0.14993,0.131939 -0.41381,0.131939 -0.06,0 -0.11394,-0.006 -0.054,0 -0.13194,-0.01199 z" />
        <path
           inkscape:connector-curvature="0"
           id="path3839"
           style="font-style:normal;font-variant:normal;font-weight:normal;font-stretch:normal;font-size:5.99722242px;font-family:Raleway;-inkscape-font-specification:Raleway;fill:#666666;stroke-width:0.26458332"
           d="m 109.77839,83.726929 v -0.587728 h 0.35384 v 0.587728 z" />
        <path
           inkscape:connector-curvature="0"
           id="path3841"
           style="font-style:normal;font-variant:normal;font-weight:normal;font-stretch:normal;font-size:5.99722242px;font-family:Raleway;-inkscape-font-specification:Raleway;fill:#666666;stroke-width:0.26458332"
           d="m 114.30817,83.756915 q -0.4438,0 -0.81563,-0.179917 -0.36583,-0.185914 -0.6297,-0.485775 -0.26388,-0.305858 -0.40782,-0.695678 -0.14393,-0.389819 -0.14393,-0.79763 0,-0.425803 0.14993,-0.815622 0.15593,-0.38982 0.4258,-0.689681 0.26988,-0.299861 0.63571,-0.473781 0.36583,-0.179916 0.79163,-0.179916 0.4438,0 0.80963,0.191911 0.37183,0.185914 0.62971,0.491772 0.26387,0.305858 0.40781,0.695678 0.14393,0.383822 0.14393,0.785636 0,0.425803 -0.15593,0.815622 -0.14993,0.38982 -0.4198,0.689681 -0.26388,0.293864 -0.62971,0.47378 -0.36583,0.17392 -0.79163,0.17392 z m -1.57727,-2.159 q 0,0.347839 0.11394,0.671689 0.11395,0.317852 0.32385,0.569736 0.20991,0.245886 0.49777,0.395816 0.28787,0.143934 0.64171,0.143934 0.35983,0 0.65369,-0.155928 0.29387,-0.155928 0.49777,-0.407811 0.20391,-0.251883 0.31186,-0.569736 0.11395,-0.317853 0.11395,-0.6477 0,-0.347839 -0.11995,-0.665692 -0.11395,-0.32385 -0.32385,-0.569736 -0.2099,-0.245886 -0.49777,-0.38982 -0.28786,-0.14993 -0.6357,-0.14993 -0.35984,0 -0.6537,0.155928 -0.29386,0.14993 -0.49777,0.401814 -0.20391,0.251883 -0.31785,0.569736 -0.10795,0.317853 -0.10795,0.6477 z" />
        <path
           inkscape:connector-curvature="0"
           id="path3843"
           style="font-style:normal;font-variant:normal;font-weight:normal;font-stretch:normal;font-size:5.99722242px;font-family:Raleway;-inkscape-font-specification:Raleway;fill:#666666;stroke-width:0.26458332"
           d="m 117.99618,83.786901 q -0.50976,0 -0.76165,-0.335845 -0.24588,-0.341841 -0.24588,-1.01353 v -1.83515 h 0.40781 v 1.763183 q 0,1.061509 0.72566,1.061509 0.17992,0 0.35384,-0.05997 0.17392,-0.05997 0.31785,-0.173919 0.14993,-0.113947 0.26388,-0.269875 0.11994,-0.155928 0.19191,-0.353836 v -1.967089 h 0.40781 v 2.596797 q 0,0.167922 0.14393,0.167922 v 0.359834 q -0.072,0.01199 -0.11994,0.01199 -0.042,0 -0.06,0 -0.14394,-0.006 -0.2339,-0.101953 -0.09,-0.09596 -0.09,-0.25788 v -0.359834 q -0.20391,0.365831 -0.55775,0.569737 -0.34783,0.197908 -0.74365,0.197908 z" />
        <path
           inkscape:connector-curvature="0"
           id="path3845"
           style="font-style:normal;font-variant:normal;font-weight:normal;font-stretch:normal;font-size:5.99722242px;font-family:Raleway;-inkscape-font-specification:Raleway;fill:#666666;stroke-width:0.26458332"
           d="m 122.13876,80.962209 q -0.41381,0.01199 -0.71967,0.227895 -0.30586,0.2159 -0.4318,0.593725 v 1.9431 h -0.40781 v -3.124553 h 0.38382 v 0.749653 q 0.17392,-0.359834 0.46779,-0.563739 0.29386,-0.203906 0.6297,-0.203906 0.048,0 0.078,0.006 z" />
        <path
           inkscape:connector-curvature="0"
           id="path3847"
           style="font-style:normal;font-variant:normal;font-weight:normal;font-stretch:normal;font-size:5.99722242px;font-family:Raleway;-inkscape-font-specification:Raleway;fill:#666666;stroke-width:0.26458332"
           d="m 124.2317,83.726929 v -2.800703 h -0.4318 v -0.32385 h 0.4318 v -0.08396 q 0,-0.575734 0.24588,-0.899584 0.24589,-0.329847 0.67169,-0.329847 0.18591,0 0.35983,0.05397 0.17392,0.05398 0.29987,0.143933 l -0.12595,0.293864 q -0.084,-0.06597 -0.2099,-0.101952 -0.11994,-0.03598 -0.24589,-0.03598 -0.28786,0 -0.43779,0.221897 -0.14993,0.221898 -0.14993,0.641703 v 0.09596 h 0.8636 v 0.32385 h -0.8636 v 2.800703 z" />
        <path
           inkscape:connector-curvature="0"
           id="path3849"
           style="font-style:normal;font-variant:normal;font-weight:normal;font-stretch:normal;font-size:5.99722242px;font-family:Raleway;-inkscape-font-specification:Raleway;fill:#666666;stroke-width:0.26458332"
           d="m 127.24043,83.786901 q -0.34185,0 -0.62371,-0.125942 -0.28187,-0.131939 -0.49178,-0.353836 -0.2039,-0.221897 -0.31785,-0.515761 -0.11395,-0.293864 -0.11395,-0.617714 0,-0.329847 0.11395,-0.623711 0.11994,-0.293864 0.32385,-0.515761 0.2099,-0.221897 0.49177,-0.353836 0.28187,-0.131939 0.61772,-0.131939 0.33584,0 0.61771,0.131939 0.28787,0.131939 0.49177,0.353836 0.20991,0.221897 0.32385,0.515761 0.11995,0.293864 0.11995,0.623711 0,0.32385 -0.11395,0.617714 -0.11395,0.293864 -0.32385,0.515761 -0.20391,0.221897 -0.49177,0.353836 -0.28187,0.125942 -0.62371,0.125942 z m -1.13348,-1.607256 q 0,0.263878 0.09,0.491773 0.09,0.221897 0.23989,0.395816 0.15593,0.167922 0.35983,0.263878 0.2099,0.09596 0.4438,0.09596 0.23389,0 0.43779,-0.09596 0.20991,-0.101953 0.36583,-0.269875 0.15593,-0.173919 0.24589,-0.401814 0.09,-0.227894 0.09,-0.491772 0,-0.257881 -0.09,-0.485775 -0.09,-0.233892 -0.24589,-0.401814 -0.15592,-0.173919 -0.36583,-0.269875 -0.2039,-0.101953 -0.43779,-0.101953 -0.2339,0 -0.4378,0.101953 -0.20391,0.09596 -0.35983,0.269875 -0.15593,0.173919 -0.24589,0.407811 -0.09,0.227895 -0.09,0.491772 z" />
        <path
           inkscape:connector-curvature="0"
           id="path3851"
           style="font-style:normal;font-variant:normal;font-weight:normal;font-stretch:normal;font-size:5.99722242px;font-family:Raleway;-inkscape-font-specification:Raleway;fill:#666666;stroke-width:0.26458332"
           d="m 130.81299,83.786901 q -0.34184,0 -0.62371,-0.125942 -0.28187,-0.131939 -0.49177,-0.353836 -0.20391,-0.221897 -0.31785,-0.515761 -0.11395,-0.293864 -0.11395,-0.617714 0,-0.329847 0.11395,-0.623711 0.11994,-0.293864 0.32385,-0.515761 0.2099,-0.221897 0.49177,-0.353836 0.28187,-0.131939 0.61771,-0.131939 0.33585,0 0.61772,0.131939 0.28786,0.131939 0.49177,0.353836 0.2099,0.221897 0.32385,0.515761 0.11994,0.293864 0.11994,0.623711 0,0.32385 -0.11394,0.617714 -0.11395,0.293864 -0.32385,0.515761 -0.20391,0.221897 -0.49178,0.353836 -0.28186,0.125942 -0.62371,0.125942 z m -1.13347,-1.607256 q 0,0.263878 0.09,0.491773 0.09,0.221897 0.23989,0.395816 0.15592,0.167922 0.35983,0.263878 0.2099,0.09596 0.44379,0.09596 0.2339,0 0.4378,-0.09596 0.2099,-0.101953 0.36583,-0.269875 0.15593,-0.173919 0.24589,-0.401814 0.09,-0.227894 0.09,-0.491772 0,-0.257881 -0.09,-0.485775 -0.09,-0.233892 -0.24589,-0.401814 -0.15593,-0.173919 -0.36583,-0.269875 -0.2039,-0.101953 -0.4378,-0.101953 -0.23389,0 -0.43779,0.101953 -0.20391,0.09596 -0.35984,0.269875 -0.15592,0.173919 -0.24588,0.407811 -0.09,0.227895 -0.09,0.491772 z" />
        <path
           inkscape:connector-curvature="0"
           id="path3853"
           style="font-style:normal;font-variant:normal;font-weight:normal;font-stretch:normal;font-size:5.99722242px;font-family:Raleway;-inkscape-font-specification:Raleway;fill:#666666;stroke-width:0.26458332"
           d="m 134.33758,83.786901 q -0.32385,0 -0.59972,-0.131939 -0.27588,-0.137936 -0.47378,-0.359833 -0.19791,-0.221898 -0.31186,-0.509764 -0.10795,-0.293864 -0.10795,-0.611717 0,-0.329847 0.10795,-0.623711 0.10795,-0.299861 0.29386,-0.521758 0.19192,-0.221898 0.4498,-0.347839 0.26387,-0.131939 0.57573,-0.131939 0.39582,0 0.70167,0.209903 0.30586,0.203905 0.47978,0.497769 v -1.907117 h 0.40781 v 3.850217 q 0,0.167922 0.14394,0.167922 v 0.359834 q -0.09,0.01799 -0.14394,0.01799 -0.14393,0 -0.25188,-0.08996 -0.10795,-0.09596 -0.10795,-0.227894 v -0.305859 q -0.18591,0.305859 -0.50377,0.485775 -0.31785,0.179917 -0.65969,0.179917 z m 0.09,-0.359833 q 0.14993,0 0.31785,-0.05997 0.17392,-0.05997 0.32385,-0.161925 0.14993,-0.10795 0.25188,-0.245886 0.10795,-0.143933 0.13194,-0.305858 v -0.965553 q -0.06,-0.161925 -0.17392,-0.299861 -0.11394,-0.143933 -0.26388,-0.251883 -0.14393,-0.10795 -0.31185,-0.167923 -0.16792,-0.05997 -0.32985,-0.05997 -0.25188,0 -0.45579,0.10795 -0.2039,0.10795 -0.35383,0.287867 -0.14394,0.173919 -0.2219,0.401814 -0.078,0.227894 -0.078,0.467783 0,0.251883 0.0899,0.479778 0.09,0.227894 0.24589,0.401814 0.15593,0.167922 0.36583,0.269875 0.2159,0.101953 0.46179,0.101953 z" />
        <path
           inkscape:connector-curvature="0"
           id="path3855"
           style="font-style:normal;font-variant:normal;font-weight:normal;font-stretch:normal;font-size:5.99722242px;font-family:Raleway;-inkscape-font-specification:Raleway;fill:#666666;stroke-width:0.26458332"
           d="m 136.71904,83.726929 v -0.587728 h 0.35384 v 0.587728 z" />
      </g>
    </g>
  </g>
</svg>
