<?xml version="1.0" encoding="utf-8"?>
<!-- Generator: Adobe Illustrator 25.0.0, SVG Export Plug-In . SVG Version: 6.00 Build 0)  -->
<svg version="1.1"
	 id="svg3989" inkscape:version="0.92.3 (2405546, 2018-03-11)" sodipodi:docname="logo.svg" xmlns:cc="http://creativecommons.org/ns#" xmlns:dc="http://purl.org/dc/elements/1.1/" xmlns:inkscape="http://www.inkscape.org/namespaces/inkscape" xmlns:rdf="http://www.w3.org/1999/02/22-rdf-syntax-ns#" xmlns:sodipodi="http://sodipodi.sourceforge.net/DTD/sodipodi-0.dtd" xmlns:svg="http://www.w3.org/2000/svg"
	 xmlns="http://www.w3.org/2000/svg" xmlns:xlink="http://www.w3.org/1999/xlink" x="0px" y="0px" viewBox="0 0 275.4 44.1"
	 style="enable-background:new 0 0 275.4 44.1;" xml:space="preserve">
<style type="text/css">
	.st0{fill:#E83333;}
</style>
<sodipodi:namedview  bordercolor="#666666" borderopacity="1.0" fit-margin-bottom="1" fit-margin-left="1" fit-margin-right="1" fit-margin-top="1" id="base" inkscape:current-layer="layer1" inkscape:cx="90.520448" inkscape:cy="6.4477995" inkscape:document-units="mm" inkscape:pageopacity="0.0" inkscape:pageshadow="2" inkscape:window-height="1017" inkscape:window-maximized="1" inkscape:window-width="1920" inkscape:window-x="-8" inkscape:window-y="-8" inkscape:zoom="1.979899" pagecolor="#ffffff" showgrid="false">
	</sodipodi:namedview>
<g id="layer1" transform="translate(-70.869496,-52.652955)" inkscape:groupmode="layer" inkscape:label="Layer 1">
	<g id="g3893" transform="translate(11.197765,-5.8482177)">
		<g id="text3726-1">
			<path id="path3791" inkscape:connector-curvature="0" class="st0" d="M110.4,81.7c0.6,0,1.1,0.1,1.3,0.4c0.3,0.3,0.4,0.6,0.4,1
				c0,0.7-0.2,1.3-0.6,1.8c-0.4,0.5-1,0.8-1.9,0.8c-2.1,0-4-0.1-5.7-0.5c-1.9,4-4.1,7.3-6.8,9.9c-2.6,2.6-5.2,3.9-7.8,3.9
				c-2.3,0-4.1-1.2-5.3-3.7c-1.2-2.5-1.8-5.9-2-10c-1.6,4.6-3.4,8.1-5.4,10.4c-2,2.3-4.1,3.4-6.4,3.4c-2.6,0-4.5-1.6-5.8-4.8
				c-1.3-3.2-2-7.5-2-12.9c0-3.9,0.3-8.2,1-12.9c0.2-1.3,0.5-2.3,1-2.8c0.5-0.5,1.3-0.8,2.4-0.8c0.8,0,1.4,0.2,1.8,0.5
				c0.5,0.3,0.7,1,0.7,1.9c0,0.2,0,0.5-0.1,1.1c-0.8,5.5-1.2,10.1-1.2,14c0,3.6,0.3,6.3,0.9,8.3c0.6,1.9,1.4,2.9,2.5,2.9
				c0.9,0,2.1-1,3.4-2.9c1.3-2,2.7-4.9,4-8.7c1.3-3.9,2.4-8.5,3.3-13.8c0.2-1.2,0.6-2.1,1.2-2.5c0.6-0.5,1.4-0.7,2.4-0.7
				c0.8,0,1.4,0.2,1.8,0.6c0.4,0.3,0.6,0.9,0.6,1.6c0,0.4,0,0.8-0.1,1c-0.7,4.3-1.1,8.7-1.1,13c0,3,0.1,5.3,0.3,7.1
				c0.2,1.8,0.6,3.1,1.2,4c0.6,0.9,1.4,1.4,2.5,1.4c1.3,0,2.7-1,4.3-2.9c1.6-1.9,3-4.4,4.3-7.2c-1.6-1-2.9-2.3-3.7-3.9
				c-0.8-1.6-1.2-3.5-1.2-5.6c0-2.1,0.3-3.9,1-5.3c0.7-1.5,1.6-2.6,2.7-3.3c1.1-0.7,2.4-1.1,3.8-1.1c1.7,0,3.1,0.6,4,1.8
				c1,1.2,1.5,2.9,1.5,5c0,3-0.7,6.4-2,10C106.9,81.5,108.5,81.7,110.4,81.7L110.4,81.7z M98.6,73.8c0,2.6,0.8,4.5,2.5,5.8
				c1-3,1.6-5.5,1.6-7.4c0-1.1-0.1-1.9-0.4-2.4c-0.3-0.5-0.7-0.8-1.2-0.8c-0.7,0-1.3,0.4-1.8,1.3C98.8,71,98.6,72.2,98.6,73.8
				L98.6,73.8z"/>
			<path id="path3793" inkscape:connector-curvature="0" class="st0" d="M111.6,99.1c-1.7,0-3-0.6-4-1.8s-1.5-2.8-1.5-4.7
				c0-2.1,0.5-4.1,1.5-6c1-1.9,2.3-3.5,3.9-4.6c1.7-1.2,3.4-1.8,5.2-1.8c0.6,0,1,0.1,1.2,0.4c0.2,0.2,0.4,0.6,0.5,1.2
				c0.6-0.1,1.1-0.2,1.8-0.2c1.3,0,2,0.5,2,1.4c0,0.6-0.2,1.9-0.6,4c-0.6,3.1-0.9,5.2-0.9,6.4c0,0.4,0.1,0.7,0.3,1
				c0.2,0.2,0.5,0.4,0.8,0.4c0.5,0,1.1-0.3,1.8-1c0.7-0.7,1.7-1.7,2.9-3.2c0.3-0.4,0.7-0.6,1.1-0.6c0.3,0,0.6,0.2,0.8,0.5
				c0.2,0.3,0.3,0.8,0.3,1.3c0,1.1-0.3,1.9-0.8,2.5c-1.1,1.4-2.3,2.5-3.5,3.4c-1.2,0.9-2.4,1.4-3.6,1.4c-0.9,0-1.7-0.3-2.4-0.9
				c-0.7-0.6-1.3-1.4-1.6-2.5C115.5,98,113.7,99.1,111.6,99.1L111.6,99.1z M113.1,95.1c0.6,0,1.1-0.3,1.7-1c0.5-0.7,0.9-1.6,1.2-2.8
				l1.5-7.4c-1.1,0-2.2,0.5-3.1,1.3c-0.9,0.8-1.7,1.9-2.2,3.2c-0.6,1.3-0.8,2.7-0.8,4.2c0,0.8,0.2,1.4,0.5,1.8
				C112,94.9,112.5,95.1,113.1,95.1L113.1,95.1z"/>
			<path id="path3795" inkscape:connector-curvature="0" class="st0" d="M140.7,90c0.3,0,0.6,0.2,0.8,0.5c0.2,0.3,0.3,0.8,0.3,1.3
				c0,1.1-0.3,1.9-0.8,2.5c-1.1,1.4-2.4,2.6-3.8,3.5c-1.3,0.9-2.9,1.4-4.6,1.4c-2.3,0-4.1-1.1-5.2-3.2c-1.1-2.1-1.7-4.9-1.7-8.3
				c0-3.3,0.4-7,1.2-11.1c0.9-4.2,2.1-7.7,3.7-10.7c1.7-3,3.6-4.5,5.9-4.5c1.3,0,2.3,0.6,3,1.8c0.7,1.2,1.1,2.9,1.1,5.1
				c0,3.2-0.9,6.9-2.6,11c-1.8,4.2-4.1,8.3-7.2,12.4c0.2,1.1,0.5,1.9,0.9,2.4c0.4,0.5,1,0.7,1.7,0.7c1.1,0,2.1-0.3,2.9-0.9
				c0.8-0.6,1.9-1.7,3.2-3.2C139.9,90.2,140.3,90,140.7,90L140.7,90z M135.8,65.3c-0.6,0-1.3,1.1-2.1,3.3c-0.8,2.2-1.5,5-2,8.2
				s-0.9,6.4-1,9.4c1.9-3.1,3.4-6.2,4.5-9.4c1.1-3.1,1.7-6,1.7-8.6C136.9,66.3,136.5,65.3,135.8,65.3L135.8,65.3z"/>
			<path id="path3797" inkscape:connector-curvature="0" class="st0" d="M146,100c-1.4,0-2.5-0.3-3.2-1c-0.7-0.6-1.1-1.4-1.1-2.2
				c0-0.7,0.3-1.3,0.8-1.8c0.5-0.5,1.3-0.8,2.2-0.8c0.3,0,0.7,0,1.2,0.1c0.5,0.1,0.8,0.1,1.1,0.1c0-0.7-0.2-1.3-0.5-2
				c-0.3-0.6-0.6-1.2-1-1.8c-0.4-0.6-0.8-1.1-1.2-1.5c-0.8,1.6-1.7,2.9-2.5,3.9c-0.8,1-1.7,2-2.6,3c-0.5,0.5-1,0.7-1.5,0.7
				c-0.4,0-0.8-0.1-1-0.4c-0.3-0.3-0.4-0.7-0.4-1.2c0-0.5,0.2-1,0.6-1.5l0.5-0.6c1.5-1.8,2.6-3.3,3.3-4.5c0.5-0.8,1-1.8,1.6-3.1
				c0.6-1.3,1.2-2.7,1.8-4c0.5-1.2,1.6-1.8,3.2-1.8c0.7,0,1.3,0.1,1.6,0.2c0.3,0.1,0.4,0.3,0.4,0.6c0,0.2-0.1,0.4-0.2,0.8
				c-0.1,0.3-0.3,0.7-0.4,1c-0.5,1-0.7,1.8-0.7,2.4c0,0.4,0.1,0.8,0.4,1.3c0.3,0.5,0.7,1.1,1.3,1.8c0.9,1.1,1.5,2.1,1.9,2.9
				c0.5,0.8,0.7,1.6,0.7,2.6c0,0.3,0,0.6-0.1,1.1c1.3-0.5,2.8-1.9,4.6-4c0.3-0.4,0.7-0.6,1.1-0.6c0.3,0,0.6,0.2,0.8,0.5
				c0.2,0.3,0.3,0.8,0.3,1.3c0,1-0.3,1.8-0.8,2.5c-1.3,1.7-2.6,2.8-3.8,3.4c-1.2,0.6-2.7,0.9-4.5,1C148.7,99.6,147.5,100,146,100
				L146,100z"/>
			<path id="path3799" inkscape:connector-curvature="0" class="st0" d="M177.9,90c0.3,0,0.6,0.2,0.8,0.5c0.2,0.3,0.3,0.8,0.3,1.3
				c0,1.1-0.3,1.9-0.8,2.5c-1.2,1.4-2.5,2.6-3.8,3.5c-1.3,0.9-2.7,1.4-4.4,1.4c-1.4,0-2.4-0.4-3.1-1.2c-0.7-0.8-1-1.9-1-3.4
				c0-0.7,0.2-2.1,0.6-4c0.3-1.7,0.5-2.8,0.5-3.5c0-0.4-0.1-0.6-0.4-0.6c-0.3,0-0.8,0.5-1.5,1.4c-0.6,0.9-1.3,2.1-1.9,3.5
				c-0.6,1.5-1.2,3-1.6,4.6c-0.5,2.1-1.8,3.2-3.8,3.2c-0.8,0-1.3-0.3-1.6-0.8c-0.2-0.6-0.4-1.6-0.4-3.1c0-0.9,0-1.5,0-2l0-3.2
				c0-4.1,0.4-8.4,1.2-12.8c0.9-4.5,2.1-8.2,3.7-11.2c1.7-3,3.6-4.6,5.9-4.6c1.2,0,2.2,0.5,3,1.6c0.8,1,1.2,2.4,1.2,4.1
				c0,2.7-0.8,5.5-2.4,8.4c-1.6,2.9-4.1,6.3-7.7,10.1c-0.1,1.4-0.1,2.8-0.1,4.3c0.9-2.3,1.9-4.1,2.9-5.5c1.1-1.4,2.2-2.5,3.2-3.1
				c1.1-0.6,2-0.9,2.9-0.9c1.7,0,2.6,0.9,2.6,2.6c0,1-0.3,2.9-0.9,5.6c-0.5,2.3-0.8,3.9-0.8,4.6c0,1.1,0.4,1.6,1.2,1.6
				c0.5,0,1.2-0.3,1.9-1c0.7-0.7,1.7-1.7,3-3.2C177.1,90.2,177.5,90,177.9,90L177.9,90z M166,65.3c-0.5,0-1,0.7-1.6,2.1
				c-0.6,1.4-1.2,3.2-1.7,5.6c-0.5,2.3-1,4.9-1.3,7.6c1.7-1.9,3-4.1,4.1-6.4c1.1-2.3,1.6-4.4,1.6-6.2c0-0.9-0.1-1.5-0.3-2
				C166.6,65.5,166.3,65.3,166,65.3L166,65.3z"/>
			<path id="path3801" inkscape:connector-curvature="0" class="st0" d="M183.2,100c-1.4,0-2.5-0.3-3.2-1c-0.7-0.6-1.1-1.4-1.1-2.2
				c0-0.7,0.3-1.3,0.8-1.8c0.5-0.5,1.3-0.8,2.2-0.8c0.3,0,0.7,0,1.2,0.1c0.5,0.1,0.8,0.1,1.1,0.1c0-0.7-0.2-1.3-0.5-2
				c-0.3-0.6-0.6-1.2-1-1.8c-0.4-0.6-0.8-1.1-1.2-1.5c-0.8,1.6-1.7,2.9-2.5,3.9c-0.8,1-1.7,2-2.6,3c-0.5,0.5-1,0.7-1.5,0.7
				c-0.4,0-0.8-0.1-1-0.4c-0.3-0.3-0.4-0.7-0.4-1.2c0-0.5,0.2-1,0.6-1.5l0.5-0.6c1.5-1.8,2.6-3.3,3.3-4.5c0.5-0.8,1-1.7,1.4-2.8
				c0.5-1.1,1.2-2.5,2-4.4c0.5-1.2,1.6-1.8,3.2-1.8c0.7,0,1.3,0.1,1.6,0.2c0.3,0.1,0.4,0.3,0.4,0.6c0,0.2-0.1,0.4-0.2,0.8
				c-0.1,0.3-0.3,0.7-0.4,1c-0.5,1-0.7,1.8-0.7,2.4c0,0.4,0.1,0.8,0.4,1.3c0.3,0.5,0.7,1.1,1.3,1.8c0.9,1.1,1.5,2.1,1.9,2.9
				c0.5,0.8,0.7,1.6,0.7,2.6c0,1.1-0.3,2.2-0.8,3.2c-0.5,1-1.2,1.8-2.2,2.4C185.5,99.7,184.4,100,183.2,100L183.2,100z"/>
			<path id="path3803" inkscape:connector-curvature="0" class="st0" d="M241.8,90c0.3,0,0.6,0.2,0.8,0.5c0.2,0.3,0.3,0.8,0.3,1.3
				c0,1-0.3,1.9-0.8,2.5c-1.3,1.5-2.6,2.7-3.9,3.6c-1.3,0.8-2.9,1.2-4.6,1.2c-2,0-3.6-0.6-4.8-1.7c-1.3-1.2-2.4-3-3.5-5.4
				c-0.8-1.8-1.5-3.1-2-3.9c-0.5-0.9-1-1.5-1.5-1.8c-0.5-0.4-1.1-0.6-1.9-0.7l-0.4,3c-0.6,3.8-1.7,6.6-3.3,8.2
				c-1.6,1.7-3.8,2.5-6.6,2.5c-1.8,0-3.5-0.4-4.9-1.3c-1.4-0.9-2.4-2.1-3-3.4c-0.2-0.5-0.3-1-0.3-1.6c0-0.8,0.2-1.5,0.6-2.1
				c0.4-0.6,0.9-0.9,1.4-0.9c0.3,0,0.6,0.1,0.9,0.3c0.2,0.2,0.5,0.5,0.7,0.9c0.8,1.5,1.5,2.6,2.2,3.2c0.6,0.6,1.4,0.9,2.4,0.9
				c1.1,0,2-0.5,2.7-1.4c0.8-1,1.3-2.5,1.6-4.5l0.6-3.8h-0.6c-0.6,0-1.1-0.2-1.4-0.5c-0.3-0.3-0.5-0.8-0.5-1.4
				c0-0.7,0.2-1.2,0.5-1.6c0.4-0.4,0.8-0.6,1.4-0.6h1.3c0.2-1.3,0.3-2.2,0.4-2.7l1.2-9c-0.7-0.1-1.3-0.1-2-0.1c-2.3,0-4,0.4-5.2,1.2
				c-1.2,0.8-1.8,1.9-1.8,3.4c0,0.7,0.1,1.2,0.2,1.6c0.2,0.4,0.4,0.9,0.6,1.4c0.1,0.2,0.2,0.5,0.2,0.7c0,0.6-0.3,1.1-0.8,1.6
				c-0.5,0.4-1.1,0.6-1.8,0.6c-0.9,0-1.5-0.4-1.9-1.1c-0.8-1.4-1.2-2.9-1.2-4.6c0-1.7,0.5-3.2,1.4-4.6c0.9-1.4,2.3-2.5,4.2-3.3
				c1.9-0.9,4.2-1.3,6.9-1.3c1.2,0,2.3,0.1,3.3,0.2c1,0.1,2.1,0.4,3.3,0.8c1.3,0.4,2,1.1,2,2.2c0,1.5-0.6,2.2-1.9,2.2l-1.6,10.8
				c3.1-0.3,5.7-1.7,7.6-4c2-2.4,3.6-5.6,4.9-9.6c0.2-0.7,0.6-1.3,1.2-1.7c0.6-0.4,1.3-0.6,2.2-0.6c0.7,0,1.3,0.2,1.7,0.5
				c0.4,0.3,0.6,0.8,0.6,1.4c0,0.2-0.1,0.5-0.2,0.9c-1.3,4.4-3.2,7.9-5.7,10.5c-2.5,2.6-5.2,4.3-8.1,5.2c1,0.2,1.8,0.6,2.5,1.1
				c0.7,0.5,1.2,1.1,1.7,1.8c0.5,0.7,1,1.7,1.6,2.9c0.8,1.8,1.6,3,2.3,3.8c0.7,0.7,1.6,1.1,2.5,1.1c0.9,0,1.7-0.3,2.4-0.8
				c0.8-0.6,1.7-1.6,2.9-3C241,90.2,241.4,90,241.8,90L241.8,90z"/>
			<path id="path3805" inkscape:connector-curvature="0" class="st0" d="M244.9,77.7c-1.1,0-2-0.3-2.5-0.8c-0.6-0.5-0.8-1.3-0.8-2.2
				s0.4-1.7,1.1-2.3c0.7-0.6,1.7-1,2.8-1c1,0,1.8,0.2,2.4,0.7c0.6,0.5,0.9,1.2,0.9,2c0,1.1-0.3,1.9-1,2.6
				C247,77.3,246.1,77.7,244.9,77.7L244.9,77.7z M244.6,99.1c-1.7,0-3-0.6-3.8-1.8c-0.8-1.2-1.2-2.9-1.2-4.9c0-1.2,0.1-2.7,0.4-4.6
				c0.3-1.9,0.7-3.7,1.2-5.3c0.2-0.9,0.6-1.4,1-1.8c0.4-0.3,1-0.5,1.9-0.5c1.4,0,2,0.5,2,1.4c0,0.7-0.3,2.2-0.8,4.6
				c-0.6,2.9-1,4.9-1,6c0,0.8,0.1,1.4,0.3,1.8c0.2,0.4,0.6,0.6,1.1,0.6c0.5,0,1.1-0.3,1.8-1c0.7-0.7,1.7-1.7,2.9-3.2
				c0.3-0.4,0.7-0.6,1.1-0.6c0.3,0,0.6,0.2,0.8,0.5c0.2,0.3,0.3,0.8,0.3,1.3c0,1.1-0.3,1.9-0.8,2.5
				C249.3,97.5,246.9,99.1,244.6,99.1L244.6,99.1z"/>
			<path id="path3807" inkscape:connector-curvature="0" class="st0" d="M267.3,90c0.3,0,0.6,0.2,0.8,0.5c0.2,0.3,0.3,0.8,0.3,1.3
				c0,1.1-0.3,1.9-0.8,2.5c-1.1,1.4-2.4,2.6-3.8,3.5c-1.4,0.9-2.9,1.4-4.7,1.4c-5.4,0-8.2-3.8-8.2-11.5c0-1.2,0-2.4,0.1-3.6h-1.6
				c-0.8,0-1.3-0.1-1.6-0.4c-0.3-0.3-0.4-0.8-0.4-1.4c0-1.5,0.6-2.2,1.8-2.2h2.3c0.5-2.9,1.1-5.6,2.1-8c0.9-2.4,2.1-4.4,3.4-5.8
				c1.3-1.4,2.8-2.2,4.3-2.2c1.1,0,2,0.5,2.6,1.5c0.6,1,1,2.2,1,3.7c0,4.1-1.7,7.7-5.2,10.8h4.5c0.4,0,0.7,0.1,0.9,0.3
				c0.2,0.2,0.3,0.5,0.3,1c0,1.8-1.5,2.8-4.5,2.8h-4.9c-0.1,1.3-0.1,2.4-0.1,3.1c0,2.8,0.3,4.7,1,5.8c0.7,1.1,1.7,1.7,3.1,1.7
				c1.1,0,2.2-0.3,3-1c0.9-0.7,1.9-1.7,3.1-3.1C266.6,90.2,266.9,90,267.3,90L267.3,90z M260.3,67.9c-0.4,0-0.9,0.5-1.4,1.5
				c-0.5,1-0.9,2.4-1.4,4.2c-0.4,1.8-0.8,3.7-1.1,5.9c1.6-1.4,2.7-2.9,3.5-4.6c0.8-1.7,1.2-3.3,1.2-4.6
				C261.2,68.6,260.9,67.9,260.3,67.9L260.3,67.9z"/>
			<path id="path3809" inkscape:connector-curvature="0" class="st0" d="M272.9,99.1c-2.6,0-4.7-0.7-6.1-2.2
				c-1.4-1.5-2.2-3.5-2.2-5.9c0-2.2,0.4-4.1,1.3-5.7c0.9-1.6,2-2.9,3.3-3.8c1.4-0.9,2.8-1.3,4.3-1.3c1.5,0,2.6,0.4,3.4,1.3
				c0.8,0.9,1.2,2,1.2,3.3c0,1.1-0.3,2.1-0.8,2.8c-0.5,0.8-1.1,1.2-1.9,1.2c-0.5,0-0.9-0.1-1.2-0.4c-0.3-0.2-0.4-0.6-0.4-1
				c0-0.2,0-0.4,0.1-0.6c0.1-0.2,0.1-0.4,0.1-0.5c0.1-0.4,0.2-0.8,0.2-1.1c0-0.3-0.1-0.6-0.3-0.8c-0.2-0.2-0.4-0.3-0.7-0.3
				c-0.6,0-1.2,0.3-1.7,0.8c-0.5,0.5-1,1.3-1.3,2.2c-0.3,0.9-0.5,2-0.5,3.1c0,3.1,1.3,4.6,4,4.6c1.1,0,2.3-0.4,3.5-1.1
				c1.3-0.7,2.5-1.9,3.8-3.3c0.3-0.4,0.7-0.6,1.1-0.6c0.3,0,0.6,0.2,0.8,0.5c0.2,0.3,0.3,0.8,0.3,1.3c0,1-0.3,1.8-0.8,2.5
				c-1.3,1.5-2.8,2.7-4.5,3.6C276.2,98.7,274.5,99.1,272.9,99.1L272.9,99.1z"/>
			<path id="path3811" inkscape:connector-curvature="0" class="st0" d="M302.1,90c0.3,0,0.6,0.2,0.8,0.5c0.2,0.3,0.3,0.8,0.3,1.3
				c0,1.1-0.3,1.9-0.8,2.5c-1.2,1.4-2.5,2.6-3.8,3.5c-1.3,0.9-2.7,1.4-4.4,1.4c-1.4,0-2.4-0.4-3.1-1.2c-0.7-0.8-1-1.9-1-3.4
				c0-0.7,0.2-2.1,0.6-4c0.3-1.7,0.5-2.8,0.5-3.5c0-0.4-0.1-0.6-0.4-0.6c-0.3,0-0.8,0.5-1.5,1.4c-0.6,0.9-1.3,2.1-1.9,3.5
				c-0.6,1.5-1.2,3-1.6,4.6c-0.5,2.1-1.8,3.2-3.8,3.2c-0.8,0-1.3-0.3-1.6-0.8c-0.2-0.6-0.4-1.6-0.4-3.1c0-0.9,0-1.5,0-2l0-3.2
				c0-4.1,0.4-8.4,1.2-12.8c0.9-4.5,2.1-8.2,3.7-11.2c1.7-3,3.6-4.6,5.9-4.6c1.2,0,2.2,0.5,3,1.6c0.8,1,1.2,2.4,1.2,4.1
				c0,2.7-0.8,5.5-2.4,8.4c-1.6,2.9-4.1,6.3-7.7,10.1c-0.1,1.4-0.1,2.8-0.1,4.3c0.9-2.3,1.9-4.1,2.9-5.5c1.1-1.4,2.2-2.5,3.2-3.1
				c1.1-0.6,2-0.9,2.9-0.9c1.7,0,2.6,0.9,2.6,2.6c0,1-0.3,2.9-0.9,5.6c-0.5,2.3-0.8,3.9-0.8,4.6c0,1.1,0.4,1.6,1.2,1.6
				c0.5,0,1.2-0.3,1.9-1c0.7-0.7,1.7-1.7,3-3.2C301.3,90.2,301.7,90,302.1,90L302.1,90z M290.2,65.3c-0.5,0-1,0.7-1.6,2.1
				c-0.6,1.4-1.2,3.2-1.7,5.6c-0.5,2.3-1,4.9-1.3,7.6c1.7-1.9,3-4.1,4.1-6.4c1.1-2.3,1.6-4.4,1.6-6.2c0-0.9-0.1-1.5-0.3-2
				C290.8,65.5,290.6,65.3,290.2,65.3L290.2,65.3z"/>
			<path id="path3813" inkscape:connector-curvature="0" class="st0" d="M317.8,90c0.3,0,0.6,0.2,0.8,0.5c0.2,0.3,0.3,0.8,0.3,1.3
				c0,1.1-0.3,1.9-0.8,2.5c-1,1.2-2.4,2.3-4.2,3.3c-1.8,1-3.7,1.5-5.8,1.5c-2.8,0-5-0.8-6.5-2.3c-1.5-1.5-2.3-3.6-2.3-6.2
				c0-1.8,0.4-3.5,1.2-5.1c0.8-1.6,1.8-2.9,3.2-3.8c1.4-0.9,2.9-1.4,4.7-1.4c1.5,0,2.8,0.5,3.7,1.4c0.9,0.9,1.4,2.1,1.4,3.7
				c0,1.8-0.7,3.4-2,4.8c-1.3,1.3-3.5,2.3-6.7,3.1c0.7,1.2,1.9,1.8,3.8,1.8c1.2,0,2.6-0.4,4.1-1.2c1.5-0.9,2.9-2,4-3.3
				C317.1,90.2,317.4,90,317.8,90L317.8,90z M307.7,84.2c-1,0-1.8,0.6-2.5,1.7c-0.7,1.1-1,2.5-1,4.2v0.1c1.6-0.4,2.8-0.9,3.7-1.7
				c0.9-0.7,1.4-1.6,1.4-2.6c0-0.5-0.1-0.9-0.4-1.2C308.6,84.4,308.2,84.2,307.7,84.2z"/>
			<path id="path3815" inkscape:connector-curvature="0" class="st0" d="M318.5,99.1c-1,0-1.7-0.5-2.2-1.6c-0.4-1.1-0.6-2.8-0.6-5.1
				c0-3.5,0.5-6.8,1.5-9.9c0.2-0.8,0.6-1.3,1.2-1.7c0.6-0.4,1.3-0.6,2.3-0.6c0.5,0,0.9,0.1,1.1,0.2c0.2,0.1,0.3,0.4,0.3,0.8
				c0,0.4-0.2,1.4-0.6,2.9c-0.3,1.1-0.5,2-0.6,2.8c-0.2,0.8-0.3,1.8-0.4,3c0.9-2.3,1.9-4.2,3-5.6c1.1-1.4,2.2-2.5,3.2-3.1
				c1.1-0.6,2-0.9,2.9-0.9c0.9,0,1.5,0.2,1.9,0.7c0.5,0.4,0.7,1.1,0.7,1.9c0,0.7-0.1,2-0.4,3.9c-0.3,1.6-0.5,3.2-0.6,4.6
				c-0.2,1.4-0.2,3.1-0.2,4.8c0,1-0.2,1.7-0.6,2.2c-0.4,0.4-1.1,0.6-2,0.6c-0.9,0-1.5-0.2-1.9-0.7c-0.4-0.5-0.6-1.1-0.6-2
				c0-1.1,0.2-2.8,0.6-5.3c0.3-2.1,0.5-3.5,0.5-4.1c0-0.4-0.1-0.6-0.4-0.6c-0.3,0-0.8,0.5-1.5,1.4c-0.6,0.9-1.3,2.1-1.9,3.5
				c-0.6,1.5-1.2,3-1.6,4.6c-0.3,1.3-0.6,2.1-1,2.6C319.9,98.9,319.3,99.1,318.5,99.1L318.5,99.1z"/>
		</g>
		<g id="text3726-8-7">
			<path id="path3818" inkscape:connector-curvature="0" class="st0" d="M178.4,79.2c-0.7,0-1.2-0.2-1.7-0.5c-0.4-0.4-0.6-1-0.5-1.8
				l0.8-7.6c0.3-2.5,1.4-3.7,3.5-3.7c1.8,0,2.6,0.8,2.6,2.5c0,0.4-0.1,0.9-0.2,1.5l-1.6,7.4c-0.2,0.9-0.5,1.5-1.1,1.8
				C179.7,79,179.1,79.2,178.4,79.2L178.4,79.2z"/>
		</g>
	</g>
</g>
</svg>
