<svg width="64" height="64" viewBox="0 0 64 64" fill="none" xmlns="http://www.w3.org/2000/svg">
<circle cx="32" cy="32" r="32" fill="#FAFAFA"/>
<path d="M41.563 32.3186C41.9556 32.3186 42.2372 32.4039 42.4078 32.5746C42.5956 32.7452 42.6894 32.9671 42.6894 33.2402C42.6894 33.6839 42.5529 34.0765 42.2798 34.4178C42.0238 34.7591 41.6142 34.9383 41.051 34.9554C39.7028 34.9725 38.491 34.8701 37.4158 34.6482C36.2212 37.1911 34.779 39.3074 33.0894 40.997C31.4169 42.6695 29.7614 43.5058 28.123 43.5058C26.6212 43.5058 25.4948 42.7122 24.7438 41.125C23.9929 39.5207 23.5662 37.3789 23.4638 34.6994C22.4398 37.669 21.2793 39.8791 19.9822 41.3298C18.7022 42.7805 17.3369 43.5058 15.8862 43.5058C14.2478 43.5058 13.0105 42.4903 12.1742 40.4594C11.338 38.4114 10.9198 35.6637 10.9198 32.2162C10.9198 29.7074 11.1417 26.9511 11.5854 23.9474C11.7049 23.0941 11.9182 22.5052 12.2254 22.181C12.5497 21.8396 13.0532 21.669 13.7358 21.669C14.2478 21.669 14.6404 21.7799 14.9134 22.0018C15.2036 22.2236 15.3486 22.6332 15.3486 23.2306C15.3486 23.35 15.3316 23.5804 15.2974 23.9218C14.7854 27.4204 14.5294 30.3986 14.5294 32.8562C14.5294 35.1431 14.7257 36.9095 15.1182 38.1554C15.5108 39.4013 16.0398 40.0242 16.7054 40.0242C17.3028 40.0242 18.0196 39.4013 18.8558 38.1554C19.7092 36.8925 20.554 35.0322 21.3902 32.5746C22.2265 30.0999 22.9348 27.1559 23.515 23.7426C23.6516 22.9575 23.899 22.4199 24.2574 22.1298C24.6329 21.8226 25.1364 21.669 25.7678 21.669C26.2969 21.669 26.6809 21.7884 26.9198 22.0274C27.1758 22.2492 27.3038 22.5906 27.3038 23.0514C27.3038 23.3244 27.2868 23.5378 27.2526 23.6914C26.7748 26.4732 26.5358 29.2551 26.5358 32.037C26.5358 33.9314 26.5956 35.4418 26.715 36.5682C26.8516 37.6946 27.099 38.5565 27.4574 39.1538C27.8329 39.7341 28.3705 40.0242 29.0702 40.0242C29.8894 40.0242 30.8025 39.4098 31.8094 38.181C32.8164 36.9351 33.738 35.3906 34.5742 33.5474C33.5332 32.8989 32.7481 32.0626 32.219 31.0386C31.69 29.9975 31.4254 28.8028 31.4254 27.4546C31.4254 26.1063 31.6302 24.9714 32.0398 24.0498C32.4665 23.1111 33.0382 22.4114 33.755 21.9506C34.4889 21.4898 35.2996 21.2594 36.187 21.2594C37.2793 21.2594 38.1412 21.6519 38.7726 22.437C39.4212 23.2221 39.7454 24.2973 39.7454 25.6626C39.7454 27.5911 39.3273 29.733 38.491 32.0882C39.3614 32.2418 40.3854 32.3186 41.563 32.3186ZM34.011 27.2754C34.011 28.9479 34.5486 30.1853 35.6238 30.9874C36.2894 29.0759 36.6222 27.4972 36.6222 26.2514C36.6222 25.5346 36.5284 25.0141 36.3406 24.6898C36.1529 24.3484 35.8969 24.1778 35.5726 24.1778C35.1118 24.1778 34.7364 24.4508 34.4462 24.997C34.1561 25.526 34.011 26.2855 34.011 27.2754Z" fill="#EF4444"/>
<path d="M51.081 40.7154C51.7808 40.8519 52.1306 41.2359 52.1306 41.8674C52.1306 42.2941 51.9344 42.678 51.5418 43.0194C51.1664 43.3437 50.6202 43.5058 49.9034 43.5058C48.6746 43.5058 47.6677 43.1303 46.8826 42.3794C46.1146 41.6114 45.7306 40.613 45.7306 39.3842C45.7306 38.7186 46.072 38.2407 46.7546 37.9506C47.5056 37.6263 48.0432 37.285 48.3674 36.9266C48.6917 36.5511 48.8538 36.0989 48.8538 35.5698C48.8538 35.2626 48.7856 35.0322 48.649 34.8786C48.5296 34.725 48.376 34.6482 48.1882 34.6482C47.7274 34.6482 47.2154 34.981 46.6522 35.6466C46.1061 36.3122 45.5941 37.1741 45.1162 38.2322C44.6384 39.2733 44.2629 40.3485 43.9898 41.4578C43.8021 42.2599 43.5802 42.8061 43.3242 43.0962C43.0853 43.3693 42.7013 43.5058 42.1722 43.5058C41.6432 43.5058 41.2506 43.3181 40.9946 42.9426C40.7557 42.5501 40.5936 41.9527 40.5082 41.1506C40.4229 40.3485 40.3802 39.1709 40.3802 37.6178C40.3802 34.9895 40.6448 32.2503 41.1738 29.4002C41.72 26.55 42.5136 24.1607 43.5546 22.2322C44.6128 20.2866 45.8757 19.3138 47.3434 19.3138C48.1285 19.3138 48.76 19.6551 49.2378 20.3378C49.7328 21.0034 49.9802 21.8738 49.9802 22.949C49.9802 24.6727 49.4768 26.4647 48.4698 28.325C47.4629 30.1682 45.8245 32.3271 43.5546 34.8018C43.5034 35.6893 43.4778 36.6023 43.4778 37.541C44.297 35.4077 45.2357 33.8631 46.2938 32.9074C47.352 31.9346 48.3418 31.4482 49.2634 31.4482C50.1168 31.4482 50.7994 31.7383 51.3114 32.3186C51.8405 32.8989 52.105 33.6157 52.105 34.469C52.105 35.4077 51.8661 36.2695 51.3882 37.0546C50.9104 37.8397 50.0912 38.5394 48.9306 39.1538C49.033 39.6658 49.2378 40.0242 49.545 40.229C49.8693 40.4167 50.3813 40.5789 51.081 40.7154ZM46.8058 21.8482C46.4986 21.8482 46.1573 22.2919 45.7818 23.1794C45.4064 24.0498 45.0394 25.2359 44.681 26.7378C44.3397 28.2226 44.0581 29.8439 43.8362 31.6018C44.8944 30.3559 45.7648 28.9991 46.4474 27.5314C47.1472 26.0636 47.497 24.7324 47.497 23.5378C47.497 22.9916 47.4373 22.5735 47.3178 22.2834C47.1984 21.9932 47.0277 21.8482 46.8058 21.8482Z" fill="#EF4444"/>
</svg>
